<?xml version="1.0" encoding="utf-8"?>
<!-- Generator: Adobe Illustrator 25.0.0, SVG Export Plug-In . SVG Version: 6.00 Build 0)  -->
<svg version="1.1" id="Layer_1" xmlns="http://www.w3.org/2000/svg" xmlns:xlink="http://www.w3.org/1999/xlink" x="0px" y="0px"
	 viewBox="0 0 246.8 360.6" enable-background="new 0 0 246.8 360.6" xml:space="preserve">
<g id="tweaks_xA0_Image_1_" display="none">
</g>
<g id="Layer_7" display="none">
</g>
<g id="Layer_3">
</g>
<g id="Layer_5">
</g>
<g id="Layer_4">
</g>
<g id="Layer_9">
</g>
<g>
	<g>
		<g>
			<path fill="#6EEDE4" d="M188.3,42.4c0,0-31.8,16.1-9.9,62.7s43.4,72.7,8.6,130.7s-169.9,9.6-173-33.9l0.7-11.1
				c0,0,58,34.7,89.4,36.4s59.9-2.8,66.8-55.4c4.9-37.2-18.7-53.6-12.7-97.4C162.9,40.6,188.3,42.4,188.3,42.4z"/>
			<path fill="#0CBFB2" d="M14.8,190.7c0,0,58,34.7,89.4,36.4c31.4,1.7,59.9-2.8,66.8-55.4c4.9-37.2-18.7-53.6-12.7-97.4
				c4.6-33.6,30-31.9,30-31.9s-29.5-8.3-43.9,33.8c0,0-5.6,7.9,7.4,53.6c13.1,45.6-14.3,75-40.7,71.9
				C70.9,197,22.6,159.1,14.8,190.7z"/>
			<path fill="#0CBFB2" d="M109.8,239.5c0,0,12-2.5,20.9,4.3s-10.4,8.7-10.4,8.7S83.2,247,109.8,239.5z"/>
			<path fill="#0CBFB2" d="M182.5,212.6c0-0.5-27.2,14.1-23.4,25.8C159.2,238.4,184.9,240.1,182.5,212.6z"/>
			<path fill="#0CBFB2" d="M192.7,186.3c0.4,0,13.3-8,1.5-29.1c0,0-9.3-0.6-9.1,13.2C185.2,184.4,192.7,186.3,192.7,186.3z"/>
			<path fill="#0CBFB2" d="M181.7,115.4c0,0,4.8,10,0,12.3c-4.8,2.3-11.3-11.5-9.9-15.6C173.1,108.1,176.5,105.8,181.7,115.4z"/>
		</g>
		<path fill="#02A898" d="M80.9,254.4c0,0-0.9-28.6-16.1-67.1c0,0-42.9-23.2-50.1,3.4S49,247.9,80.9,254.4z"/>
		<g>
			<g>
				<g>
					<path d="M191.6,38.7C172.8,45.4,166.9,68.1,170,86c2,11.8,7.8,22.8,13.4,33.2c5.8,10.8,11.7,21.6,15.2,33.4
						c6.8,23,6,48.9-5.5,70.3c-10,18.6-28.1,33-48.8,37.6c-10.6,2.4-21.4,1.4-32.1-0.3c-11.8-1.9-23.5-4.7-34.7-8.9
						c-2.5-0.9-4.9-1.9-7.3-3c-1-0.4-2.2-0.3-2.7,0.7c-0.5,0.9-0.3,2.3,0.7,2.7c10.8,4.9,22.2,8.2,33.8,10.6
						c5.9,1.2,11.8,2.2,17.8,2.9c5.3,0.6,10.6,1,15.9,0.6c21.8-1.7,41.8-14.1,54.8-31.5c14.4-19.3,18.6-44.4,15.2-67.9
						c-1.8-12.3-5.9-24-11.4-35.1c-5.6-11.2-12.3-21.8-16.7-33.5c-3.7-9.6-5.5-19.7-3.7-30c1.6-8.6,5.6-17.5,13.1-22.5
						c1.8-1.2,3.7-2.2,5.7-2.9C195.1,41.8,194.1,37.9,191.6,38.7L191.6,38.7z"/>
				</g>
			</g>
			<g>
				<g>
					<path d="M186.5,39c-10.6,2.1-19.1,9.6-24.3,18.9c-5.8,10.3-7.7,22-6.8,33.7c1.1,14.7,5.8,28.7,9.3,42.9
						c3.6,14.3,5.8,29.4,3.6,44.1c-1.8,12.1-6.8,24-15.4,33c-3.1,3.3-6.7,6-10.7,8.2c-2.7,1.5-4.8,2.4-7.7,3.4
						c-13.7,4.5-28.8,3-42.8-0.5c-23-5.7-44.6-16.4-65-28.1c-3.2-1.8-6.5-3.7-9.7-5.6c-2.2-1.3-4.2,2.1-2,3.5
						c21.6,12.9,44.4,25,68.6,32.2c15.1,4.5,31.5,7.3,47,3.7c5.9-1.3,11.6-3.7,16.7-7c10.2-6.8,17.4-17.2,21.5-28.6
						c4.9-13.5,5.1-28.2,3.1-42.4c-2.1-14.7-6.9-28.8-10.1-43.3c-2.7-12.5-4.1-25.5-0.2-37.8c3.1-9.9,9.4-19.4,18.9-24.1
						c2.2-1.1,4.6-1.8,7.1-2.3C190.1,42.3,189.1,38.5,186.5,39L186.5,39z"/>
				</g>
			</g>
			<g>
				<g>
					<path d="M193.5,158.2c2.1,3.6,3.4,7.7,3.7,12c0.3,4,0,8.7-1.8,12.3c-0.7,1.5-2,2.2-3.6,1.6c-1.8-0.7-2.7-2.6-3.3-4.3
						c-1.3-3.7-1.9-7.8-1.5-11.7c0.2-2.1,0.8-4.1,1.9-5.9c0.5-0.8,1.1-1.6,1.9-2.2c0.4-0.2,1.3-0.8,1.7-0.4c1.9,1.7,4.8-1.1,2.8-2.8
						c-2-1.8-4.7-1.5-6.8,0s-3.5,3.8-4.4,6.2c-1.9,4.9-1.4,10.5-0.1,15.5c0.7,2.6,1.6,5.3,3.5,7.3c1.8,1.9,4.5,2.9,7.1,2.3
						c2.7-0.6,4.2-3,5-5.4c1-2.7,1.4-5.5,1.6-8.4c0.4-6.3-1.2-12.7-4.3-18.1C195.6,154,192.2,156,193.5,158.2L193.5,158.2z"/>
				</g>
			</g>
			<g>
				<g>
					<path d="M182,216.3c-0.3,8.5-6.3,16.4-14.1,19.5c-1.9,0.8-4.1,1.4-6.1,1.4c-0.7,0-1.5,0.1-1.5-0.8c0.1-1.1,0.8-2.2,1.2-3.2
						c2-4.1,4.8-7.8,8.2-10.9c3.8-3.5,8.4-6.1,13.3-7.7c2.4-0.8,1.4-4.6-1.1-3.9c-10.6,3.4-19.8,11.3-24.4,21.5
						c-1.2,2.6-2.3,6.1,0.5,8.1c2.2,1.6,5.5,0.9,8,0.3c5-1.2,9.7-4.2,13.1-8.1c4-4.5,6.5-10.2,6.7-16.2
						C186.1,213.7,182.1,213.7,182,216.3L182,216.3z"/>
				</g>
			</g>
			<g>
				<g>
					<path d="M107.6,242.6c4.5-0.5,9.1-0.9,13.6-0.3c2.1,0.3,4.2,0.8,6.1,1.8c0.9,0.4,1.7,0.9,2.5,1.5c0.5,0.4,2.1,1.5,2,2.3
						c0,0.3-1.1,0.8-1.5,1c-1.1,0.4-2.4,0.7-3.5,0.9c-2.5,0.5-5.1,0.7-7.7,0.7c-5.1-0.1-10.2-1.2-14.8-3.4c-0.7-0.3-2.4-0.9-2.4-1.9
						c0-0.9,1.2-1.8,1.9-2.2c2.5-1.5,5.8-1.7,8.6-1.1c2.5,0.5,3.6-3.3,1.1-3.9c-3.5-0.7-7-0.5-10.3,0.9c-2.7,1.1-5.5,3.7-5.2,6.9
						c0.4,3.5,4.4,4.9,7.2,6c3.1,1.2,6.3,2,9.6,2.4c3.2,0.4,6.5,0.4,9.8,0.1c2.9-0.4,6.5-0.8,9-2.5c1.1-0.8,2.1-1.8,2.3-3.2
						c0.3-1.7-0.6-3.3-1.7-4.5c-1.9-2.1-4.5-3.5-7.1-4.5c-6.1-2.2-13-1.6-19.3-0.9c-1.1,0.1-2,0.8-2,2
						C105.6,241.6,106.5,242.8,107.6,242.6L107.6,242.6z"/>
				</g>
			</g>
			<g>
				<g>
					<path d="M176.1,111.1c1.8,2.1,3.2,4.6,4.2,7.1c0.5,1.4,0.9,2.7,1.2,4.2c0.2,1,0.4,2,0.1,2.9c-0.1,0.2-0.2,0.4-0.2,0.4
						c-0.4,0.1-0.8,0-1.1-0.1c-1.1-0.5-2.1-1.3-2.8-2.3c-1.6-2-2.9-4.6-3.6-7c-0.4-1.3-0.7-2.8-0.2-4.1c0.4-0.9,1.2-1.7,2.1-1.8
						c2.6-0.1,2.6-4.1,0-4c-3.9,0.1-6.5,3.8-6.4,7.6c0.1,2.2,0.9,4.3,1.7,6.3c0.7,1.5,1.4,3.1,2.4,4.4c2,2.8,6,6.5,9.7,4.6
						c3.4-1.7,2.6-6.3,1.8-9.3c-1.2-4.3-3.3-8.2-6.1-11.7c-0.7-0.8-2.1-0.7-2.8,0C175.2,109.1,175.4,110.3,176.1,111.1L176.1,111.1z
						"/>
				</g>
			</g>
			<g>
				<g>
					<path d="M60.9,183.6c-9.5-4.1-20-7.9-30.5-7.8c-4.3,0-8.6,1-12,3.8c-1.7,1.5-2.8,3.4-3.7,5.4c-1.2,2.6-2.1,5.2-2.4,8
						c-0.4,2.7-0.1,5.6,0.2,8.3s0.8,5.4,1.6,8c1.1,3.5,2.7,7.1,4.6,10.2c2.1,3.3,4.9,6.1,8,8.6c3.7,3.1,7.7,5.9,11.8,8.6
						C48,243,58.2,247.9,68.8,252c1,0.4,2.2-0.4,2.5-1.4c0.3-1.1-0.4-2.1-1.4-2.5c-8.7-3.5-17.3-7.5-25.3-12.4
						c-3.7-2.2-7.2-4.6-10.6-7.2c-3.4-2.5-6.8-5.2-9.6-8.4c-2-2.2-3.3-4.9-4.5-7.6c-1.9-4.2-3-8.5-3.4-13.1c-0.2-2.5-0.4-5,0.2-7.5
						c0.5-2.4,1.4-4.8,2.6-7c1.8-3.2,5-4.7,8.5-5.1c4.8-0.6,9.7,0.2,14.4,1.3c5.8,1.4,11.4,3.3,16.9,5.7c1,0.4,2.1,0.3,2.7-0.7
						C62.1,185.5,61.9,184,60.9,183.6L60.9,183.6z"/>
				</g>
			</g>
		</g>
		<g>
			<g>
				<path d="M190.8,38.7c-16.6-2.1-33,7-41.7,21c-4.5,7.2-7,15.5-7.6,23.9c-0.7,9.5,1.3,18.9,3.7,28c4.8,18.1,10.7,37.4,6.1,56.2
					c-3.6,14.8-13.8,28.4-29.3,31.4c-9,1.8-18.3-0.1-26.9-2.7c-9.4-2.9-18.5-6.8-27.6-10.3c-2.3-0.9-4.6-1.8-7-2.7
					c-1-0.4-2.2,0.4-2.5,1.4c-0.3,1.1,0.4,2.1,1.4,2.5c9.3,3.7,18.6,7.5,28.1,10.9c8.7,3.1,17.9,5.7,27.2,5.7
					c8.5,0,16.9-2.5,23.6-7.8c6-4.6,10.6-10.9,13.6-17.8c7.5-17.2,5.2-36.3,0.8-53.9c-2.4-9.5-5.6-18.9-6.9-28.7
					c-1.2-8.6-0.5-17.2,2.5-25.3c5.6-15.3,19.7-27.2,36.4-27.8c2-0.1,4.1,0,6.1,0.3c1.1,0.1,2-1,2-2
					C192.8,39.5,191.8,38.8,190.8,38.7L190.8,38.7z"/>
			</g>
		</g>
	</g>
	<rect x="-0.2" y="0.1" fill-opacity="0" width="247" height="360.5"/>
</g>
</svg>
