<?xml version="1.0" encoding="utf-8"?>
<!-- Generator: Adobe Illustrator 25.0.0, SVG Export Plug-In . SVG Version: 6.00 Build 0)  -->
<svg version="1.1" id="Layer_1" xmlns="http://www.w3.org/2000/svg" xmlns:xlink="http://www.w3.org/1999/xlink" x="0px" y="0px"
	 viewBox="0 0 246.8 360.6" enable-background="new 0 0 246.8 360.6" xml:space="preserve">
<g id="tweaks_xA0_Image_1_" display="none">
</g>
<g id="Layer_7" display="none">
</g>
<g id="Layer_3">
</g>
<g id="Layer_5">
</g>
<g id="Layer_4">
</g>
<g>
	<g>
		<path fill="#E2B059" d="M164.2,160.6c0,0-5,46.4-55.8,44.4c0,0,2.3,20.3-13.3,34.8c0,0,86.5,12.9,103.3-73.8l2.2-23.7
			c0,0,23.2-1.2,23.8-23.3c0,0,8.2-6.1-2.1-20.6c0,0,7.6-15.8-10.1-19.9C194.5,74.6,190,78,190,78s1.4-31.9-22.6-29.6
			c0,0-17.9,6.4,0.5,38.4c0,0-3.7,29.1-3.2,36.7c0.6,7.6,1.8,24.2-0.1,37.1"/>
		<path fill="#C48D3D" d="M197.8,78.4c0,0-6.1,9.2,2.8,10.3c0,0-6.1,15.8,1.3,19.4c0,0-7.1,16.7,0,19.1c0,0-9.8,7.9-2.6,15.1
			c0,0-18.1,2.6-16.2-9.8c0,0,12.8-13.4,9.2-30.4s-7.4-5.6-3-19.9C192.2,73,197.8,78.4,197.8,78.4z"/>
		<path fill="#FFFFFF" d="M24.3,182.2c0,0,17.4-8.7,26.8-5.8c9.4,3,54.5,11.6,54.5,11.6s11.5,42.2-21.4,61.7c0,0-61.4-10-69.6-43
			C14.6,206.7,10.3,190.5,24.3,182.2z"/>
		<path fill="#DBDBDB" d="M20.1,185.5c54.4,65.3,86.9,23.7,86.9,23.7c-1.4,29.4-20.7,39.4-20.7,39.4s-4.1,4.5-29.3-6.1
			C31.9,231.9,2,222.6,20.1,185.5z"/>
		<path fill="#C48D3D" d="M117.5,205c0,0,1.5,20.7-5.8,32.9l-15.3,1.7c0,0,10.2-12.6,13.3-34.3L117.5,205z"/>
		<g>
			<g>
				<path d="M164.6,162.7c2.6,0,2.6-4,0-4S162,162.7,164.6,162.7L164.6,162.7z"/>
			</g>
		</g>
		<g>
			<g>
				<path d="M96.4,241.6c12.9,0.4,25.9,0.3,38.6-2.4c9.7-2.1,18.9-5.9,27.1-11.7c15.8-11.3,27.5-27.9,34.1-46.1
					c4.3-11.9,6.5-24.5,6.5-37.1c0-2.6-4-2.6-4,0c0,20.9-6.2,41.6-18.2,58.8c-5,7.2-11.1,13.8-18.1,19.2c-7.2,5.6-15.3,9.6-24.1,12
					c-13.6,3.7-27.8,3.8-41.7,3.3C93.8,237.5,93.8,241.5,96.4,241.6L96.4,241.6z"/>
			</g>
		</g>
		<g>
			<g>
				<path d="M109.7,207.3c15.2-0.3,31.5-3.1,42-15c7.8-8.8,12.5-20.3,14.9-31.7c1.5-7.2,1.9-14.7,1.4-22.1c-0.2-2.6-4.2-2.6-4,0
					c0.7,10.6-0.6,21.2-4.1,31.2c-2.2,6.2-5.2,12.2-9.2,17.4c-4.1,5.4-9.3,9.4-15.7,11.9c-8.1,3.2-16.8,4.1-25.5,4.3
					C107.1,203.3,107.1,207.3,109.7,207.3L109.7,207.3z"/>
			</g>
		</g>
		<g>
			<g>
				<path d="M17.6,192.8c2.7-6.3,8.2-9.8,14.4-12c3.9-1.4,7.9-2.7,12-3c4.7-0.3,8.9,1.1,13.3,2.6c8.9,3,18.1,4.9,27.4,6.3
					c4.7,0.7,9.5,1.3,14.2,1.9c1.1,0.1,2.2,0.3,3.3,0.4c0.7,0.1,1.8,0.1,2.3,0.7c0.5,0.5,0.6,1.4,0.7,2.1c0.2,1.2,0.3,2.4,0.4,3.5
					c1.5,17-1.8,35.5-14.8,47.6c-2.8,2.6-6.3,5.1-10.3,4.7c-2.3-0.3-4.5-1.2-6.7-1.9c-2.4-0.8-4.7-1.5-7.1-2.3
					c-8.2-2.6-16.5-5.1-24.3-8.8c-7.3-3.5-14.2-8-19.2-14.4c-4.5-5.9-7.5-13.2-7.2-20.7c0.1-1.8,0.4-3.6,1-5.4
					c0.7-2.5-3.1-3.5-3.9-1.1c-2.4,8.1-0.7,16.7,3.3,24c4.2,7.7,10.8,13.7,18.3,18.1c7.9,4.6,16.6,7.6,25.3,10.4
					c4.9,1.6,9.8,3.2,14.8,4.8c2.3,0.7,4.7,1.5,7.2,1.4c2.2-0.1,4.4-0.8,6.3-1.9c3.8-2.1,7.1-5.5,9.8-8.9c2.7-3.4,4.9-7.1,6.7-11.1
					c3.9-9,5.4-18.8,5.2-28.5c-0.1-2.5-0.2-5.1-0.5-7.6c-0.2-2.1-0.3-4.5-1.6-6.2c-1.5-2-3.8-2.2-6.1-2.5c-2.5-0.3-5-0.6-7.5-0.9
					c-10.1-1.3-20.2-2.9-30-5.6c-4.7-1.3-9.3-3.4-14.1-4.2c-5.1-0.9-10.3-0.1-15.2,1.5c-6.9,2.2-13.9,4.9-18.3,10.9
					c-1.2,1.6-2.1,3.4-2.9,5.2c-0.4,1,0.5,2.2,1.4,2.5C16.3,194.5,17.2,193.8,17.6,192.8L17.6,192.8z"/>
			</g>
		</g>
		<g>
			<g>
				<path d="M168.1,138.4c-0.4-5.4-1.1-10.7-1.5-16.1c-0.2-2.7-0.4-5.3-0.3-8c0.1-2.7,0.6-5.3,1.3-8c1.2-5,2.1-9.9,1.9-15.1
					c-0.2-5.1-1.2-10.1-3-14.8c-2.7-7.1-10.5-18.2-2.1-24.4c7.3-5.4,16.4-0.2,20.3,6.8c2.6,4.7,3.4,10.2,3.4,15.5
					c0,5.8-1.2,11.5-3.4,16.8c-0.4,1,0.4,2.2,1.4,2.5c1.1,0.3,2-0.4,2.5-1.4c4-9.8,5.1-21.8,1.3-31.8c-3.4-8.8-12.1-16.5-22.1-14.2
					c-4.2,1-8.1,3.8-9.9,7.8c-2.2,4.9-0.9,10.2,1.1,15c2.1,4.9,4.5,9.5,5.6,14.8c1.1,5.2,1.3,10.7,0.4,16c-0.5,3.1-1.5,6.2-2,9.3
					c-0.6,3.2-0.7,6.4-0.6,9.7c0.3,6.6,1.2,13.1,1.7,19.7C164.3,141,168.3,141,168.1,138.4L168.1,138.4z"/>
			</g>
		</g>
		<g>
			<g>
				<path d="M184.4,93.8c2.5,2.2,4.5,4.9,5.7,8.1c0.7,1.9,1,3.9,1.4,5.9c0.3,1.8,0.7,3.7,0.5,5.6c-0.3,2.6-1.6,5.2-2.9,7.5
					c-1.3,2.5-2.9,4.9-4.6,7.1c-0.7,0.8-0.8,2,0,2.8c0.7,0.7,2.1,0.8,2.8,0c2-2.5,3.8-5.2,5.4-8.1c1.6-2.9,3-6,3.3-9.3
					c0.2-2.2-0.2-4.3-0.6-6.4c-0.4-2.1-0.8-4.3-1.5-6.3c-1.4-3.7-3.6-7.1-6.6-9.7C185.3,89.3,182.5,92.1,184.4,93.8L184.4,93.8z"/>
			</g>
		</g>
		<g>
			<g>
				<path d="M191.3,80c4.7-1.3,9.7-1.6,14.5-0.9c2.5,0.4,4.9,1,7.3,1.9c2.1,0.8,4.4,1.8,6.1,3.4c2.9,2.7,3.5,7.1,2.4,10.8
					c-1.2,4-4.5,7.1-8.1,9.1c-5,2.7-10.9,3.2-16.5,3.3c-2.6,0-2.6,4,0,4c10.6-0.1,23.3-2.9,27.8-13.8c1.9-4.5,1.6-10.1-1.2-14.2
					c-3.1-4.5-8.9-6.6-14-7.8c-6.4-1.5-13-1.4-19.4,0.4C187.8,76.8,188.8,80.7,191.3,80L191.3,80z"/>
			</g>
		</g>
		<g>
			<g>
				<path d="M203.4,86.8c-5.2,0.9-10.2,2.5-15.1,4.6c-1,0.4-1.2,1.9-0.7,2.7c0.6,1,1.7,1.1,2.7,0.7c4.5-2,9.3-3.3,14.1-4.2
					c1.1-0.2,1.7-1.5,1.4-2.5C205.6,87.1,204.5,86.6,203.4,86.8L203.4,86.8z"/>
			</g>
		</g>
		<g>
			<g>
				<path d="M221.3,101.2c2.1,3.2,4.6,5.8,4.7,9.9c0.1,4.2-2.7,6.7-6.1,8.6c-3.6,2.1-7.5,3.5-11.6,4.5c-2,0.5-4,0.9-6,1
					c-1.9,0.1-4.4,0.2-6.2-0.6c-1.1-0.4-1.6-1.2-1.8-2.2c-0.1-0.5-0.2-0.8-0.1-1.4c0-0.3,0-0.5,0-0.8c0-0.2,0,0.1,0,0.1
					c0-0.1,0.1-0.3,0.1-0.4c0.5-2.5-3.3-3.6-3.9-1.1c-0.6,2.8-0.2,6,1.9,8c1.6,1.6,3.7,2,5.8,2.2c2.7,0.3,5.3,0.2,8-0.3
					c4.9-0.9,9.8-2.3,14.2-4.6c4.2-2.2,8.6-5.3,9.5-10.2c0.5-2.7,0.2-5.5-0.8-8s-2.7-4.5-4.2-6.7C223.4,97,219.9,99,221.3,101.2
					L221.3,101.2z"/>
			</g>
		</g>
		<g>
			<g>
				<path d="M221.5,122.6c0.1,2.1,0.3,4.2-0.4,6.3c-0.5,1.7-1.6,3.1-2.8,4.3c-2.7,2.6-6.2,4.6-9.8,5.7c-5.4,1.7-16.7,3.5-17.2-4.8
					c-0.1-1.8,0.4-3.5,0.8-5.3c0.3-1.5,0.7-2.7,1.8-3.9c1.7-1.9-1.1-4.7-2.8-2.8c-1.3,1.4-2.2,2.9-2.6,4.8c-0.4,1.9-0.9,3.8-1.1,5.7
					c-0.3,4.3,1.8,8.7,5.9,10.4c4.3,1.9,9.6,1.4,14,0.3c4.6-1.1,9-3.2,12.6-6.2c2-1.7,3.8-3.7,4.8-6.1c1.1-2.7,1.1-5.6,0.9-8.5
					C225.3,120.1,221.3,120.1,221.5,122.6L221.5,122.6z"/>
			</g>
		</g>
	</g>
	<rect x="-0.2" y="0.1" fill-opacity="0" width="247" height="360.5"/>
</g>
</svg>
