<?xml version="1.0" encoding="utf-8"?>
<!-- Generator: Adobe Illustrator 25.0.0, SVG Export Plug-In . SVG Version: 6.00 Build 0)  -->
<svg version="1.1" id="Layer_1" xmlns="http://www.w3.org/2000/svg" xmlns:xlink="http://www.w3.org/1999/xlink" x="0px" y="0px"
	 viewBox="0 0 254.4 263.7" enable-background="new 0 0 254.4 263.7" xml:space="preserve">
<g>
	<rect x="-0.2" y="0.1" fill-opacity="0" width="254.4" height="263.7"/>
	<g>
		<path fill="#E2B059" d="M44,106.7c0,0,14.6,38.2,8.8,95.8c0,0,8.3,1.9,31.8-4.6c0,0,0.9-24.5,7.8-28.8c0,0,0.4-45.3-9.7-75.2
			C82.8,93.7,49.5,105.8,44,106.7z"/>
		<path fill="#FFFFFF" d="M92.2,152.5l0.6,17.3c0,0-8.3,8.6-6.5,24.3c1.3,11.9-32.9,10-32.9,10l-0.3-49.8
			C53.1,154.3,74.2,160.2,92.2,152.5z"/>
		<g>
			<path fill="#248410" d="M105.6,235.9c0,0,0.8-36.8,20-52.7c0,0,44.3-16.7,63.8,19.5S137.3,238.2,105.6,235.9z"/>
		</g>
		<g>
			<path fill="#248410" d="M125.6,183.2c0,0-17,24.3-15.6,52.3c0,0-56.5-0.7-65.2-4.7c0,0-4.4-13.1,5-26.2c0,0,37.9,0.6,36.5-12.6
				c-1.3-13.2,2.3-29.4,31.3-28l1.8,21.7L125.6,183.2z"/>
		</g>
		<path fill="#DBDBDB" d="M147.8,236.8l-102.9-6l0.8,9.2c0,0,114.8,25.2,141.7-10.1L147.8,236.8z"/>
		<path fill="#C48D3D" d="M44,106.7l6,20.4c0,0,29.6-7.7,34.8-25.9l-2-7.4L44,106.7z"/>
		<g>
			<g>
				<path d="M121.6,184.7c-0.3-5.8-0.6-11.6-0.9-17.4c-0.1-2.5-0.6-5-3.3-5.7c-1.2-0.3-2.6-0.2-3.9-0.1c-1.4,0-2.8,0.1-4.1,0.2
					c-9.5,0.9-19.9,4.8-23.4,14.5c-1.8,4.9-1.1,10.3-1.4,15.4c-0.1,2.2-0.3,4.5-2.6,5.5c-2.4,1.1-5.2,1.7-7.8,2.3
					c-5.4,1.3-11,2.2-16.6,2.5c-2.5,0.1-5.4-0.3-7.7,0.6c-2.6,0.9-3.5,3.4-4.4,5.7c-2.2,5.5-3.5,11.4-3.8,17.3
					c-0.1,2.9,0,5.9,0.3,8.8c0.3,2.7,0.5,5.7,2.8,7.4c2.1,1.5,4.1-2,2-3.5c-0.4-0.3-0.5-1.8-0.6-2.3c-0.2-1.1-0.3-2.3-0.4-3.4
					c-0.2-2.4-0.3-4.9-0.1-7.3c0.3-4.7,1.2-9.3,2.7-13.7c0.4-1.1,0.8-2.2,1.3-3.2c0.4-0.9,0.7-1.9,1.8-2.1c1-0.2,2.1-0.1,3-0.1
					c1.3,0,2.7-0.1,4-0.2c5.1-0.3,10.1-1.1,15.1-2.2c2.5-0.6,4.9-1.2,7.3-2c2.3-0.7,4.6-1.5,6-3.6c1.2-1.8,1.5-4.1,1.6-6.2
					c0.2-2.4,0.1-4.9,0.1-7.3c0.1-4.3,0.9-8.4,3.9-11.7c2.8-3.1,6.5-5,10.5-6c2.6-0.7,5.4-1,8.1-1.2c1.4-0.1,2.9-0.2,4.3-0.1
					c0.3,0,0.8-0.1,1,0.1c0.2,0.2,0.1,1,0.2,1.3c0.3,6,0.6,11.9,0.9,17.9C117.7,187.3,121.7,187.3,121.6,184.7L121.6,184.7z"/>
			</g>
		</g>
		<g>
			<g>
				<path d="M189.5,223.9c-14.9,8.8-32.6,9.9-49.5,9.9c-19.4,0.1-38.8,0-58.1-1.2c-11.1-0.7-22.2-1.8-33.2-3.6
					c-1.1-0.2-2.2,0.3-2.5,1.4c-0.3,1,0.3,2.3,1.4,2.5c20,3.3,40.2,4.4,60.4,4.8c9.8,0.2,19.6,0.2,29.5,0.2c8.8,0,17.6-0.2,26.3-1.4
					c9.7-1.3,19.3-4,27.7-9.1C193.7,226.1,191.7,222.6,189.5,223.9L189.5,223.9z"/>
			</g>
		</g>
		<g>
			<g>
				<path d="M80.8,94.2c5.5,18.6,8.4,38.2,9.4,57.6c0.2,5,0.3,10,0.2,15c-0.1,2.6,3.9,2.6,4,0c0.3-9.3-0.2-18.6-1.1-27.8
					c-1-10.1-2.5-20.3-4.7-30.2c-1.1-5.2-2.4-10.4-3.9-15.5C84,90.7,80.1,91.8,80.8,94.2L80.8,94.2z"/>
			</g>
		</g>
		<g>
			<g>
				<path d="M42.2,107.7c4.1,9.7,6,20.2,7.3,30.6c1.7,13.6,2.6,27.4,2.6,41.1c0,3.8-0.1,7.5-0.2,11.3c-0.1,2-0.1,3.9-0.2,5.9
					c0,1-0.1,2-0.2,2.9c0,0.3,0,0.7-0.1,1c0,0.3,0,0.7-0.1,1c-0.1,0.7,0,0.7,0.4-0.2c0.5-0.1,1-0.1,1.5-0.2c-0.1,0-0.1,0-0.2,0
					c0.3,0.2,0.6,0.3,0.9,0.5l-0.1-0.1c0.2,0.3,0.3,0.6,0.5,0.9c0,0.1,0,0.1,0,0.2c-0.2,0.5-0.4,0.9-0.6,1.4l0.1-0.1
					c-0.6,0.2-1.3,0.3-1.9,0.5c0.1,0,0.1,0,0.2,0c1.1,0.2,2.1-0.3,2.5-1.4c0.3-0.9-0.3-2.3-1.4-2.5c-0.1,0-0.1,0-0.2,0
					c-0.7-0.1-1.5-0.1-1.9,0.5c-1,1.3-0.9,3.4,0.9,3.9s3.1-1.1,3.2-2.7c0.4-3.8,0.5-7.7,0.6-11.5c0.2-7.7,0.2-15.4-0.1-23.1
					c-0.3-7.7-0.8-15.4-1.7-23c-0.8-7.1-1.5-14.3-3.1-21.3c-1.3-6-3.1-12-5.5-17.7c-0.4-1-1.9-1.2-2.7-0.7
					C41.9,105.5,41.8,106.7,42.2,107.7L42.2,107.7z"/>
			</g>
		</g>
		<g>
			<g>
				<path d="M52.5,154.7c2.3,2.9,5.8,4,9.4,4.4c3.9,0.5,8,0.5,12,0.3c6.9-0.5,15.2-2.7,19-9c1.3-2.2-2.1-4.2-3.5-2
					c-3.1,5.2-10.4,6.8-16,7.1c-3.3,0.2-6.7,0.1-10.1-0.2c-3-0.2-6-0.9-8-3.4c-0.7-0.9-2.1-0.7-2.8,0
					C51.7,152.7,51.9,153.8,52.5,154.7L52.5,154.7z"/>
			</g>
		</g>
		<path fill="#204A9E" d="M39.1,210c0,0,49.2,6.9,89.7-35.9c0,0-22.7-103.6-39-138.1C80,15.1,52.4,6.4,34.6,11.8
			C22.7,15.4,9,23.2,11.6,42C18.8,93.7,39.5,175.3,39.1,210z"/>
		<path fill="#123875" d="M17.5,86.3c0,0,56.8-16.5,70.1-52.8C87.6,33.5,62-1,32,13.4S14,54.8,17.5,86.3z"/>
		<path fill="#DBDBDB" d="M95.4,218.4l14.4,1.6c0,0,4-22.2,15.8-36.8c0,0-21.5,7.8-24.7,16.5C97.8,208.4,95.4,218.4,95.4,218.4z"/>
		<g>
			<g>
				<path d="M100.8,195.3c-3.4,7.2-5.9,14.7-7.3,22.5c-0.2,1.1,0.5,2.7,1.9,2.5c4.7-0.6,9.4,0,13.9,1.6c0.9,0.3,2.3-0.4,2.5-1.4
					c2.3-13.6,8.6-26.4,18-36.6c1.7-1.9-1.1-4.7-2.8-2.8c-9.8,10.6-16.6,24-19,38.3c0.8-0.5,1.6-0.9,2.5-1.4
					c-4.8-1.7-9.9-2.3-14.9-1.7c0.6,0.8,1.3,1.7,1.9,2.5c1.3-7.5,3.6-14.7,6.9-21.6C105.3,195,101.9,193,100.8,195.3L100.8,195.3z"
					/>
			</g>
		</g>
		<g>
			<g>
				<path d="M45.3,242c19.6,4.9,39.9,7.4,60.1,8.1c10.1,0.4,20.2,0.3,30.3-0.3c8.9-0.5,18-1.1,26.8-3c7.8-1.7,15.5-4.6,21.6-9.9
					c6.1-5.4,9.5-13,9.8-21.1c0.2-8.1-2.6-16.3-7.5-22.7c-5.2-6.8-12.9-11.4-21-13.9c-18.6-5.7-38-0.1-54.8,8.5
					c-2.2,1.1-4.4,2.3-6.5,3.5c-2.2,1.3-0.2,4.7,2,3.5c15.6-8.9,33.7-16.3,52-13.1c7.9,1.4,15.6,4.6,21.6,10.1
					c5.5,5.1,9.2,12.3,10.1,19.9c0.8,7.4-1.1,14.8-6.2,20.4c-5.1,5.5-12.2,8.6-19.3,10.4c-8,2-16.2,2.7-24.4,3.2
					c-9.7,0.6-19.4,0.9-29.1,0.7c-19.3-0.4-38.6-2.4-57.4-6.5c-2.3-0.5-4.6-1-6.9-1.6C43.8,237.5,42.8,241.3,45.3,242L45.3,242z"/>
			</g>
		</g>
		<path fill="#3369C1" d="M38.4,193l0.7,17c0,0,35.6,6.3,69.6-20.3c0,0,22.1-12.2,20.9-15.7c-2.5-7.2-1.8-14.5-7.7-11.1
			c-5.9,3.3-30.9,25.5-72.6,29.8L38.4,193z"/>
		<g>
			<g>
				<path d="M124,159.1c-20,13.6-42.1,24.9-66,29.6c-6.7,1.3-13.5,2.1-20.3,2.2c-2.6,0.1-2.6,4.1,0,4c25-0.5,49-9.2,70.7-21.3
					c6.1-3.4,12-7.1,17.7-11C128.2,161.1,126.2,157.6,124,159.1L124,159.1z"/>
			</g>
		</g>
		<g>
			<g>
				<path d="M41.1,210c-1.7-23.3-4.8-46.5-8.9-69.6c-3-16.9-6.6-33.6-10.6-50.3c-2.1-8.9-4.6-17.7-6.1-26.8
					c-1.5-9.4-2.9-19-1.5-28.5c0.6-3.8,1.6-7.7,4.2-10.6c3.3-3.7,7.9-6.5,12.3-8.7c4.9-2.4,10.1-4.1,15.4-5
					c4.6-0.8,9.4,0.2,13.8,1.7c4.6,1.5,9.1,3.8,12.9,6.7c3.5,2.7,6.4,6.1,9.1,9.5c2.8,3.6,5.5,7.4,7.6,11.5c1.4,2.8,2.5,5.4,3.6,8.2
					c2.6,6.8,4.9,13.7,7,20.6c4.8,15.9,8.8,32,12.6,48.1c3.2,13.6,6.2,27.3,9.5,40.9c1,3.9,1.9,7.8,3.2,11.7
					c0.2,0.6,0.5,1.3,0.7,1.9c0.2,0.4,0.4,0.8,0.5,1.2c0.5,1.3-0.5,1.9-1.4,2.8c-3.8,3.5-7.7,6.9-11.9,10
					c-16.8,12.5-37,22.3-58.1,23.4c-4.9,0.3-9.8,0-14.7-0.8c-1.1-0.2-2.2,0.3-2.5,1.4c-0.3,1,0.3,2.3,1.4,2.5
					c21.6,3.6,43.6-3.2,62.2-14c9.4-5.4,18.2-12,26.1-19.4c1-0.9,2-1.8,2.6-3c0.7-1.4,0.5-2.9-0.1-4.3c-0.2-0.6-0.5-1.1-0.8-1.7
					c-0.1-0.2,0.2,0.6,0,0.1c-0.1-0.1-0.1-0.3-0.2-0.4c-0.5-1.4-1-2.9-1.4-4.4c-3.3-11.9-5.8-24.1-8.6-36.2
					c-3.8-16.4-7.7-32.9-12.2-49.1c-2.1-7.7-4.4-15.4-7-23c-1.7-6.4-4-12.9-7.1-18.9c-2.2-4.3-5.2-8.3-8.2-12.1
					c-2.9-3.6-6-7.1-9.7-9.9c-4.1-3.1-8.7-5.4-13.5-7C56.8,7,51.7,6,46.8,6.6C41.3,7.2,36,9,31,11.2c-5.1,2.2-9.9,5.2-14,8.9
					c-3.1,2.8-5.1,6.6-6.1,10.6c-1.1,4.7-1.5,9.7-1.4,14.5c0.1,5.1,0.8,10.1,1.6,15.1c0.5,3.3,1,6.7,1.7,10
					c0.7,3.6,1.7,7.1,2.6,10.6c3.6,14.6,7,29.2,10,44c4.4,22,7.9,44.2,10.2,66.5c0.6,6.2,1.2,12.4,1.7,18.6
					C37.3,212.6,41.3,212.6,41.1,210L41.1,210z"/>
			</g>
		</g>
	</g>
</g>
</svg>
