<?xml version="1.0" encoding="utf-8"?>
<!-- Generator: Adobe Illustrator 25.0.0, SVG Export Plug-In . SVG Version: 6.00 Build 0)  -->
<svg version="1.1" id="Layer_1" xmlns="http://www.w3.org/2000/svg" xmlns:xlink="http://www.w3.org/1999/xlink" x="0px" y="0px"
	 viewBox="0 0 254.4 263.7" enable-background="new 0 0 254.4 263.7" xml:space="preserve">
<g>
	<g>
		<path fill="#995B08" d="M165,86.3c-7,21,8.9,25.5,8.9,25.5l0.2,115.5c4.7,9.2,10.6,0,10.6,0l14.2-111.6
			c12.7-2.6,11.3-10.3,11.3-10.3C192.3,103.6,165.1,86.3,165,86.3z"/>
		<path fill="#56370A" d="M173.8,120.7c15.1-0.9,22.4,17.4,22.4,17.4l2.6-22.4c12.7-2.6,11.3-10.3,11.3-10.3
			c-17.9-1.8-45.1-19.1-45.1-19.1c-7,21,8.9,25.5,8.9,25.5L173.8,120.7z"/>
		<g>
			<path fill="#204A9E" d="M219.5,11.5C172.6-8,147.9,70.6,147.9,70.6c40.5,42.8,87.2,34.5,87.2,34.5
				C234.5,56.5,259.2,28,219.5,11.5z"/>
			<path fill="#123875" d="M222.1,12c-30-14.4-55.6,20.1-55.6,20.1c13.3,36.3,70.1,52.8,70.1,52.8C240.1,53.3,252.1,26.4,222.1,12z"
				/>
			<g>
				<g>
					<path d="M233.1,105.3c0,2.6,4,2.6,3.9,0c0-2.5,0.1-4.9,0.3-7.4c0.7-9.9,2.6-19.7,4.3-29.5c1.6-9.1,3.3-18.5,2.8-27.8
						c-0.3-4.6-0.7-9.3-2.5-13.6c-1.7-4.3-4.8-7.2-8.4-9.9c-4.4-3.3-9.4-5.8-14.6-7.7c-4.7-1.7-9.9-3.1-14.9-3
						c-4.9,0.2-9.8,1.4-14.3,3.3c-4.6,1.9-8.9,4.4-12.6,7.6c-3.5,2.9-6.4,6.6-9.1,10.2c-2.8,3.7-5.4,7.6-7.5,11.7
						c-2.8,5.8-5.7,11.6-8.6,17.4c-1.4,2.9-2.9,5.8-4.3,8.7c-1.4,2.7-2.7,5.4-0.5,8.1c1.7,2,3.9,3.7,5.9,5.4
						c2.1,1.8,4.2,3.5,6.4,5.2c4.4,3.4,8.9,6.6,13.7,9.4c18.5,11,40.1,17.4,61.6,13.8c1.1-0.2,1.7-1.5,1.4-2.5
						c-0.3-1.1-1.4-1.6-2.5-1.4c-2.4,0.4-4.8,0.7-7.2,0.8c-20.5,1.2-40.5-6.7-57.3-18c-4.3-2.8-8.4-6-12.3-9.3c-2-1.7-4-3.5-5.9-5.3
						c-1-0.9-1.2-1.4-0.6-2.7c0.6-1.3,1.3-2.5,1.9-3.8c2.8-5.6,5.5-11.1,8.3-16.7c2.3-4.5,4.4-9.1,7.2-13.4
						c4.8-7.2,10.3-14.3,17.9-18.7c4.1-2.3,8.5-4.1,13.1-5.1c4.5-1,8.8-0.7,13.3,0.4c4.9,1.2,9.7,3.1,14.2,5.6
						c3.8,2.1,8,4.8,10.5,8.4c2.1,3.2,3,7,3.4,10.7c0.5,4.5,0.6,8.9,0.2,13.4C238.7,68.3,233,86.5,233.1,105.3L233.1,105.3z"/>
				</g>
			</g>
			<g>
				<g>
					<path d="M167,86.8c0.9-2.4-3-3.4-3.9-0.9c-1.7,4.7-2.3,10-1.3,15c0.9,4.2,3.2,8,6.8,10.4c4.8,3.2,11.1,3.4,16.6,4.1
						c3.1,0.4,6.1,0.8,9.1,1.2c3,0.3,5.9,0.5,8.8-0.1c4.8-1,9.4-5,9.2-10.2c-0.1-2.6-4.1-2.6-4,0c0.2,5.3-6.2,6.8-10.3,6.6
						c-5.3-0.2-10.7-1.3-15.9-2c-4.3-0.6-9.3-0.9-12.6-4C164,101.9,164.7,93.1,167,86.8L167,86.8z"/>
				</g>
			</g>
			<g>
				<g>
					<path d="M200.9,115.7c0.2-1.1-1-2-2.1-1.9c-1.2,0-1.9,0.9-2,2c-0.3,2.8-0.7,5.6-1,8.4c-2.6,22.4-5.3,44.9-7.9,67.3
						c-0.7,5.6-1.3,11.2-2,16.8c-0.3,2.8-0.7,5.6-1,8.4c-0.3,2.4-0.5,4.9-1.1,7.2c-0.4,1.8-1.3,3.7-3,4.6c-1.1,0.5-2.7,0.8-3.7,0
						c-0.4-0.3-0.6-0.8-1.1-1.2c-0.2-0.1,0.4,0.4,0.2,0.2c-0.3-0.3,0.4,0.4,0,0c-0.1-0.1-0.1-0.2-0.2-0.3c-0.1-0.2,0.2,0.5,0.1,0.1
						c0-0.3-0.1-0.5-0.2-0.7c-0.2-0.7-0.3-1.3-0.4-1.9c0-0.3-0.1-0.5-0.1-0.7s-0.1-0.7,0-0.2c0-0.4-0.1-0.8-0.1-1.2
						c-0.2-2.1-0.3-4.2-0.4-6.3c-0.3-5.8-0.3-11.7-0.2-17.5c0.1-14.8,0.7-29.7,1.1-44.5c0.2-7.4,0.4-14.7,0.5-22.1
						c0-3.2,0.1-6.5,0.1-9.7c0-2.1,0-4.3,0-6.4c0-1.6-0.1-3.4-0.6-4.9c-0.9-2.4-4.7-1.3-3.9,1.1c0.9,2.6,0.5,5.7,0.5,8.4
						c0,2.2,0,4.4,0,6.6c-0.1,4.9-0.2,9.9-0.3,14.8c-0.4,18.9-1.2,37.9-1.4,56.8c0,7-0.1,14.1,0.4,21.1c0.1,2.3,0.3,4.6,0.8,6.8
						c0.3,1.5,0.8,3.1,2.1,4c-0.2-0.2-0.5-0.5-0.7-0.7c2.1,3.1,6.1,3.5,9.3,2c3.6-1.8,5.1-5.8,5.7-9.5c0.7-4.4,1.1-8.8,1.6-13.1
						c0.6-4.5,1.1-8.9,1.6-13.4c1-8.9,2.1-17.8,3.1-26.7C196.7,151.5,198.8,133.6,200.9,115.7L200.9,115.7z"/>
				</g>
			</g>
		</g>
	</g>
	<rect x="-0.2" y="0.1" fill-opacity="0" width="254.4" height="263.7"/>
</g>
</svg>
