<?xml version="1.0" encoding="utf-8"?>
<!-- Generator: Adobe Illustrator 25.0.0, SVG Export Plug-In . SVG Version: 6.00 Build 0)  -->
<svg version="1.1" id="Layer_1" xmlns="http://www.w3.org/2000/svg" xmlns:xlink="http://www.w3.org/1999/xlink" x="0px" y="0px"
	 viewBox="0 0 246.8 360.6" enable-background="new 0 0 246.8 360.6" xml:space="preserve">
<g id="tweaks_xA0_Image_1_" display="none">
</g>
<g id="Layer_7" display="none">
</g>
<g id="Layer_3">
</g>
<g id="Layer_5">
</g>
<g id="Layer_4">
</g>
<g id="Layer_9">
</g>
<g>
	<g>
		<g>
			<path fill="#C65D17" d="M14,195.4c0,0,0.1,50.6,68.1,40.8c0,0,35.7,22.2,47.4-10.1c0,0,6.5,18.8,43.2-4.1s83.2-91.8,53-167.6
				c0,0-10.2-35.9-37-45.5c0,0,17.7,41.4-6,74s-24.1,17.5-24.1,17.5S134,77.1,135.7,41.6c0,0-17.8,28-7.4,67.8l-4.1,2.3
				c0,0-26.5,36.1-11.6,91c0,0-8.5-4.8-17.9-1.9c0,0-9.3-21.1-41.4-20C21.1,181.7,22,183.6,14,195.4z"/>
			<path fill="#C44418" d="M131.3,228.5c-2.5-1.7,1.1-30.7,19.8-67.3S216,68.9,188.7,8.9c0,0,35.3,9.9,45.9,82.3
				C245.1,163.6,165.4,251.4,131.3,228.5z"/>
			<path fill="#C44418" d="M135.5,44.7c0,0-1.3,34.4,26.4,59.1c0,0-19.2,12.9-33.7,5.5C128.2,109.3,117.1,65.5,135.5,44.7z"/>
			<path fill="#B54900" d="M53.2,180.7c0,0,17.3,15.8,18.9,56.5c0,0-47,4.1-58-35.2C14.2,202,11.6,177.2,53.2,180.7z"/>
		</g>
		<g>
			<g>
				<g>
					<g>
						<path d="M53.7,178.8c-8.5-1.5-17.5-1.2-25.7,1.6c-6.9,2.3-13.3,6.9-15.3,14.2c-2.1,7.5,0.7,15.6,4.9,21.8
							c4.1,6.1,9.6,11.1,15.8,14.9c6.3,3.9,13.3,6.5,20.5,7.9s14.9,1.7,22,0c7.4-1.8,13.7-6.2,17-13.2c3.4-7,4.7-15.5,3.1-23.2
							c-3.5-16.7-22.3-22.5-37.2-24c-2.2-0.2-4.4-0.3-6.6-0.3c-2.6,0-2.6,4,0,4c7.9,0.1,15.9,1.4,23.4,4.2c6.1,2.3,12,6.1,15,12.2
							c3,6.2,2.6,13.6,0.8,20.1c-1,3.4-2.3,6.8-4.6,9.5c-2.1,2.4-4.7,4.3-7.7,5.5c-6.1,2.5-13,2.7-19.4,2c-6.5-0.7-13-2.5-19-5.3
							c-6-2.9-11.4-6.7-15.8-11.6c-4.4-4.8-8.2-11-8.7-17.7c-1.3-16.1,18.3-20.1,30.7-19.5c2,0.1,4,0.3,6,0.7
							c1.1,0.2,2.2-0.3,2.5-1.4C55.4,180.3,54.8,178.9,53.7,178.8L53.7,178.8z"/>
					</g>
				</g>
				<g>
					<g>
						<path d="M114.4,202.1c-4.3-14.8-5.5-30.4-3.6-45.7c0.9-7.6,2.7-15.1,5.1-22.4c1.2-3.6,2.6-7.2,4.2-10.7
							c0.8-1.7,1.6-3.4,2.5-5.1s1.7-3.6,2.8-5.1c1-1.3,3.2-0.4,4.6-0.2c1.9,0.3,3.8,0.5,5.7,0.5c3.9,0.1,7.8-0.4,11.5-1.3
							c7.6-1.8,14.6-5.5,20.8-10.3c6-4.7,11-10.4,15.4-16.6c4.5-6.5,8.6-13.6,11.1-21.2c2.8-8.3,2.8-17.2,1.9-25.8
							c-0.9-8.7-2.5-17.4-4.7-25.8c-0.5-2.1-1.1-4.1-1.8-6.2c-1,0.8-2,1.5-2.9,2.3c17.7,8.7,29.1,25.8,35.8,43.9
							c3.8,10.2,6.6,20.9,8.6,31.6c2,10.6,2.6,21.4,1.5,32.1c-2.1,20.8-9.9,40.7-20.2,58.8c-2.6,4.6-5.4,9.2-8.5,13.5
							c-2.8,4-6.1,7.5-9.3,11.2c-5.1,5.7-10.4,11.5-16.5,16.2c-6.3,4.9-13.4,8.6-20.9,11.2c-4.5,1.6-9.2,3.2-13.9,3.8
							c-2.9,0.4-5.9,0.4-8.3-1.1c-0.3-0.2-0.7-0.6-1.1-1c-0.4-0.4-1.4-1.3-1.4-1.7c0,0.4,0,0.7,0,1.1c0-0.1,0-0.1,0-0.2
							c-0.2,0.3-0.3,0.6-0.5,0.9l0,0c2.2-1.3,0.2-4.8-2-3.5c-1,0.6-1.7,1.7-1.3,3c0.3,1.2,1.4,2,2.1,2.9c0.9,1,2,1.9,3.2,2.5
							c3.4,1.6,7.2,1.4,10.8,0.9c5-0.8,10-2.4,14.7-4.2c4.2-1.6,8.4-3.4,12.3-5.7c7-4,13.1-9.1,18.7-14.9
							c6.7-6.9,13.4-14.1,18.7-22.1c12.2-18.2,21.7-39,25.8-60.6c2.1-10.8,2.8-21.9,1.7-32.8c-1.2-11.7-3.9-23.3-7.4-34.6
							c-6.1-19.9-16.4-39.4-34.3-51.1c-2-1.3-4.1-2.5-6.2-3.5c-1.5-0.7-3.5,0.5-2.9,2.3c2.5,8.4,4.4,16.9,5.6,25.6
							c1.2,8.5,2,17.5,0.1,26c-1.8,7.9-5.8,15.1-10.2,21.8c-4.1,6.3-9,12.1-14.7,17c-5.8,4.9-12.6,8.5-19.9,10.4
							c-3.7,1-7.5,1.4-11.3,1.3c-1.9,0-3.8-0.2-5.7-0.6c-1.9-0.3-3.9-0.7-5.7,0.1c-1.9,0.8-2.8,2.7-3.7,4.4c-0.9,1.7-1.8,3.3-2.6,5
							c-1.7,3.5-3.2,7.1-4.6,10.7c-2.7,7.2-4.7,14.7-5.9,22.3c-2.5,15.3-2,31.1,1.6,46.2c0.4,1.8,0.9,3.7,1.5,5.5
							C111.3,205.6,115.2,204.6,114.4,202.1L114.4,202.1z"/>
					</g>
				</g>
				<g>
					<g>
						<path d="M130.1,108.8c-5.1-17.7-4.7-36.9,1.2-54.4c1.7-5,3.7-9.8,6.2-14.4c-1.2-0.3-2.5-0.7-3.7-1
							c-1.8,18.5,3.5,37.6,14.5,52.7c3.1,4.2,6.6,8.2,10.5,11.7c1.9,1.7,4.8-1.1,2.8-2.8c-13.2-11.8-21.8-28.6-23.8-46.3
							c-0.6-5.1-0.6-10.2-0.1-15.2c0.2-2-2.8-2.7-3.7-1C124.8,55,121,74.8,123.1,94c0.6,5.4,1.6,10.8,3.1,16
							C127,112.3,130.9,111.3,130.1,108.8L130.1,108.8z"/>
					</g>
				</g>
				<g>
					<g>
						<path d="M133.3,226.4c0.4-17.7,5.5-34.8,12.5-50.9c7.2-16.3,16.3-31.7,25.3-47.1c9-15.5,17.8-31.2,24.1-48
							c2.8-7.5,4-15.6,4.3-23.5c0.7-15-2.1-30-7.1-44.1c-0.8-2.2-1.6-4.4-2.5-6.6c-0.4-1-1.3-1.7-2.5-1.4c-0.9,0.3-1.8,1.5-1.4,2.5
							c6,14.5,9.7,30.1,9.6,45.8c-0.1,8.4-1,16.8-3.8,24.8c-2.5,7.2-5.8,14.2-9.2,21c-4,8-8.4,15.9-12.9,23.7
							c-8.9,15.4-18.1,30.6-25.6,46.7c-7.4,16-13.1,32.9-14.6,50.6c-0.2,2.2-0.3,4.3-0.3,6.5C129.2,229,133.2,229,133.3,226.4
							L133.3,226.4z"/>
					</g>
				</g>
			</g>
			<g>
				<g>
					<path d="M81.1,237.9c7,4.3,14.7,7.8,23,8.2c7,0.4,14-1.8,19.3-6.4c5.4-4.7,7.7-11.6,6.6-18.6c-1.1-7-5.3-13.1-11-17.1
						c-7-4.9-16-6.5-24.4-6.1c-2.6,0.1-2.6,4.1,0,4c6.7-0.3,13.6,0.6,19.5,3.8c5.5,2.9,9.7,7.7,11.5,13.7c1.7,5.7,0.6,11.8-3.6,16.2
						c-4,4.2-9.9,6.5-15.7,6.6c-8.4,0.2-16.2-3.4-23.2-7.7C80.9,233.1,78.9,236.5,81.1,237.9L81.1,237.9z"/>
				</g>
			</g>
		</g>
	</g>
	<rect x="-0.2" y="0.1" fill-opacity="0" width="247" height="360.5"/>
</g>
</svg>
