<?xml version="1.0" encoding="utf-8"?>
<!-- Generator: Adobe Illustrator 25.0.0, SVG Export Plug-In . SVG Version: 6.00 Build 0)  -->
<svg version="1.1" id="Layer_1" xmlns="http://www.w3.org/2000/svg" xmlns:xlink="http://www.w3.org/1999/xlink" x="0px" y="0px"
	 viewBox="0 0 246.8 360.6" enable-background="new 0 0 246.8 360.6" xml:space="preserve">
<g id="tweaks_xA0_Image_1_" display="none">
</g>
<g id="Layer_7" display="none">
</g>
<g id="Layer_3">
</g>
<g id="Layer_5">
</g>
<g id="Layer_4">
</g>
<g id="Layer_9">
</g>
<g>
	<g id="Layer_2_1_">
		<g>
			<path fill="#FFFFFF" d="M24.3,181.6c0,0,17.4-8.7,26.8-5.8s54.5,11.6,54.5,11.6s11.5,42.2-21.4,61.7c0,0-61.4-10-69.6-43
				C14.6,206.2,10.3,189.9,24.3,181.6z"/>
			<path fill="#E2B059" d="M108.4,204.5c0,0,2.3,20.3-13.3,34.8c0,0,84.2,13.4,101-73.2c0,0,16.1-5,7.9-28.4c0,0-0.3-16.3,14.6-34.6
				c14.9-18.3-9.3-26.7-17.5-8.1l-4.2,0.8c0,0,11.9-23.7-0.8-27.7s-19.8,17.5-23.5,29.1c0,0,4.3-25.4-4.6-32.2
				c-8.9-6.8-22.8,14.5-17.1,38s9.4,27.6,9.4,27.6s-6.2,5.4-13-8.8c-6.7-14.2-24.2,7.6-12.2,21.4s29.1,16.8,29.1,16.8
				S159.3,206.5,108.4,204.5z"/>
			<path fill="#DBDBDB" d="M20.1,184.9c54.4,65.3,86.9,23.7,86.9,23.7C105.6,238,86.3,248,86.3,248s-4.1,4.5-29.3-6.1
				C31.9,231.3,2,222.1,20.1,184.9z"/>
			<path fill="#C48D3D" d="M117.5,204.4c0,0,1.5,20.7-5.8,32.9L96.4,239c0,0,10.2-12.6,13.3-34.3L117.5,204.4z"/>
			<g>
				<g>
					<path d="M165.1,158.2c-8-1.9-16.1-4.9-22.7-9.8c-5.9-4.3-11-11.9-9.5-19.6c0.7-3.7,2.9-7.1,6.8-8c3.6-0.8,6,1.7,7.8,4.4
						c1.9,2.8,3.8,6,7,7.5c4.1,2,8.7,1,12.9-0.1c4.5-1.2,8.9-2,13.5-1.3c4.7,0.7,9,2.6,12.7,5.5c0.9,0.7,2.2,0.1,2.7-0.7
						c0.6-1,0.1-2.1-0.7-2.7c-7.3-5.5-16.9-7.5-25.8-5.5c-4.1,0.9-9.2,3.2-13.3,1.4c-3.3-1.4-4.9-5.3-7-7.9
						c-2.6-3.4-6.3-5.2-10.6-4.4c-4.5,0.8-7.7,4.3-9.3,8.4c-3.1,8.4,1.1,17.7,7.2,23.6c3.6,3.4,7.9,5.9,12.4,8
						c4.8,2.2,9.7,3.9,14.8,5.1C166.6,162.7,167.6,158.8,165.1,158.2L165.1,158.2z"/>
				</g>
			</g>
			<g>
				<g>
					<path d="M174.6,111.4c0.7-8.8,2.1-17.6,4.9-26c0.9-2.7,1.9-5.2,3.2-7.7c0.5-1,1.1-2,1.7-2.9c0.2-0.4,0.5-0.8,0.8-1.1
						c0.1-0.2,0.2-0.3,0.3-0.5c0.3-0.5-0.1,0.1,0.2-0.3c0.5-0.5,0.9-1.1,1.4-1.6c0.2-0.2,0.4-0.4,0.6-0.6c0.5-0.5-0.2,0.1,0.2-0.2
						c2.6-1.6,6.2-1.8,8.7,0c3.2,2.2,3.9,6.8,3.4,10.4c-0.8,5.2-3.5,9.8-5.2,14.7c-4.1,11.6-4.6,24-5.1,36.2c-0.1,2.6,3.9,2.6,4,0
						c0.5-11.5,1-23.2,4.7-34.2c1.8-5.3,4.7-10.3,5.5-15.9c0.7-4.5-0.1-9.3-3.2-12.8c-4.3-4.9-12.5-4.7-16.8-0.1
						c-3.3,3.5-5.4,8-7.2,12.4c-3.7,9.6-5.3,19.9-6.1,30.1C170.4,113.9,174.4,113.9,174.6,111.4L174.6,111.4z"/>
				</g>
			</g>
			<g>
				<g>
					<path d="M195.5,111.8c1.6-4.7,3.6-9.2,6-13.5c2.2-3.9,4.5-8.1,8.2-10.8c2.8-2,6.7-2.8,9,0.4c1.9,2.7,1.8,6.5,0.7,9.4
						c-1.6,4.2-4.8,7.6-7.4,11.2c-2.8,3.9-4.8,8.2-6.3,12.6c-1.6,4.5-2.6,9.1-3.4,13.8c-0.2,1.1-0.6,2.4-0.2,3.4
						c0.3,0.9,0.9,1.6,1.3,2.5c0.7,1.5,1.1,3.2,1.3,4.8c1,7.6-2.5,15.8-9.3,19.6c-2.2,1.3-0.2,4.7,2,3.5
						c10.8-6.1,14.8-21.6,8.1-32.1c0.1,0.5,0.1,1,0.2,1.5c1.1-7.1,2.6-14.3,5.7-20.8c1.5-3.3,3.5-6.2,5.7-9.1
						c2.1-2.8,4.3-5.6,5.7-8.8c2.1-5,1.9-12-2.6-15.6c-5.8-4.7-12.9-0.5-16.9,4.4c-2.6,3.2-4.7,6.9-6.6,10.6c-2,3.9-3.7,8-5.2,12.1
						C190.8,113.2,194.7,114.2,195.5,111.8L195.5,111.8z"/>
				</g>
			</g>
			<g>
				<g>
					<path d="M194.1,166c-2.1,16.1-8.9,31.7-19.3,44.1c-5.2,6.2-11.3,11.6-18.2,15.8c-7.8,4.8-16.6,7.8-25.6,9.5
						c-11.4,2.1-23.1,2.1-34.6,1.7c-2.6-0.1-2.6,3.9,0,4c20.4,0.7,41.6-0.2,59.8-10.4c14.8-8.3,26.5-21.7,33.7-37
						c4.2-8.8,6.9-18.1,8.1-27.7c0.1-1.1-1-2-2-2C194.9,164,194.3,164.9,194.1,166L194.1,166z"/>
				</g>
			</g>
			<g>
				<g>
					<path d="M162.3,161c-2,8.9-5.6,17.5-11,24.9c-2.5,3.5-5.6,6.7-9.3,9.1c-4.3,2.8-9.3,4.7-14.3,5.9c-5.9,1.4-12,1.9-18.1,2
						c-2.6,0.1-2.6,4.1,0,4c11.3-0.2,22.9-1.7,32.9-7.4c8.4-4.8,14.3-13.2,18.3-21.9c2.3-4.9,4.1-10.1,5.3-15.4
						C166.7,159.5,162.9,158.4,162.3,161L162.3,161z"/>
				</g>
			</g>
			<g>
				<g>
					<path d="M162,129.6c-3.9-8.5-7.8-17.2-9.1-26.5c-0.7-4.6-0.7-9.4-0.6-14.1c0.2-4.6,0.8-9.2,2.5-13.5c1.3-3.4,3.7-7.5,7.1-9.2
						c4.1-2,7.3,2.1,8.7,5.5c0.9,2.1,1.6,4.2,1.5,6.5c0,2.3-0.7,4.5-1.1,6.7c-0.8,4.4-1.3,8.9-1.4,13.4c-0.3,10.2,1.1,20.5,3.5,30.4
						c0.6,2.5,4.5,1.4,3.9-1.1c-2.3-9.5-3.6-19.3-3.3-29.1c0.1-4.8,0.6-9.6,1.6-14.3c0.5-2.4,1-5,0.8-7.5c-0.2-2.6-1.1-5-2.1-7.3
						c-1.9-4.2-5.7-8.2-10.6-7.8c-4.5,0.4-7.9,4.1-10.1,7.8c-5.3,8.7-5.5,19.6-4.8,29.4c0.8,11.6,5.3,22.2,10.1,32.6
						c0.4,1,1.9,1.2,2.7,0.7C162.3,131.7,162.5,130.6,162,129.6L162,129.6z"/>
				</g>
			</g>
			<g>
				<g>
					<path d="M17.6,192.3c2.7-6.3,8.2-9.8,14.4-12c3.9-1.4,7.9-2.7,12-3c4.7-0.3,8.9,1.1,13.3,2.6c8.9,3,18.1,4.9,27.4,6.3
						c4.7,0.7,9.5,1.3,14.2,1.9c1.1,0.1,2.2,0.3,3.3,0.4c0.7,0.1,1.8,0.1,2.3,0.7c0.5,0.5,0.6,1.4,0.7,2.1c0.2,1.2,0.3,2.4,0.4,3.5
						c1.5,17-1.8,35.5-14.8,47.6c-2.8,2.6-6.3,5.1-10.3,4.7c-2.3-0.3-4.5-1.2-6.7-1.9c-2.4-0.8-4.7-1.5-7.1-2.3
						c-8.2-2.6-16.5-5.1-24.3-8.8c-7.3-3.5-14.2-8-19.2-14.4c-4.5-5.9-7.5-13.2-7.2-20.7c0.1-1.8,0.4-3.6,1-5.4
						c0.7-2.5-3.1-3.5-3.9-1.1c-2.4,8.1-0.7,16.7,3.3,24c4.2,7.7,10.8,13.7,18.3,18.1c7.9,4.6,16.6,7.6,25.3,10.4
						c4.9,1.6,9.8,3.2,14.8,4.8c2.3,0.7,4.7,1.5,7.2,1.4c2.2-0.1,4.4-0.8,6.3-1.9c3.8-2.1,7.1-5.5,9.8-8.9c2.7-3.4,4.9-7.1,6.7-11.1
						c3.9-9,5.4-18.8,5.2-28.5c-0.1-2.5-0.2-5.1-0.5-7.6c-0.2-2.1-0.3-4.5-1.6-6.2c-1.5-2-3.8-2.2-6.1-2.5c-2.5-0.3-5-0.6-7.5-0.9
						c-10.1-1.3-20.2-2.9-30-5.6c-4.7-1.3-9.3-3.4-14.1-4.2c-5.1-0.9-10.3-0.1-15.2,1.5c-7,2-14,4.7-18.4,10.7
						c-1.2,1.6-2.1,3.4-2.9,5.2c-0.4,1,0.5,2.2,1.4,2.5C16.3,194,17.2,193.3,17.6,192.3L17.6,192.3z"/>
				</g>
			</g>
		</g>
	</g>
	<rect x="-0.2" y="0.1" fill-opacity="0" width="247" height="360.5"/>
</g>
</svg>
