<?xml version="1.0" encoding="utf-8"?>
<!-- Generator: Adobe Illustrator 25.0.0, SVG Export Plug-In . SVG Version: 6.00 Build 0)  -->
<svg version="1.1" id="Layer_1" xmlns="http://www.w3.org/2000/svg" xmlns:xlink="http://www.w3.org/1999/xlink" x="0px" y="0px"
	 viewBox="0 0 246.8 360.6" enable-background="new 0 0 246.8 360.6" xml:space="preserve">
<g id="tweaks_xA0_Image_1_" display="none">
</g>
<g id="Layer_7" display="none">
</g>
<g id="Layer_3">
</g>
<g id="Layer_5">
</g>
<g id="Layer_4">
</g>
<g>
	<g>
		<g>
			<path fill="#FFFFFF" d="M232.3,190.7c-0.4-5.5-6-9-10.9-11.4c-3.4-1.6-6.9-3.2-10.6-3c-3,0.2-5.8,1.6-8.5,3
				c-12.4,6.6-24.2,14.1-35.4,22.4c-0.8,0.6-1.6,1.2-2.1,2c-0.7,1-0.9,2.2-1.1,3.4c-1.4,8.9-1.2,18.2,1.6,26.7
				c2.9,8.5,8.5,16.3,16.4,20.7c1.2,0.6,2.3,1.1,3.6,1.3c2.3,0.3,4.6-0.8,6.6-1.9c12.3-6.8,23-16.7,30.9-28.4
				c6.9-10.2,11.7-22.7,9.2-34.8"/>
		</g>
		<path fill="#E2B059" d="M160.6,223.9c-58.2,44.8-37.7,82.3-37.7,82.3c6.6,19.4,28.8,44.8,28.8,44.8c12.8,7.1,35.4-7.1,35.4-7.1
			c6.1-2.1,11.8-12.8,8.4-19.6c-2.4-4.7,1.6-11.5-0.1-15c-1.4-2.7,3.8-18.4-9.7-24.5c-5.2-2.4-11-4.4-11-4.4
			c-8.6-4.5-22.1,6.3-22.1,6.3c-1.4-26.2,20.3-38,20.3-38C166.1,246.1,160.5,223.9,160.6,223.9z"/>
		<path fill="#DBDBDB" d="M185.2,255.8c-18.2-5.5-22.3-37.6-22.3-37.6c13.4,26.3,69.3-27.5,69.3-27.5
			C235,238.9,185.2,255.8,185.2,255.8z"/>
		<path fill="#C48D3D" d="M160.6,223.9c1.5,14.5,12.4,24.8,12.4,24.8l-11.3,7c-6.7-4.5-6-27.4-6-27.4L160.6,223.9z"/>
		<path fill="#C48D3D" d="M177,281.8c24.4,6,16,18.5,18,28.9c3.4,17.2-1.6,29.1-1.6,29.1c-4.1,9.3-36,12.3-36,12.3
			c9.1-4.7,10.8-16.4,10.8-16.4c1.6-5.2,1.4-6.2,1.4-6.2l1.8-6.9c7.4-9.9-0.5-23.9-0.5-23.9c4.1-14.1-6.6-17-6.6-17
			C168,277.5,176.9,281.7,177,281.8z"/>
		<g>
			<g>
				<path d="M162.5,224.9c1.9-1.7-1-4.6-3-2.9c-10.5,9.4-21,19-29.2,30.6c-7,10-11.9,21.7-12.7,34c-0.4,6,0.4,12.2,2.4,17.9
					c2,6.1,5.2,11.7,8.6,17.1c3.6,5.9,7.3,11.8,11,17.7c1.7,2.8,3.3,5.7,5.2,8.3c1.7,2.5,3.8,4.4,6.6,5.5c2.8,1,5.9,1,8.8,0.8
					c3-0.2,6-0.5,8.9-0.9c6.2-0.8,12.3-2.2,17.6-5.5c2.2-1.4,0.2-4.9-2-3.5c-5.5,3.4-12.1,4.6-18.5,5.3c-5.6,0.7-12.7,2.2-16.9-2.5
					c-2-2.3-3.5-5.2-5.1-7.8c-1.7-2.8-3.5-5.6-5.2-8.4c-3.3-5.4-6.8-10.7-9.9-16.2c-3-5.1-5.5-10.5-6.7-16.4
					c-1.1-5.5-1.1-11.2-0.1-16.7C126.6,257.4,145.2,240.4,162.5,224.9L162.5,224.9z"/>
			</g>
		</g>
		<g>
			<g>
				<path d="M174.3,250.1c0.9-0.7,0.7-2.1,0-2.9c-0.8-0.8-2-0.7-2.8,0c-5.9,4.6-10.9,10.4-14.8,16.8c-3.8,6.3-6.7,13.5-7.1,20.9
					c-0.1,2.6,3.9,2.6,4,0c0.4-6.9,3.2-13.4,6.8-19.2C164.1,259.8,168.8,254.4,174.3,250.1L174.3,250.1z"/>
			</g>
		</g>
		<g>
			<g>
				<path d="M233.9,190.2c-0.5-2.5-4.3-1.5-3.9,1c0.4,1.7,0.6,3.5,0.6,5.2c0.4,14.3-8,27.7-17.2,38c-4.6,5.1-9.8,9.7-15.5,13.6
					c-2.9,1.9-5.8,3.9-9,5.3c-1.7,0.8-3.3,1-5,0.2c-1.5-0.7-2.9-1.6-4.2-2.6c-11.5-8.4-15.4-23.3-14.6-36.9c0.1-2,0.3-4,0.6-5.9
					c0.2-1.7,0.5-3.2,1.9-4.3c2.9-2.4,6.2-4.6,9.3-6.7c6.4-4.5,13.1-8.6,19.9-12.5c3.3-1.9,6.7-4,10.2-5.4c3.6-1.4,6.9-1,10.4,0.4
					c3,1.2,6,2.7,8.6,4.7c2.1,1.6,4,3.7,4.3,6.4c0.1,1.1,0.8,2,2,2c1,0,2.1-0.9,2-2c-0.2-1.7-0.6-3.3-1.5-4.8
					c-1.6-2.9-4.5-5-7.3-6.7c-3.3-1.9-6.9-3.8-10.6-4.6c-4.3-1-8.2,0.2-12,2.1c-3.8,1.9-7.5,4-11.1,6.1c-7.5,4.3-14.7,9-21.7,14
					c-3.3,2.3-7.2,4.4-8.1,8.6c-0.8,4.1-1.1,8.4-1.1,12.5c0.1,15,6.4,31.3,20.4,38.5c1.9,1,3.9,1.6,6,1.3c2.1-0.2,4-1.2,5.8-2.2
					c3.3-1.8,6.5-3.9,9.5-6.1c6.1-4.5,11.7-9.8,16.6-15.7C229,221.7,237,206.2,233.9,190.2L233.9,190.2z"/>
			</g>
		</g>
		<g>
			<g>
				<path d="M170.5,296.3c-1.1,0.2-1.6,1.4-1.4,2.6c0.3,1.1,1.5,1.6,2.5,1.4c0.3-0.1,0.5-0.2,0.8-0.2c0.4-0.1-0.3,0,0,0
					c0.2,0,0.3,0,0.4,0c0.5,0,1.1-0.1,1.6-0.1c1.2-0.1,2.4-0.2,3.6-0.4c2.4-0.3,4.6-1.3,6-3.3c0.7-0.9,0.2-2.1-0.7-2.7
					s-2.1-0.2-2.7,0.7c-0.2,0.3,0.3-0.3,0,0c-0.1,0-0.1,0.1-0.2,0.2c0,0.1-0.1,0.1-0.2,0.2c-0.3,0.3,0.2-0.1,0,0s-0.4,0.2-0.6,0.3
					c-0.1,0-0.2,0.1-0.3,0.1c-0.4,0.2,0.2-0.1,0,0c-0.4,0.1-0.8,0.3-1.3,0.4c-0.2,0-0.5,0.1-0.7,0.1c-0.3,0-0.2,0,0,0
					c-0.1,0-0.3,0-0.4,0C174.8,295.9,172.6,295.9,170.5,296.3L170.5,296.3z"/>
			</g>
		</g>
		<g>
			<g>
				<path d="M181.1,294.1c-0.5,2.5,3.4,3.5,3.8,1c0.9-4.5-0.3-9.3-3.5-12.7c-5.7-5.9-14.8-5.8-21.9-2.9c-3.9,1.6-7.8,4-11,6.7
					c-1.7,1.4-2.9,3.1-3.7,5.1c-0.7,1.9-1.2,3.8-2.3,5.5c-1.4,2.1,2.1,4.1,3.5,2c1.2-1.8,1.8-3.8,2.5-5.7c0.7-1.8,1.9-3.2,3.4-4.4
					c5.2-4.1,12-7.9,18.9-7.1c2.9,0.3,5.9,1.6,7.9,3.8C180.8,287.7,181.7,291.1,181.1,294.1L181.1,294.1z"/>
			</g>
		</g>
		<g>
			<g>
				<path d="M180,280.9c-2.5,0.2-2.6,4.2,0,4c4.4-0.3,8.5,1.7,11.2,5c5,6,3.4,15.7-2.5,20.6c0.4-0.4-0.3,0.1-0.4,0.2
					c-0.2,0.2-0.4,0.3-0.6,0.4c-0.6,0.4-1.1,0.7-1.7,1c-1.4,0.8-3,1.5-4.5,2.2c-2.8,1.2-6,2.5-9,2.5c-2.6,0-2.6,4,0,4
					c4.4-0.1,8.8-2,12.7-3.8c3.1-1.4,6.1-2.9,8.3-5.5c3.1-3.7,4.8-8.5,4.7-13.3C197.9,288.7,189.8,280.2,180,280.9L180,280.9z"/>
			</g>
		</g>
		<g>
			<g>
				<path d="M195,306c-2.2-1.4-4.2,2.1-2.1,3.4c1.2,0.8,1.2,2.7,1.3,4c0.1,2,0,4-0.6,5.9c-0.9,2.8-3.3,5-5.5,6.8
					c-5.5,4.6-12.6,7.8-19.7,8.8c-1.1,0.2-1.7,1.6-1.4,2.5c0.4,1.1,1.4,1.6,2.5,1.4c3.7-0.6,7.3-1.8,10.8-3.3
					c5.8-2.5,11.5-6.2,15.3-11.3c2-2.7,2.7-6,2.7-9.4C198.3,311.5,198,307.9,195,306L195,306z"/>
			</g>
		</g>
		<g>
			<g>
				<path d="M195.9,322.9c-1.7-2-4.5,0.9-2.8,2.8c3,3.4,1.5,8.3-0.6,11.7c-2.1,3.3-5.4,5.9-9.1,7.3c-1,0.4-1.7,1.4-1.4,2.5
					c0.3,1,1.5,1.8,2.5,1.4c4.9-1.8,9.1-5.2,11.8-9.7C199.2,333.9,199.9,327.5,195.9,322.9L195.9,322.9z"/>
			</g>
		</g>
	</g>
	<rect x="-0.2" y="0.1" fill-opacity="0" width="247" height="360.5"/>
</g>
</svg>
