<?xml version="1.0" encoding="utf-8"?>
<!-- Generator: Adobe Illustrator 25.0.0, SVG Export Plug-In . SVG Version: 6.00 Build 0)  -->
<svg version="1.1" id="Layer_1" xmlns="http://www.w3.org/2000/svg" xmlns:xlink="http://www.w3.org/1999/xlink" x="0px" y="0px"
	 viewBox="0 0 246.8 360.6" enable-background="new 0 0 246.8 360.6" xml:space="preserve">
<g id="tweaks_xA0_Image_1_" display="none">
</g>
<g id="Layer_7" display="none">
</g>
<g id="Layer_3">
</g>
<g id="Layer_5">
</g>
<g id="Layer_4">
</g>
<g id="Layer_9">
</g>
<g>
	<g>
		<g>
			<path fill="#6EEDE4" d="M88.4,74.4c6,43.8-17.6,60.2-12.7,97.4c6.9,52.6,35.4,57.1,66.8,55.4s89.4-36.4,89.4-36.4l0.7,11.1
				c-3.1,43.5-138.2,91.9-173,33.9s-13.3-84.1,8.6-130.7s-9.9-62.7-9.9-62.7S83.7,40.6,88.4,74.4z"/>
			<path fill="#0CBFB2" d="M135.5,201.7c-26.4,3.1-53.8-26.3-40.7-71.9c13-45.7,7.4-53.6,7.4-53.6C87.8,34.1,58.3,42.4,58.3,42.4
				s25.4-1.7,30,31.9c6,43.8-17.6,60.2-12.7,97.4c6.9,52.6,35.4,57.1,66.8,55.4c31.4-1.7,89.4-36.4,89.4-36.4
				C224,159.1,175.7,197,135.5,201.7z"/>
			<path fill="#0CBFB2" d="M126.3,252.5c0,0-19.3-1.9-10.4-8.7s20.9-4.3,20.9-4.3C163.4,247,126.3,252.5,126.3,252.5z"/>
			<path fill="#0CBFB2" d="M87.5,238.4c3.8-11.7-23.4-26.3-23.4-25.8C61.7,240.1,87.4,238.4,87.5,238.4z"/>
			<path fill="#0CBFB2" d="M61.5,170.4c0.2-13.8-9.1-13.2-9.1-13.2c-11.8,21.1,1.1,29.1,1.5,29.1C53.9,186.3,61.4,184.4,61.5,170.4z
				"/>
			<path fill="#0CBFB2" d="M74.8,112.1c1.4,4.1-5.1,17.9-9.9,15.6s0-12.3,0-12.3C70.1,105.8,73.5,108.1,74.8,112.1z"/>
		</g>
		<path fill="#02A898" d="M231.9,190.7c-7.2-26.6-50.1-3.4-50.1-3.4c-15.2,38.5-16.1,67.1-16.1,67.1
			C197.6,247.9,239.1,217.3,231.9,190.7z"/>
		<g>
			<g>
				<g>
					<path d="M55,38.7c-2.5-0.8-3.5,3.1-1.1,3.7c2,0.7,3.9,1.7,5.7,2.9c7.5,5,11.5,13.9,13.1,22.5c1.8,10.3,0,20.4-3.7,30
						c-4.4,11.7-11.1,22.3-16.7,33.5c-5.5,11.1-9.6,22.8-11.4,35.1c-3.4,23.5,0.8,48.6,15.2,67.9c13,17.4,33,29.8,54.8,31.5
						c5.3,0.4,10.6,0,15.9-0.6c6-0.7,11.9-1.7,17.8-2.9c11.6-2.4,23-5.7,33.8-10.6c1-0.4,1.2-1.8,0.7-2.7c-0.5-1-1.7-1.1-2.7-0.7
						c-2.4,1.1-4.8,2.1-7.3,3c-11.2,4.2-22.9,7-34.7,8.9c-10.7,1.7-21.5,2.7-32.1,0.3c-20.7-4.6-38.8-19-48.8-37.6
						C42,201.5,41.2,175.6,48,152.6c3.5-11.8,9.4-22.6,15.2-33.4c5.6-10.4,11.4-21.4,13.4-33.2C79.7,68.1,73.8,45.4,55,38.7L55,38.7
						z"/>
				</g>
			</g>
			<g>
				<g>
					<path d="M60.1,39c-2.6-0.5-3.6,3.3-1.1,3.9c2.5,0.5,4.9,1.2,7.1,2.3c9.5,4.7,15.8,14.2,18.9,24.1c3.9,12.3,2.5,25.3-0.2,37.8
						c-3.2,14.5-8,28.6-10.1,43.3c-2,14.2-1.8,28.9,3.1,42.4c4.1,11.4,11.3,21.8,21.5,28.6c5.1,3.3,10.8,5.7,16.7,7
						c15.5,3.6,31.9,0.8,47-3.7c24.2-7.2,47-19.3,68.6-32.2c2.2-1.4,0.2-4.8-2-3.5c-3.2,1.9-6.5,3.8-9.7,5.6
						c-20.4,11.7-42,22.4-65,28.1c-14,3.5-29.1,5-42.8,0.5c-2.9-1-5-1.9-7.7-3.4c-4-2.2-7.6-4.9-10.7-8.2c-8.6-9-13.6-20.9-15.4-33
						c-2.2-14.7,0-29.8,3.6-44.1c3.5-14.2,8.2-28.2,9.3-42.9c0.9-11.7-1-23.4-6.8-33.7C79.2,48.6,70.7,41.1,60.1,39L60.1,39z"/>
				</g>
			</g>
			<g>
				<g>
					<path d="M53.1,158.2c1.3-2.2-2.1-4.2-3.4-2c-3.1,5.4-4.7,11.8-4.3,18.1c0.2,2.9,0.6,5.7,1.6,8.4c0.8,2.4,2.3,4.8,5,5.4
						c2.6,0.6,5.3-0.4,7.1-2.3c1.9-2,2.8-4.7,3.5-7.3c1.3-5,1.8-10.6-0.1-15.5c-0.9-2.4-2.3-4.7-4.4-6.2s-4.8-1.8-6.8,0
						c-2,1.7,0.9,4.5,2.8,2.8c0.4-0.4,1.3,0.2,1.7,0.4c0.8,0.6,1.4,1.4,1.9,2.2c1.1,1.8,1.7,3.8,1.9,5.9c0.4,3.9-0.2,8-1.5,11.7
						c-0.6,1.7-1.5,3.6-3.3,4.3c-1.6,0.6-2.9-0.1-3.6-1.6c-1.8-3.6-2.1-8.3-1.8-12.3C49.7,165.9,51,161.8,53.1,158.2L53.1,158.2z"/>
				</g>
			</g>
			<g>
				<g>
					<path d="M64.6,216.3c-0.1-2.6-4.1-2.6-3.8,0c0.2,6,2.7,11.7,6.7,16.2c3.4,3.9,8.1,6.9,13.1,8.1c2.5,0.6,5.8,1.3,8-0.3
						c2.8-2,1.7-5.5,0.5-8.1c-4.6-10.2-13.8-18.1-24.4-21.5c-2.5-0.7-3.5,3.1-1.1,3.9c4.9,1.6,9.5,4.2,13.3,7.7
						c3.4,3.1,6.2,6.8,8.2,10.9c0.4,1,1.1,2.1,1.2,3.2c0,0.9-0.8,0.8-1.5,0.8c-2,0-4.2-0.6-6.1-1.4
						C70.9,232.7,64.9,224.8,64.6,216.3L64.6,216.3z"/>
				</g>
			</g>
			<g>
				<g>
					<path d="M139,242.6c1.1,0.2,2-1,1.8-1.9c0-1.2-0.9-1.9-2-2c-6.3-0.7-13.2-1.3-19.3,0.9c-2.6,1-5.2,2.4-7.1,4.5
						c-1.1,1.2-2,2.8-1.7,4.5c0.2,1.4,1.2,2.4,2.3,3.2c2.5,1.7,6.1,2.1,9,2.5c3.3,0.3,6.6,0.3,9.8-0.1c3.3-0.4,6.5-1.2,9.6-2.4
						c2.8-1.1,6.8-2.5,7.2-6c0.3-3.2-2.5-5.8-5.2-6.9c-3.3-1.4-6.8-1.6-10.3-0.9c-2.5,0.6-1.4,4.4,1.1,3.9c2.8-0.6,6.1-0.4,8.6,1.1
						c0.7,0.4,1.9,1.3,1.9,2.2c0,1-1.7,1.6-2.4,1.9c-4.6,2.2-9.7,3.3-14.8,3.4c-2.6,0-5.2-0.2-7.7-0.7c-1.1-0.2-2.4-0.5-3.5-0.9
						c-0.4-0.2-1.5-0.7-1.5-1c-0.1-0.8,1.5-1.9,2-2.3c0.8-0.6,1.6-1.1,2.5-1.5c1.9-1,4-1.5,6.1-1.8
						C129.9,241.7,134.5,242.1,139,242.6L139,242.6z"/>
				</g>
			</g>
			<g>
				<g>
					<path d="M70.5,111.1c0.7-0.8,0.9-2,0-2.8c-0.7-0.7-2.1-0.8-2.8,0c-2.8,3.5-4.9,7.4-6.1,11.7c-0.8,3-1.6,7.6,1.8,9.3
						c3.7,1.9,7.7-1.8,9.7-4.6c1-1.3,1.7-2.9,2.4-4.4c0.8-2,1.6-4.1,1.7-6.3c0.1-3.8-2.5-7.5-6.4-7.6c-2.6-0.1-2.6,3.9,0,4
						c0.9,0.1,1.7,0.9,2.1,1.8c0.5,1.3,0.2,2.8-0.2,4.1c-0.7,2.4-2,5-3.6,7c-0.7,1-1.7,1.8-2.8,2.3c-0.3,0.1-0.7,0.2-1.1,0.1
						c0,0-0.1-0.2-0.2-0.4c-0.3-0.9-0.1-1.9,0.1-2.9c0.3-1.5,0.7-2.8,1.2-4.2C67.3,115.7,68.7,113.2,70.5,111.1L70.5,111.1z"/>
				</g>
			</g>
			<g>
				<g>
					<path d="M185.7,183.6c-1,0.4-1.2,1.9-0.9,2.5c0.6,1,1.7,1.1,2.7,0.7c5.5-2.4,11.1-4.3,16.9-5.7c4.7-1.1,9.6-1.9,14.4-1.3
						c3.5,0.4,6.7,1.9,8.5,5.1c1.2,2.2,2.1,4.6,2.6,7c0.6,2.5,0.4,5,0.2,7.5c-0.4,4.6-1.5,8.9-3.4,13.1c-1.2,2.7-2.5,5.4-4.5,7.6
						c-2.8,3.2-6.2,5.9-9.6,8.4c-3.4,2.6-6.9,5-10.6,7.2c-8,4.9-16.6,8.9-25.3,12.4c-1,0.4-1.7,1.4-1.4,2.5c0.3,1,1.5,1.8,2.5,1.4
						c10.6-4.1,20.8-9,30.3-15.3c4.1-2.7,8.1-5.5,11.8-8.6c3.1-2.5,5.9-5.3,8-8.6c1.9-3.1,3.5-6.7,4.6-10.2c0.8-2.6,1.3-5.3,1.6-8
						s0.6-5.6,0.2-8.3c-0.3-2.8-1.2-5.4-2.4-8c-0.9-2-2-3.9-3.7-5.4c-3.4-2.8-7.7-3.8-12-3.8C205.7,175.7,195.2,179.5,185.7,183.6
						L185.7,183.6z"/>
				</g>
			</g>
		</g>
		<g>
			<g>
				<path d="M55.8,38.7c-1,0.1-2,0.8-2,2.3c0,1,0.9,2.1,2,2c2-0.3,4.1-0.4,6.1-0.3c16.7,0.6,30.8,12.5,36.4,27.8
					c3,8.1,3.7,16.7,2.5,25.3c-1.3,9.8-4.5,19.2-6.9,28.7c-4.4,17.6-6.7,36.7,0.8,53.9c3,6.9,7.6,13.2,13.6,17.8
					c6.7,5.3,15.1,7.8,23.6,7.8c9.3,0,18.5-2.6,27.2-5.7c9.5-3.4,18.8-7.2,28.1-10.9c1-0.4,1.7-1.4,1.4-2.5c-0.3-1-1.5-1.8-2.5-1.4
					c-2.4,0.9-4.7,1.8-7,2.7c-9.1,3.5-18.2,7.4-27.6,10.3c-8.6,2.6-17.9,4.5-26.9,2.7c-15.5-3-25.7-16.6-29.3-31.4
					c-4.6-18.8,1.3-38.1,6.1-56.2c2.4-9.1,4.4-18.5,3.7-28c-0.6-8.4-3.1-16.7-7.6-23.9C88.8,45.7,72.4,36.6,55.8,38.7L55.8,38.7z"/>
			</g>
		</g>
	</g>
	<rect x="-0.2" y="0.1" fill-opacity="0" width="247" height="360.5"/>
</g>
</svg>
