<?xml version="1.0" encoding="utf-8"?>
<!-- Generator: Adobe Illustrator 25.0.0, SVG Export Plug-In . SVG Version: 6.00 Build 0)  -->
<svg version="1.1" id="Layer_1" xmlns="http://www.w3.org/2000/svg" xmlns:xlink="http://www.w3.org/1999/xlink" x="0px" y="0px"
	 viewBox="0 0 246.8 360.6" enable-background="new 0 0 246.8 360.6" xml:space="preserve">
<g id="tweaks_xA0_Image_1_" display="none">
</g>
<g id="Layer_7" display="none">
</g>
<g id="Layer_3">
</g>
<g id="Layer_5">
</g>
<g id="Layer_4">
</g>
<g id="Layer_9">
</g>
<g>
	<g id="Layer_2_1_">
		<g>
			<path fill="#FFFFFF" d="M232,206.1c-8.2,33-69.6,43-69.6,43c-32.9-19.5-21.4-61.7-21.4-61.7s45.1-8.7,54.5-11.6
				c9.4-2.9,26.8,5.8,26.8,5.8C236.3,189.9,232,206.2,232,206.1z"/>
			<path fill="#E2B059" d="M82.4,160c0,0,17.1-3,29.1-16.8s-5.5-35.6-12.2-21.4c-6.8,14.2-13,8.8-13,8.8s3.7-4.1,9.4-27.6
				s-8.2-44.8-17.1-38C69.7,71.8,74,97.2,74,97.2c-3.7-11.6-10.8-33.1-23.5-29.1s-0.8,27.7-0.8,27.7L45.5,95
				c-8.2-18.6-32.4-10.2-17.5,8.1s14.6,34.6,14.6,34.6c-8.2,23.4,7.9,28.4,7.9,28.4c16.8,86.6,101,73.2,101,73.2
				c-15.6-14.5-13.3-34.8-13.3-34.8C87.3,206.5,82.4,160,82.4,160z"/>
			<path fill="#DBDBDB" d="M189.6,241.9c-25.2,10.6-29.3,6.1-29.3,6.1s-19.3-10-20.7-39.4c0,0,32.5,41.6,86.9-23.7
				C244.6,222.1,214.7,231.3,189.6,241.9z"/>
			<path fill="#C48D3D" d="M136.9,204.7c3.1,21.7,13.3,34.3,13.3,34.3l-15.3-1.7c-7.3-12.2-5.8-32.9-5.8-32.9L136.9,204.7z"/>
			<g>
				<g>
					<path d="M81.5,158.2c-2.5,0.6-1.5,4.5,1.1,3.9c5.1-1.2,10-2.9,14.8-5.1c4.5-2.1,8.8-4.6,12.4-8c6.1-5.9,10.3-15.2,7.2-23.6
						c-1.6-4.1-4.8-7.6-9.3-8.4c-4.3-0.8-8,1-10.6,4.4c-2.1,2.6-3.7,6.5-7,7.9c-4.1,1.8-9.2-0.5-13.3-1.4c-8.9-2-18.5,0-25.8,5.5
						c-0.8,0.6-1.3,1.7-0.7,2.7c0.5,0.8,1.8,1.4,2.7,0.7c3.7-2.9,8-4.8,12.7-5.5c4.6-0.7,9,0.1,13.5,1.3c4.2,1.1,8.8,2.1,12.9,0.1
						c3.2-1.5,5.1-4.7,7-7.5c1.8-2.7,4.2-5.2,7.8-4.4c3.9,0.9,6.1,4.3,6.8,8c1.5,7.7-3.6,15.3-9.5,19.6
						C97.6,153.3,89.5,156.3,81.5,158.2L81.5,158.2z"/>
				</g>
			</g>
			<g>
				<g>
					<path d="M72,111.4c0.2,2.5,4.2,2.5,4-0.1c-0.8-10.2-2.4-20.5-6.1-30.1c-1.8-4.4-3.9-8.9-7.2-12.4c-4.3-4.6-12.5-4.8-16.8,0.1
						c-3.1,3.5-3.9,8.3-3.2,12.8c0.8,5.6,3.7,10.6,5.5,15.9c3.7,11,4.2,22.7,4.7,34.2c0.1,2.6,4.1,2.6,4,0
						c-0.5-12.2-1-24.6-5.1-36.2c-1.7-4.9-4.4-9.5-5.2-14.7c-0.5-3.6,0.2-8.2,3.4-10.4c2.5-1.8,6.1-1.6,8.7,0
						c0.4,0.3-0.3-0.3,0.2,0.2c0.2,0.2,0.4,0.4,0.6,0.6c0.5,0.5,0.9,1.1,1.4,1.6c0.3,0.4-0.1-0.2,0.2,0.3c0.1,0.2,0.2,0.3,0.3,0.5
						c0.3,0.3,0.6,0.7,0.8,1.1c0.6,0.9,1.2,1.9,1.7,2.9c1.3,2.5,2.3,5,3.2,7.7C69.9,93.8,71.3,102.6,72,111.4L72,111.4z"/>
				</g>
			</g>
			<g>
				<g>
					<path d="M51.1,111.8c0.8,2.4,4.7,1.4,4-0.9c-1.5-4.1-3.2-8.2-5.2-12.1c-1.9-3.7-4-7.4-6.6-10.6c-4-4.9-11.1-9.1-16.9-4.4
						c-4.5,3.6-4.7,10.6-2.6,15.6c1.4,3.2,3.6,6,5.7,8.8c2.2,2.9,4.2,5.8,5.7,9.1c3.1,6.5,4.6,13.7,5.7,20.8c0.1-0.5,0.1-1,0.2-1.5
						c-6.7,10.5-2.7,26,8.1,32.1c2.2,1.2,4.2-2.2,2-3.5c-6.8-3.8-10.3-12-9.3-19.6c0.2-1.6,0.6-3.3,1.3-4.8c0.4-0.9,1-1.6,1.3-2.5
						c0.4-1,0-2.3-0.2-3.4c-0.8-4.7-1.8-9.3-3.4-13.8c-1.5-4.4-3.5-8.7-6.3-12.6c-2.6-3.6-5.8-7-7.4-11.2c-1.1-2.9-1.2-6.7,0.7-9.4
						c2.3-3.2,6.2-2.4,9-0.4c3.7,2.7,6,6.9,8.2,10.8C47.5,102.6,49.5,107.1,51.1,111.8L51.1,111.8z"/>
				</g>
			</g>
			<g>
				<g>
					<path d="M52.5,166c-0.2-1.1-0.8-2-1.9-2c-1,0-2.1,0.9-2,2c1.2,9.6,3.9,18.9,8.1,27.7c7.2,15.3,18.9,28.7,33.7,37
						c18.2,10.2,39.4,11.1,59.8,10.4c2.6-0.1,2.6-4.1,0-4c-11.5,0.4-23.2,0.4-34.6-1.7c-9-1.7-17.8-4.7-25.6-9.5
						c-6.9-4.2-13-9.6-18.2-15.8C61.4,197.7,54.6,182.1,52.5,166L52.5,166z"/>
				</g>
			</g>
			<g>
				<g>
					<path d="M84.3,161c-0.6-2.6-4.4-1.5-3.8,1.2c1.2,5.3,3,10.5,5.3,15.4c4,8.7,9.9,17.1,18.3,21.9c10,5.7,21.6,7.2,32.9,7.4
						c2.6,0.1,2.6-3.9,0-4c-6.1-0.1-12.2-0.6-18.1-2c-5-1.2-10-3.1-14.3-5.9c-3.7-2.4-6.8-5.6-9.3-9.1
						C89.9,178.5,86.3,169.9,84.3,161L84.3,161z"/>
				</g>
			</g>
			<g>
				<g>
					<path d="M84.6,129.6c-0.5,1-0.3,2.1,0.7,2.6c0.8,0.5,2.3,0.3,2.7-0.7c4.8-10.4,9.3-21,10.1-32.6c0.7-9.8,0.5-20.7-4.8-29.4
						c-2.2-3.7-5.6-7.4-10.1-7.8c-4.9-0.4-8.7,3.6-10.6,7.8c-1,2.3-1.9,4.7-2.1,7.3c-0.2,2.5,0.3,5.1,0.8,7.5
						c1,4.7,1.5,9.5,1.6,14.3c0.3,9.8-1,19.6-3.3,29.1c-0.6,2.5,3.3,3.6,3.9,1.1c2.4-9.9,3.8-20.2,3.5-30.4c-0.1-4.5-0.6-9-1.4-13.4
						c-0.4-2.2-1.1-4.4-1.1-6.7c-0.1-2.3,0.6-4.4,1.5-6.5c1.4-3.4,4.6-7.5,8.7-5.5c3.4,1.7,5.8,5.8,7.1,9.2
						c1.7,4.3,2.3,8.9,2.5,13.5c0.1,4.7,0.1,9.5-0.6,14.1C92.4,112.4,88.5,121.1,84.6,129.6L84.6,129.6z"/>
				</g>
			</g>
			<g>
				<g>
					<path d="M229,192.3c0.4,1,1.3,1.7,2.5,1.4c0.9-0.3,1.8-1.5,1.4-2.5c-0.8-1.8-1.7-3.6-2.9-5.2c-4.4-6-11.4-8.7-18.4-10.7
						c-4.9-1.6-10.1-2.4-15.2-1.5c-4.8,0.8-9.4,2.9-14.1,4.2c-9.8,2.7-19.9,4.3-30,5.6c-2.5,0.3-5,0.6-7.5,0.9
						c-2.3,0.3-4.6,0.5-6.1,2.5c-1.3,1.7-1.4,4.1-1.6,6.2c-0.3,2.5-0.4,5.1-0.5,7.6c-0.2,9.7,1.3,19.5,5.2,28.5
						c1.8,4,4,7.7,6.7,11.1c2.7,3.4,6,6.8,9.8,8.9c1.9,1.1,4.1,1.8,6.3,1.9c2.5,0.1,4.9-0.7,7.2-1.4c5-1.6,9.9-3.2,14.8-4.8
						c8.7-2.8,17.4-5.8,25.3-10.4c7.5-4.4,14.1-10.4,18.3-18.1c4-7.3,5.7-15.9,3.3-24c-0.8-2.4-4.6-1.4-3.9,1.1
						c0.6,1.8,0.9,3.6,1,5.4c0.3,7.5-2.7,14.8-7.2,20.7c-5,6.4-11.9,10.9-19.2,14.4c-7.8,3.7-16.1,6.2-24.3,8.8
						c-2.4,0.8-4.7,1.5-7.1,2.3c-2.2,0.7-4.4,1.6-6.7,1.9c-4,0.4-7.5-2.1-10.3-4.7c-13-12.1-16.3-30.6-14.8-47.6
						c0.1-1.1,0.2-2.3,0.4-3.5c0.1-0.7,0.2-1.6,0.7-2.1c0.5-0.6,1.6-0.6,2.3-0.7c1.1-0.1,2.2-0.3,3.3-0.4c4.7-0.6,9.5-1.2,14.2-1.9
						c9.3-1.4,18.5-3.3,27.4-6.3c4.4-1.5,8.6-2.9,13.3-2.6c4.1,0.3,8.1,1.6,12,3C220.8,182.5,226.3,186,229,192.3L229,192.3z"/>
				</g>
			</g>
		</g>
	</g>
	<rect x="-0.2" y="0.1" fill-opacity="0" width="247" height="360.5"/>
</g>
</svg>
