<?xml version="1.0" encoding="utf-8"?>
<!-- Generator: Adobe Illustrator 25.0.0, SVG Export Plug-In . SVG Version: 6.00 Build 0)  -->
<svg version="1.1" id="Layer_1" xmlns="http://www.w3.org/2000/svg" xmlns:xlink="http://www.w3.org/1999/xlink" x="0px" y="0px"
	 viewBox="0 0 246.8 360.6" enable-background="new 0 0 246.8 360.6" xml:space="preserve">
<g id="tweaks_xA0_Image_1_" display="none">
</g>
<g id="Layer_7" display="none">
</g>
<g id="Layer_3">
</g>
<g id="Layer_5">
</g>
<g id="Layer_4">
</g>
<g id="Layer_9">
</g>
<g>
	<g>
		<g>
			<path fill="#C65D17" d="M193.3,180.8c-32.1-1.1-41.4,20-41.4,20c-9.4-2.9-17.9,1.9-17.9,1.9c14.9-54.9-11.6-91-11.6-91l-4.1-2.3
				c10.4-39.8-7.4-67.8-7.4-67.8c1.7,35.5-22.9,58.8-22.9,58.8s-0.4,15.1-24.1-17.5s-6-74-6-74c-26.8,9.6-37,45.5-37,45.5
				c-30.2,75.8,16.3,144.7,53,167.6s43.2,4.1,43.2,4.1c11.7,32.3,47.4,10.1,47.4,10.1c68,9.8,68.1-40.8,68.1-40.8
				C224.6,183.6,225.5,181.7,193.3,180.8z"/>
			<path fill="#C44418" d="M12,91.2C22.6,18.8,57.9,8.9,57.9,8.9c-27.3,60,18.9,115.7,37.6,152.3s22.3,65.6,19.8,67.3
				C81.2,251.4,1.5,163.6,12,91.2z"/>
			<path fill="#C44418" d="M118.4,109.3c-14.5,7.4-33.7-5.5-33.7-5.5c27.7-24.7,26.4-59.1,26.4-59.1
				C129.5,65.5,118.4,109.3,118.4,109.3z"/>
			<path fill="#B54900" d="M232.5,202c-11,39.3-58,35.2-58,35.2c1.6-40.7,18.9-56.5,18.9-56.5C235,177.2,232.4,202,232.5,202z"/>
		</g>
		<g>
			<g>
				<g>
					<g>
						<path d="M192.9,178.8c-1.1,0.1-1.7,1.5-1.7,2.4c0.3,1.1,1.4,1.6,2.5,1.4c2-0.4,4-0.6,6-0.7c12.4-0.6,32,3.4,30.7,19.5
							c-0.5,6.7-4.3,12.9-8.7,17.7c-4.4,4.9-9.8,8.7-15.8,11.6c-6,2.8-12.5,4.6-19,5.3c-6.4,0.7-13.3,0.5-19.4-2
							c-3-1.2-5.6-3.1-7.7-5.5c-2.3-2.7-3.6-6.1-4.6-9.5c-1.8-6.5-2.2-13.9,0.8-20.1c3-6.1,8.9-9.9,15-12.2
							c7.5-2.8,15.5-4.1,23.4-4.2c2.6,0,2.6-4,0-4c-2.2,0-4.4,0.1-6.6,0.3c-14.9,1.5-33.7,7.3-37.2,24c-1.6,7.7-0.3,16.2,3.1,23.2
							c3.3,7,9.6,11.4,17,13.2c7.1,1.7,14.8,1.4,22,0s14.2-4,20.5-7.9c6.2-3.8,11.7-8.8,15.8-14.9c4.2-6.2,7-14.3,4.9-21.8
							c-2-7.3-8.4-11.9-15.3-14.2C210.4,177.6,201.4,177.3,192.9,178.8L192.9,178.8z"/>
					</g>
				</g>
				<g>
					<g>
						<path d="M132.2,202.1c-0.8,2.5,3.1,3.5,3.7,1c0.6-1.8,1.1-3.7,1.5-5.5c3.6-15.1,4.1-30.9,1.6-46.2c-1.2-7.6-3.2-15.1-5.9-22.3
							c-1.4-3.6-2.9-7.2-4.6-10.7c-0.8-1.7-1.7-3.3-2.6-5s-1.8-3.6-3.7-4.4c-1.8-0.8-3.8-0.4-5.7-0.1c-1.9,0.4-3.8,0.6-5.7,0.6
							c-3.8,0.1-7.6-0.3-11.3-1.3c-7.3-1.9-14.1-5.5-19.9-10.4c-5.7-4.9-10.6-10.7-14.7-17c-4.4-6.7-8.4-13.9-10.2-21.8
							c-1.9-8.5-1.1-17.5,0.1-26c1.2-8.7,3.1-17.2,5.6-25.6c0.6-1.8-1.4-3-2.9-2.3c-2.1,1-4.2,2.2-6.2,3.5
							C33.4,20.3,23.1,39.8,17,59.7C13.5,71,10.8,82.6,9.6,94.3c-1.1,10.9-0.4,22,1.7,32.8c4.1,21.6,13.6,42.4,25.8,60.6
							c5.3,8,12,15.2,18.7,22.1c5.6,5.8,11.7,10.9,18.7,14.9c3.9,2.3,8.1,4.1,12.3,5.7c4.7,1.8,9.7,3.4,14.7,4.2
							c3.6,0.5,7.4,0.7,10.8-0.9c1.2-0.6,2.3-1.5,3.2-2.5c0.7-0.9,1.8-1.7,2.1-2.9c0.4-1.3-0.3-2.4-1.3-3c-2.2-1.3-4.2,2.2-2,3.5
							l0,0c-0.2-0.3-0.3-0.6-0.5-0.9c0,0.1,0,0.1,0,0.2c0-0.4,0-0.7,0-1.1c0,0.4-1,1.3-1.4,1.7s-0.8,0.8-1.1,1
							c-2.4,1.5-5.4,1.5-8.3,1.1c-4.7-0.6-9.4-2.2-13.9-3.8c-7.5-2.6-14.6-6.3-20.9-11.2c-6.1-4.7-11.4-10.5-16.5-16.2
							c-3.2-3.7-6.5-7.2-9.3-11.2c-3.1-4.3-5.9-8.9-8.5-13.5c-10.3-18.1-18.1-38-20.2-58.8c-1.1-10.7-0.5-21.5,1.5-32.1
							c2-10.7,4.8-21.4,8.6-31.6c6.7-18.1,18.1-35.2,35.8-43.9c-0.9-0.8-1.9-1.5-2.9-2.3c-0.7,2.1-1.3,4.1-1.8,6.2
							c-2.2,8.4-3.8,17.1-4.7,25.8c-0.9,8.6-0.9,17.5,1.9,25.8c2.5,7.6,6.6,14.7,11.1,21.2c4.4,6.2,9.4,11.9,15.4,16.6
							c6.2,4.8,13.2,8.5,20.8,10.3c3.7,0.9,7.6,1.4,11.5,1.3c1.9,0,3.8-0.2,5.7-0.5c1.4-0.2,3.6-1.1,4.6,0.2
							c1.1,1.5,1.9,3.4,2.8,5.1s1.7,3.4,2.5,5.1c1.6,3.5,3,7.1,4.2,10.7c2.4,7.3,4.2,14.8,5.1,22.4
							C137.7,171.7,136.5,187.3,132.2,202.1L132.2,202.1z"/>
					</g>
				</g>
				<g>
					<g>
						<path d="M116.5,108.8c-0.8,2.5,3.1,3.5,3.9,1.2c1.5-5.2,2.5-10.6,3.1-16c2.1-19.2-1.7-39-10.9-55.9c-0.9-1.7-3.9-1-3.7,1
							c0.5,5,0.5,10.1-0.1,15.2c-2,17.7-10.6,34.5-23.8,46.3c-2,1.7,0.9,4.5,2.8,2.8c3.9-3.5,7.4-7.5,10.5-11.7
							c11-15.1,16.3-34.2,14.5-52.7c-1.2,0.3-2.5,0.7-3.7,1c2.5,4.6,4.5,9.4,6.2,14.4C121.2,71.9,121.6,91.1,116.5,108.8
							L116.5,108.8z"/>
					</g>
				</g>
				<g>
					<g>
						<path d="M113.3,226.4c0.1,2.6,4.1,2.6,4.1,0c0-2.2-0.1-4.3-0.3-6.5c-1.5-17.7-7.2-34.6-14.6-50.6
							C95,153.2,85.8,138,76.9,122.6c-4.5-7.8-8.9-15.7-12.9-23.7c-3.4-6.8-6.7-13.8-9.2-21c-2.8-8-3.7-16.4-3.8-24.8
							c-0.1-15.7,3.6-31.3,9.6-45.8c0.4-1-0.5-2.2-1.4-2.5c-1.2-0.3-2.1,0.4-2.5,1.4c-0.9,2.2-1.7,4.4-2.5,6.6
							c-5,14.1-7.8,29.1-7.1,44.1c0.3,7.9,1.5,16,4.3,23.5c6.3,16.8,15.1,32.5,24.1,48c9,15.4,18.1,30.8,25.3,47.1
							C107.8,191.6,112.9,208.7,113.3,226.4L113.3,226.4z"/>
					</g>
				</g>
			</g>
			<g>
				<g>
					<path d="M165.5,237.9c2.2-1.4,0.2-4.8-2-3.4c-7,4.3-14.8,7.9-23.2,7.7c-5.8-0.1-11.7-2.4-15.7-6.6c-4.2-4.4-5.3-10.5-3.6-16.2
						c1.8-6,6-10.8,11.5-13.7c5.9-3.2,12.8-4.1,19.5-3.8c2.6,0.1,2.6-3.9,0-4c-8.4-0.4-17.4,1.2-24.4,6.1c-5.7,4-9.9,10.1-11,17.1
						s1.2,13.9,6.6,18.6c5.3,4.6,12.3,6.8,19.3,6.4C150.8,245.7,158.5,242.2,165.5,237.9L165.5,237.9z"/>
				</g>
			</g>
		</g>
	</g>
	<rect x="-0.2" y="0.1" fill-opacity="0" width="247" height="360.5"/>
</g>
</svg>
