<?xml version="1.0" encoding="utf-8"?>
<!-- Generator: Adobe Illustrator 25.0.0, SVG Export Plug-In . SVG Version: 6.00 Build 0)  -->
<svg version="1.1" id="Layer_1" xmlns="http://www.w3.org/2000/svg" xmlns:xlink="http://www.w3.org/1999/xlink" x="0px" y="0px"
	 viewBox="0 0 254.4 263.7" enable-background="new 0 0 254.4 263.7" xml:space="preserve">
<g>
	<g>
		<g>
			<path fill="#6EEDE4" d="M46.3,123.4c43.9,4.7,54.1,31.6,91.4,35.8c52.8,6,64-20.6,69.9-51.5c5.9-30.9-13.8-95.5-13.8-95.5l11,2
				c41.5,13.5,56,156.2-8.7,176s-84.9-7.3-124.8-39.8s-63.2-5.5-63.2-5.5S12.6,119.8,46.3,123.4z"/>
			<path fill="#0CBFB2" d="M181.4,108.4c-3.3,26.4-38.5,45.9-79.6,22.2s-50.2-20.1-50.2-20.1c-44.3,3.8-43.4,34.4-43.4,34.4
				s4.4-25.1,38.2-21.5c43.9,4.7,54.1,31.6,91.4,35.8c52.8,6,64-20.6,69.9-51.5s-13.8-95.5-13.8-95.5
				C161.3,12.2,186.4,68.1,181.4,108.4z"/>
			<path fill="#0CBFB2" d="M228.5,129.4c0,0-6.5,18.3-11,8s0.9-21.3,0.9-21.3C232,92.2,228.5,129.4,228.5,129.4z"/>
			<path fill="#0CBFB2" d="M205.5,163.8c-10.5-6.5-31.2,16.3-30.7,16.5C200.8,189.2,205.4,163.8,205.5,163.8z"/>
			<path fill="#0CBFB2" d="M133.3,172.6c-13.5-3.4-15.1,5.7-15.1,5.7c17.6,16.5,28.5,5.9,28.6,5.5
				C146.8,183.8,146.7,176,133.3,172.6z"/>
			<path fill="#0CBFB2" d="M79.8,145.6c4.3-0.3,16.1,9.3,12.7,13.4c-3.3,4-11.9-3-11.9-3C72.5,148.7,75.6,145.9,79.8,145.6z"/>
		</g>
		<path fill="#02A898" d="M193.9,12.1c-27.6,0.6-15.4,47.8-15.4,47.8c33.8,24,61.3,31.8,61.3,31.8C241.1,59.1,221.5,11.6,193.9,12.1
			z"/>
		<g>
			<g>
				<g>
					<path d="M3.8,147.2c-1.4,2.2,2.1,4.2,3.5,2c1.3-1.9,2.8-3.6,4.5-5.1c7-6.1,16.8-7.7,25.8-6.9c10.6,0.9,20,5.5,28.5,11.7
						c9.9,7.2,18.4,16.1,27.8,24s19.7,14.5,31.1,19.1c21.7,8.9,47,10.5,68.9,1.4c19.6-8.1,36.2-24.2,43.4-44.4
						c1.8-5.1,2.8-10.4,3.5-15.7c0.8-6,1.3-12,1.6-18.1c0.5-12.1,0.1-24.4-2.1-36.3c-0.5-2.5-4.4-1.4-3.9,1.1
						c0.5,2.7,0.9,5.4,1.2,8.1c1.3,12.1,1.2,24.5,0.1,36.7c-1,10.7-2.7,21.2-7.7,30.8c-9.6,18.6-27.7,32.4-47.9,37.5
						c-23,5.8-47.9,0.7-68.3-10.9c-10.7-6.1-19.7-14.3-28.8-22.5c-8.8-8-17.9-16.2-28.7-21.4C39.6,130.3,15.1,130,3.8,147.2
						L3.8,147.2z"/>
				</g>
			</g>
			<g>
				<g>
					<path d="M5.3,142.3c-0.5,1-0.3,2.2,0.7,2.8c0.8,0.5,2.2,0.3,2.7-0.7c1-2.2,2.2-4.3,3.8-6.2c6.7-8,17.2-11.8,27.4-12.6
						c12.5-0.9,24.4,3,35.5,8.3c12.7,6.1,24.5,13.8,37.4,19.5c13,5.7,27.1,9.7,41.4,9.2c13-0.5,26-4.6,36-13
						c4.8-4.1,8.8-9.3,11.8-14.9c7.4-14.1,8.8-30.8,8.2-46.5c-1.1-25.6-7.4-50.9-14.8-75.3c-0.8-2.4-4.7-1.4-3.9,1.1
						c1.1,3.5,2.2,7.1,3.2,10.7c6.4,22.9,11.8,46.8,11.6,70.7c-0.1,14.5-2.3,29.6-10.3,41.7c-1.7,2.4-3.1,4.3-5.3,6.5
						c-3.7,3.8-7.9,6.8-12.6,9.1c-11.7,5.9-25.3,7-38.1,4.9c-14.2-2.4-27.3-8.3-39.9-15.1c-12.1-6.6-24-13.8-37.2-18
						c-10.8-3.5-22.4-4.3-33.5-1.2C19.2,126.1,9.8,132.5,5.3,142.3L5.3,142.3z"/>
				</g>
			</g>
			<g>
				<g>
					<path d="M119.4,177.8c-1.9-1.8-4.7,1-3,2.9c4.4,4.2,9.9,7.1,15.8,8.4c2.6,0.5,5.3,0.8,7.9,0.7c2.7-0.1,5.7-0.6,7.4-2.9
						c1.5-2,1.6-4.7,0.7-6.9c-1-2.5-3.1-4.2-5.3-5.6c-4.7-2.8-10.4-5-16-4.6c-2.7,0.2-5.5,0.9-7.6,2.6c-2.1,1.7-3.2,4.3-1.9,6.8
						c1.2,2.3,4.7,0.3,3.5-2c-0.3-0.6,0.6-1.4,1-1.7c0.7-0.7,1.7-1,2.7-1.3c2.2-0.6,4.5-0.6,6.7-0.2c2.1,0.4,4.1,1.1,6,2
						s3.9,1.9,5.4,3.2c1.3,1.1,2.4,2.6,2.1,4.3c-0.3,1.6-1.9,2.1-3.4,2.2C133.4,186.4,125.2,183.4,119.4,177.8L119.4,177.8z"/>
				</g>
			</g>
			<g>
				<g>
					<path d="M178.5,180.6c-2.5-0.5-3.6,3.4-1.1,3.9c5.9,1.2,12,0.3,17.3-2.5c4.6-2.3,8.5-6.1,11-10.6c1.2-2.3,2.6-5.2,1.9-7.8
						c-0.9-3.2-4.4-3.3-7.1-2.9c-11.3,1.8-21.5,8.9-27.5,18.6c-1.3,2.2,2.1,4.2,3.5,2c2.8-4.5,6.6-8.4,11-11.3c4-2.6,8.4-4.4,13-5.3
						c0.7-0.1,2.4-0.7,3.1-0.2c0.5,0.3,0.2,1.3,0,1.8c-0.7,2-1.7,3.9-3,5.6C195.6,178.5,186.7,182.3,178.5,180.6L178.5,180.6z"/>
				</g>
			</g>
			<g>
				<g>
					<path d="M221.9,114.8c0.9-2.4-2.9-3.5-3.9-1.2c-2.4,6.5-4.7,13.6-3.5,20.6c0.4,2.7,1.5,6,3.6,7.9c2.7,2.5,6,0.7,7.8-1.9
						c1.8-2.6,3-5.6,3.9-8.5c1-3.1,1.6-6.4,1.8-9.7c0.2-3.1,0-6.3-0.5-9.4c-0.5-3-1.4-6.6-5.1-6.9c-2.9-0.2-5.4,2-7,4.2
						c-1.9,2.7-2.9,6-3,9.3c-0.1,2.6,3.9,2.6,4,0c0.1-2.7,1-5.5,2.7-7.6c0.7-0.8,1.6-1.6,2.6-1.8s1.3,0.6,1.5,1.5
						c1.2,4.6,1.2,9.8,0.4,14.5c-0.5,2.6-1.2,5-2.1,7.4c-0.5,1.2-1,2.3-1.6,3.4c-0.5,0.9-1,1.9-1.8,2.6c-0.7,0.6-1,0-1.4-0.7
						c-0.6-0.9-1.1-1.9-1.4-2.9c-0.7-2.2-0.8-4.4-0.7-6.7C218.5,124,220.2,119.3,221.9,114.8L221.9,114.8z"/>
				</g>
			</g>
			<g>
				<g>
					<path d="M77.8,149.5c-0.6-0.8-1.7-1.3-2.9-0.8c-0.8,0.5-1.3,1.8-0.7,2.7c2.6,3.5,5.8,6.4,9.6,8.6c2.9,1.7,7.6,3.8,10.1,0.3
						c2.4-3.3-0.3-8-2.7-10.5c-1.3-1.3-2.7-2.5-4.2-3.6s-3.2-2.1-5-2.6c-3.5-0.8-7.7,0.7-8.7,4.4c-0.7,2.5,3.2,3.6,3.9,1.1
						c0.1-0.4,0.4-0.8,0.6-1c0.5-0.4,0.9-0.6,1.5-0.7c1-0.2,2.4,0.2,3.5,0.8c2.4,1.3,4.7,3.3,6.4,5.4c0.7,1,1.3,2,1.6,3.2
						c0.1,0.4,0.2,0.9,0.1,1.2c-0.1,0.2-0.1,0.1-0.2,0.2c-0.1,0-0.2,0.1-0.5,0.1c-0.2,0.1-0.9-0.1-1.3-0.2c-0.6-0.2-1-0.4-1.6-0.7
						c-1.3-0.6-2.5-1.4-3.7-2.2C81.4,153.7,79.4,151.7,77.8,149.5L77.8,149.5z"/>
				</g>
			</g>
			<g>
				<g>
					<path d="M175.8,55.2c0.2,1.1,1.5,1.6,2.4,1.7c1.1-0.3,1.6-1.4,1.4-2.5c-1-6.1-1.6-12.2-1.5-18.3c0.1-4.8,0.6-9.8,2.4-14.3
						c1.4-3.4,3.8-5.9,7.4-6.7c2.5-0.6,5.1-0.9,7.7-0.7c2.4,0.1,4.8,1,7.1,1.8c4.3,1.5,8.1,3.8,11.7,6.6c2.1,1.7,4.1,3.5,5.7,5.7
						c2.4,3.3,4.1,7.1,5.7,10.9c1.7,4,3.2,8.1,4.5,12.2c2.9,9.3,4.8,18.9,6.1,28.5c0.2,1.1,1.6,1.7,2.5,1.4c1.1-0.4,1.5-1.4,1.4-2.5
						c-1.5-11.4-3.8-22.6-7.7-33.4c-1.6-4.6-3.4-9.1-5.6-13.5c-1.6-3.3-3.5-6.5-6.1-9.1c-2.4-2.5-5.4-4.7-8.3-6.6
						c-2.3-1.5-4.8-2.6-7.3-3.6s-5.1-1.9-7.8-2.3c-2.9-0.4-5.7-0.3-8.5,0.2c-2.3,0.4-4.5,0.9-6.5,2.2c-3.5,2.4-5.6,6.3-6.7,10.3
						c-1.3,4.7-1.6,9.7-1.6,14.5C174.2,43.5,174.8,49.4,175.8,55.2L175.8,55.2z"/>
				</g>
			</g>
		</g>
		<g>
			<g>
				<path d="M3.9,146.8c-0.1,1.1,1,2,2.1,1.9c1.2,0,1.9-0.9,2-2c0.2-1.9,0.6-3.8,1.2-5.7c4.9-16.3,20.3-27.1,36.9-28.5
					c9.3-0.7,18.3,1.2,26.8,5c8.8,3.9,17,9.2,25.6,13.6c16,8.2,34,14.5,52.1,10.7c7.7-1.6,15.1-5,20.9-10.3
					c6.1-5.6,9.9-13.2,11.6-21.3c1.7-8.5,1.4-17.2,0.5-25.8c-1-9.9-2.5-19.8-3.8-29.7c-0.1-1.1-0.8-2-2-2c-1,0-2.1,0.9-2,2
					c0.3,2.6,0.7,5.3,1,7.9c1.3,9.4,2.8,18.8,3.3,28.3c0.4,8.4,0.1,17-2.9,25c-2.8,7.4-8.1,13.5-15,17.4c-6.7,3.8-14.5,5.7-22.2,5.8
					c-19,0.3-36.2-9.3-52.3-18.3c-8.4-4.7-17-9.3-26.5-11.2c-8.9-1.8-18.3-1.5-26.9,1.3C18.4,116,5.9,129.9,3.9,146.8L3.9,146.8z"/>
			</g>
		</g>
	</g>
	<rect x="-0.2" y="0.1" fill-opacity="0" width="254.4" height="263.7"/>
</g>
</svg>
