<?xml version="1.0" encoding="utf-8"?>
<!-- Generator: Adobe Illustrator 25.0.0, SVG Export Plug-In . SVG Version: 6.00 Build 0)  -->
<svg version="1.1" id="Layer_1" xmlns="http://www.w3.org/2000/svg" xmlns:xlink="http://www.w3.org/1999/xlink" x="0px" y="0px"
	 viewBox="0 0 246.8 360.6" enable-background="new 0 0 246.8 360.6" xml:space="preserve">
<g id="tweaks_xA0_Image_1_" display="none">
</g>
<g id="Layer_7" display="none">
</g>
<g id="Layer_3">
</g>
<g id="Layer_5">
</g>
<g id="Layer_4">
</g>
<g>
	<g>
		<g>
			<path fill="#FFFFFF" d="M14.6,190.7c-2.5,12.1,2.3,24.6,9.2,34.8c7.9,11.7,18.6,21.6,30.9,28.4c2,1.1,4.3,2.2,6.6,1.9
				c1.3-0.2,2.4-0.7,3.6-1.3c7.9-4.4,13.5-12.2,16.4-20.7c2.8-8.5,3-17.8,1.6-26.7c-0.2-1.2-0.4-2.4-1.1-3.4c-0.5-0.8-1.3-1.4-2.1-2
				c-11.2-8.3-23-15.8-35.4-22.4c-2.7-1.4-5.5-2.8-8.5-3c-3.7-0.2-7.2,1.4-10.6,3c-4.9,2.4-10.5,5.9-10.9,11.4"/>
		</g>
		<path fill="#E2B059" d="M73.7,248.7c0,0,21.7,11.8,20.3,38c0,0-13.5-10.8-22.1-6.3c0,0-5.8,2-11,4.4c-13.5,6.1-8.3,21.8-9.7,24.5
			c-1.7,3.5,2.3,10.3-0.1,15c-3.4,6.8,2.3,17.5,8.4,19.6c0,0,22.6,14.2,35.4,7.1c0,0,22.2-25.4,28.8-44.8c0,0,20.5-37.5-37.7-82.3
			C86.1,223.9,80.5,246.1,73.7,248.7z"/>
		<path fill="#DBDBDB" d="M14.4,190.7c0,0,55.9,53.8,69.3,27.5c0,0-4.1,32.1-22.3,37.6C61.4,255.8,11.6,238.9,14.4,190.7z"/>
		<path fill="#C48D3D" d="M90.9,228.3c0,0,0.7,22.9-6,27.4l-11.3-7c0,0,10.9-10.3,12.4-24.8L90.9,228.3z"/>
		<path fill="#C48D3D" d="M82.3,281.7c0,0-10.7,2.9-6.6,17c0,0-7.9,14-0.5,23.9l1.8,6.9c0,0-0.2,1,1.4,6.2c0,0,1.7,11.7,10.8,16.4
			c0,0-31.9-3-36-12.3c0,0-5-11.9-1.6-29.1c2-10.4-6.4-22.9,18-28.9C69.7,281.7,78.6,277.5,82.3,281.7z"/>
		<g>
			<g>
				<path d="M84.1,224.9c17.3,15.5,35.9,32.5,40.2,56.4c1,5.5,1,11.2-0.1,16.7c-1.2,5.9-3.7,11.3-6.7,16.4
					c-3.1,5.5-6.6,10.8-9.9,16.2c-1.7,2.8-3.5,5.6-5.2,8.4c-1.6,2.6-3.1,5.5-5.1,7.8c-4.2,4.7-11.3,3.2-16.9,2.5
					c-6.4-0.7-13-1.9-18.5-5.3c-2.2-1.4-4.2,2.1-2,3.5c5.3,3.3,11.4,4.7,17.6,5.5c2.9,0.4,5.9,0.7,8.9,0.9c2.9,0.2,6,0.2,8.8-0.8
					c2.8-1.1,4.9-3,6.6-5.5c1.9-2.6,3.5-5.5,5.2-8.3c3.7-5.9,7.4-11.8,11-17.7c3.4-5.4,6.6-11,8.6-17.1c2-5.7,2.8-11.9,2.4-17.9
					c-0.8-12.3-5.7-24-12.7-34c-8.2-11.6-18.7-21.2-29.2-30.6C85.1,220.3,82.2,223.2,84.1,224.9L84.1,224.9z"/>
			</g>
		</g>
		<g>
			<g>
				<path d="M72.3,250.1c5.5,4.3,10.2,9.7,13.9,15.6c3.6,5.8,6.4,12.3,6.8,19.2c0.1,2.6,4.1,2.6,4,0c-0.4-7.4-3.3-14.6-7.1-20.9
					c-3.9-6.4-8.9-12.2-14.8-16.8c-0.8-0.7-2-0.8-2.8,0C71.6,248,71.4,249.4,72.3,250.1L72.3,250.1z"/>
			</g>
		</g>
		<g>
			<g>
				<path d="M12.7,190.2c-3.1,16,4.9,31.5,14.7,43.5c4.9,5.9,10.5,11.2,16.6,15.7c3,2.2,6.2,4.3,9.5,6.1c1.8,1,3.7,2,5.8,2.2
					c2.1,0.3,4.1-0.3,6-1.3c14-7.2,20.3-23.5,20.4-38.5c0-4.1-0.3-8.4-1.1-12.5c-0.9-4.2-4.8-6.3-8.1-8.6c-7-5-14.2-9.7-21.7-14
					c-3.6-2.1-7.3-4.2-11.1-6.1c-3.8-1.9-7.7-3.1-12-2.1c-3.7,0.8-7.3,2.7-10.6,4.6c-2.8,1.7-5.7,3.8-7.3,6.7
					c-0.9,1.5-1.3,3.1-1.5,4.8c-0.1,1.1,1,2,2,2c1.2,0,1.9-0.9,2-2c0.3-2.7,2.2-4.8,4.3-6.4c2.6-2,5.6-3.5,8.6-4.7
					c3.5-1.4,6.8-1.8,10.4-0.4c3.5,1.4,6.9,3.5,10.2,5.4c6.8,3.9,13.5,8,19.9,12.5c3.1,2.1,6.4,4.3,9.3,6.7c1.4,1.1,1.7,2.6,1.9,4.3
					c0.3,1.9,0.5,3.9,0.6,5.9c0.8,13.6-3.1,28.5-14.6,36.9c-1.3,1-2.7,1.9-4.2,2.6c-1.7,0.8-3.3,0.6-5-0.2c-3.2-1.4-6.1-3.4-9-5.3
					c-5.7-3.9-10.9-8.5-15.5-13.6c-9.2-10.3-17.6-23.7-17.2-38c0-1.7,0.2-3.5,0.6-5.2C17,188.7,13.2,187.7,12.7,190.2L12.7,190.2z"
					/>
			</g>
		</g>
		<g>
			<g>
				<path d="M76.1,296.3c-2.1-0.4-4.3-0.4-6.4-0.7c-0.1,0-0.3,0-0.4,0c0.2,0,0.3,0,0,0c-0.2,0-0.5-0.1-0.7-0.1
					c-0.5-0.1-0.9-0.3-1.3-0.4c-0.2-0.1,0.4,0.2,0,0c-0.1,0-0.2-0.1-0.3-0.1c-0.2-0.1-0.4-0.2-0.6-0.3c-0.2-0.1,0.3,0.3,0,0
					c-0.1-0.1-0.2-0.1-0.2-0.2c-0.1-0.1-0.1-0.2-0.2-0.2c-0.3-0.3,0.2,0.3,0,0c-0.6-0.9-1.8-1.3-2.7-0.7c-0.9,0.6-1.4,1.8-0.7,2.7
					c1.4,2,3.6,3,6,3.3c1.2,0.2,2.4,0.3,3.6,0.4c0.5,0,1.1,0.1,1.6,0.1c0.1,0,0.2,0,0.4,0c0.3,0-0.4-0.1,0,0c0.3,0,0.5,0.1,0.8,0.2
					c1,0.2,2.2-0.3,2.5-1.4C77.7,297.7,77.2,296.5,76.1,296.3L76.1,296.3z"/>
			</g>
		</g>
		<g>
			<g>
				<path d="M65.5,294.1c-0.6-3,0.3-6.4,2.4-8.7c2-2.2,5-3.5,7.9-3.8c6.9-0.8,13.7,3,18.9,7.1c1.5,1.2,2.7,2.6,3.4,4.4
					c0.7,1.9,1.3,3.9,2.5,5.7c1.4,2.1,4.9,0.1,3.5-2c-1.1-1.7-1.6-3.6-2.3-5.5c-0.8-2-2-3.7-3.7-5.1c-3.2-2.7-7.1-5.1-11-6.7
					c-7.1-2.9-16.2-3-21.9,2.9c-3.2,3.4-4.4,8.2-3.5,12.7C62.1,297.6,66,296.6,65.5,294.1L65.5,294.1z"/>
			</g>
		</g>
		<g>
			<g>
				<path d="M66.6,280.9c-9.8-0.7-17.9,7.8-18.2,17.3c-0.1,4.8,1.6,9.6,4.7,13.3c2.2,2.6,5.2,4.1,8.3,5.5c3.9,1.8,8.3,3.7,12.7,3.8
					c2.6,0,2.6-4,0-4c-3,0-6.2-1.3-9-2.5c-1.5-0.7-3.1-1.4-4.5-2.2c-0.6-0.3-1.1-0.6-1.7-1c-0.2-0.1-0.4-0.2-0.6-0.4
					c-0.1-0.1-0.8-0.6-0.4-0.2c-5.9-4.9-7.5-14.6-2.5-20.6c2.7-3.3,6.8-5.3,11.2-5C69.2,285.1,69.1,281.1,66.6,280.9L66.6,280.9z"/>
			</g>
		</g>
		<g>
			<g>
				<path d="M51.6,306c-3,1.9-3.3,5.5-3.3,8.8c0,3.4,0.7,6.7,2.7,9.4c3.8,5.1,9.5,8.8,15.3,11.3c3.5,1.5,7.1,2.7,10.8,3.3
					c1.1,0.2,2.1-0.3,2.5-1.4c0.3-0.9-0.3-2.3-1.4-2.5c-7.1-1-14.2-4.2-19.7-8.8c-2.2-1.8-4.6-4-5.5-6.8c-0.6-1.9-0.7-3.9-0.6-5.9
					c0.1-1.3,0.1-3.2,1.3-4C55.8,308.1,53.8,304.6,51.6,306L51.6,306z"/>
			</g>
		</g>
		<g>
			<g>
				<path d="M50.7,322.9c-4,4.6-3.3,11-0.4,16c2.7,4.5,6.9,7.9,11.8,9.7c1,0.4,2.2-0.4,2.5-1.4c0.3-1.1-0.4-2.1-1.4-2.5
					c-3.7-1.4-7-4-9.1-7.3c-2.1-3.4-3.6-8.3-0.6-11.7C55.2,323.8,52.4,320.9,50.7,322.9L50.7,322.9z"/>
			</g>
		</g>
	</g>
	<rect x="-0.2" y="0.1" fill-opacity="0" width="247" height="360.5"/>
</g>
</svg>
