<?xml version="1.0" encoding="utf-8"?>
<!-- Generator: Adobe Illustrator 25.0.0, SVG Export Plug-In . SVG Version: 6.00 Build 0)  -->
<svg version="1.1" id="Layer_1" xmlns="http://www.w3.org/2000/svg" xmlns:xlink="http://www.w3.org/1999/xlink" x="0px" y="0px"
	 viewBox="0 0 254.4 263.7" enable-background="new 0 0 254.4 263.7" xml:space="preserve">
<g>
	<rect x="-0.2" y="0.1" fill-opacity="0" width="254.4" height="263.7"/>
	<g>
		<path fill="#E2B059" d="M171.3,93.9c-10.1,29.9-9.7,75.2-9.7,75.2c6.9,4.3,7.8,28.8,7.8,28.8c23.5,6.5,31.8,4.6,31.8,4.6
			c-5.8-57.6,8.8-95.8,8.8-95.8C204.5,105.8,171.2,93.7,171.3,93.9z"/>
		<path fill="#FFFFFF" d="M200.9,154.3l-0.3,49.8c0,0-34.2,1.9-32.9-10c1.8-15.7-6.5-24.3-6.5-24.3l0.6-17.3
			C179.8,160.2,200.9,154.3,200.9,154.3z"/>
		<g>
			<path fill="#248410" d="M64.6,202.7c19.5-36.2,63.8-19.5,63.8-19.5c19.2,15.9,20,52.7,20,52.7C116.7,238.2,45.1,238.9,64.6,202.7
				z"/>
		</g>
		<g>
			<path fill="#248410" d="M134.6,185.7l1.8-21.7c29-1.4,32.6,14.8,31.3,28c-1.4,13.2,36.5,12.6,36.5,12.6c9.4,13.1,5,26.2,5,26.2
				c-8.7,4-65.2,4.7-65.2,4.7c1.4-28-15.6-52.3-15.6-52.3L134.6,185.7z"/>
		</g>
		<path fill="#DBDBDB" d="M66.6,229.9C93.5,265.2,208.3,240,208.3,240l0.8-9.2l-102.9,6L66.6,229.9z"/>
		<path fill="#C48D3D" d="M171.2,93.8l-2,7.4c5.2,18.2,34.8,25.9,34.8,25.9l6-20.4L171.2,93.8z"/>
		<g>
			<g>
				<path d="M132.4,184.7c-0.1,2.6,3.9,2.6,4.1,0.2c0.3-6,0.6-11.9,0.9-17.9c0.1-0.3,0-1.1,0.2-1.3s0.7-0.1,1-0.1
					c1.4-0.1,2.9,0,4.3,0.1c2.7,0.2,5.5,0.5,8.1,1.2c4,1,7.7,2.9,10.5,6c3,3.3,3.8,7.4,3.9,11.7c0,2.4-0.1,4.9,0.1,7.3
					c0.1,2.1,0.4,4.4,1.6,6.2c1.4,2.1,3.7,2.9,6,3.6c2.4,0.8,4.8,1.4,7.3,2c5,1.1,10,1.9,15.1,2.2c1.3,0.1,2.7,0.2,4,0.2
					c0.9,0,2-0.1,3,0.1c1.1,0.2,1.4,1.2,1.8,2.1c0.5,1,0.9,2.1,1.3,3.2c1.5,4.4,2.4,9,2.7,13.7c0.2,2.4,0.1,4.9-0.1,7.3
					c-0.1,1.1-0.2,2.3-0.4,3.4c-0.1,0.5-0.2,2-0.6,2.3c-2.1,1.5-0.1,5,2,3.5c2.3-1.7,2.5-4.7,2.8-7.4c0.3-2.9,0.4-5.9,0.3-8.8
					c-0.3-5.9-1.6-11.8-3.8-17.3c-0.9-2.3-1.8-4.8-4.4-5.7c-2.3-0.9-5.2-0.5-7.7-0.6c-5.6-0.3-11.2-1.2-16.6-2.5
					c-2.6-0.6-5.4-1.2-7.8-2.3c-2.3-1-2.5-3.3-2.6-5.5c-0.3-5.1,0.4-10.5-1.4-15.4c-3.5-9.7-13.9-13.6-23.4-14.5
					c-1.3-0.1-2.7-0.2-4.1-0.2c-1.3-0.1-2.7-0.2-3.9,0.1c-2.7,0.7-3.2,3.2-3.3,5.7C133,173.1,132.7,178.9,132.4,184.7L132.4,184.7z"
					/>
			</g>
		</g>
		<g>
			<g>
				<path d="M64.5,223.9c-2.2-1.3-4.2,2.2-2,3.5c8.4,5.1,18,7.8,27.7,9.1c8.7,1.2,17.5,1.4,26.3,1.4c9.9,0,19.7,0,29.5-0.2
					c20.2-0.4,40.4-1.5,60.4-4.8c1.1-0.2,1.7-1.5,1.4-2.5c-0.3-1.1-1.4-1.6-2.5-1.4c-11,1.8-22.1,2.9-33.2,3.6
					c-19.3,1.2-38.7,1.3-58.1,1.2C97.1,233.8,79.4,232.7,64.5,223.9L64.5,223.9z"/>
			</g>
		</g>
		<g>
			<g>
				<path d="M173.2,94.2c0.7-2.4-3.2-3.5-3.9-0.9c-1.5,5.1-2.8,10.3-3.9,15.5c-2.2,9.9-3.7,20.1-4.7,30.2
					c-0.9,9.2-1.4,18.5-1.1,27.8c0.1,2.6,4.1,2.6,4,0c-0.1-5,0-10,0.2-15C164.8,132.4,167.7,112.8,173.2,94.2L173.2,94.2z"/>
			</g>
		</g>
		<g>
			<g>
				<path d="M211.8,107.7c0.4-1,0.3-2.2-0.5-2.8c-0.8-0.5-2.3-0.3-2.7,0.7c-2.4,5.7-4.2,11.7-5.5,17.7c-1.6,7-2.3,14.2-3.1,21.3
					c-0.9,7.6-1.4,15.3-1.7,23s-0.3,15.4-0.1,23.1c0.1,3.8,0.2,7.7,0.6,11.5c0.1,1.6,1.4,3.2,3.2,2.7s1.9-2.6,0.9-3.9
					c-0.4-0.6-1.2-0.6-1.9-0.5c-0.1,0-0.1,0-0.2,0c-1.1,0.2-1.7,1.6-1.4,2.5c0.4,1.1,1.4,1.6,2.5,1.4c0.1,0,0.1,0,0.2,0
					c-0.6-0.2-1.3-0.3-1.9-0.5l0.1,0.1c-0.2-0.5-0.4-0.9-0.6-1.4c0-0.1,0-0.1,0-0.2c0.2-0.3,0.3-0.6,0.5-0.9l-0.1,0.1
					c0.3-0.2,0.6-0.3,0.9-0.5c-0.1,0-0.1,0-0.2,0c0.5,0.1,1,0.1,1.5,0.2c0.4,0.9,0.5,0.9,0.4,0.2c-0.1-0.3-0.1-0.7-0.1-1
					c-0.1-0.3-0.1-0.7-0.1-1c-0.1-0.9-0.2-1.9-0.2-2.9c-0.1-2-0.1-3.9-0.2-5.9c-0.1-3.8-0.2-7.5-0.2-11.3c0-13.7,0.9-27.5,2.6-41.1
					C205.8,127.9,207.7,117.4,211.8,107.7L211.8,107.7z"/>
			</g>
		</g>
		<g>
			<g>
				<path d="M201.5,154.7c0.6-0.9,0.8-2,0-2.8c-0.7-0.7-2.1-0.9-2.8,0c-2,2.5-5,3.2-8,3.4c-3.4,0.3-6.8,0.4-10.1,0.2
					c-5.6-0.3-12.9-1.9-16-7.1c-1.4-2.2-4.8-0.2-3.5,2c3.8,6.3,12.1,8.5,19,9c4,0.2,8.1,0.2,12-0.3
					C195.7,158.7,199.2,157.6,201.5,154.7L201.5,154.7z"/>
			</g>
		</g>
		<path fill="#204A9E" d="M242.4,42c2.6-18.8-11.1-26.6-23-30.2C201.6,6.4,174,15.1,164.2,36c-16.3,34.5-39,138.1-39,138.1
			c40.5,42.8,89.7,35.9,89.7,35.9C214.5,175.3,235.2,93.7,242.4,42z"/>
		<path fill="#123875" d="M222,13.4C192-1,166.4,33.5,166.4,33.5c13.3,36.3,70.1,52.8,70.1,52.8C240,54.8,252,27.8,222,13.4z"/>
		<path fill="#DBDBDB" d="M153.1,199.7c-3.2-8.7-24.7-16.5-24.7-16.5c11.8,14.6,15.8,36.8,15.8,36.8l14.4-1.6
			C158.6,218.4,156.2,208.4,153.1,199.7z"/>
		<g>
			<g>
				<path d="M153.2,195.3c-1.1-2.3-4.5-0.3-3.6,1.9c3.3,6.9,5.6,14.1,6.9,21.6c0.6-0.8,1.3-1.7,1.9-2.5c-5-0.6-10.1,0-14.9,1.7
					c0.9,0.5,1.7,0.9,2.5,1.4c-2.4-14.3-9.2-27.7-19-38.3c-1.7-1.9-4.5,0.9-2.8,2.8c9.4,10.2,15.7,23,18,36.6c0.2,1,1.6,1.7,2.5,1.4
					c4.5-1.6,9.2-2.2,13.9-1.6c1.4,0.2,2.1-1.4,1.9-2.5C159.1,210,156.6,202.5,153.2,195.3L153.2,195.3z"/>
			</g>
		</g>
		<g>
			<g>
				<path d="M208.7,242c2.5-0.7,1.5-4.5-1.2-3.8c-2.3,0.6-4.6,1.1-6.9,1.6c-18.8,4.1-38.1,6.1-57.4,6.5c-9.7,0.2-19.4-0.1-29.1-0.7
					c-8.2-0.5-16.4-1.2-24.4-3.2c-7.1-1.8-14.2-4.9-19.3-10.4c-5.1-5.6-7-13-6.2-20.4c0.9-7.6,4.6-14.8,10.1-19.9
					c6-5.5,13.7-8.7,21.6-10.1c18.3-3.2,36.4,4.2,52,13.1c2.2,1.2,4.2-2.2,2-3.5c-2.1-1.2-4.3-2.4-6.5-3.5
					c-16.8-8.6-36.2-14.2-54.8-8.5c-8.1,2.5-15.8,7.1-21,13.9c-4.9,6.4-7.7,14.6-7.5,22.7c0.3,8.1,3.7,15.7,9.8,21.1
					c6.1,5.3,13.8,8.2,21.6,9.9c8.8,1.9,17.9,2.5,26.8,3c10.1,0.6,20.2,0.7,30.3,0.3C168.8,249.4,189.1,246.9,208.7,242L208.7,242z"
					/>
			</g>
		</g>
		<path fill="#3369C1" d="M204.7,192.7c-41.7-4.3-66.7-26.5-72.6-29.8c-5.9-3.4-5.2,3.9-7.7,11.1c-1.2,3.5,20.9,15.7,20.9,15.7
			c34,26.6,69.6,20.3,69.6,20.3l0.7-17L204.7,192.7z"/>
		<g>
			<g>
				<path d="M130,159.1c-2.2-1.5-4.2,2-2.1,3.5c5.7,3.9,11.6,7.6,17.7,11c21.7,12.1,45.7,20.8,70.7,21.3c2.6,0.1,2.6-3.9,0-4
					c-6.8-0.1-13.6-0.9-20.3-2.2C172.1,184,150,172.7,130,159.1L130,159.1z"/>
			</g>
		</g>
		<g>
			<g>
				<path d="M212.9,210c-0.2,2.6,3.8,2.6,3.8,0c0.5-6.2,1.1-12.4,1.7-18.6c2.3-22.3,5.8-44.5,10.2-66.5c3-14.8,6.4-29.4,10-44
					c0.9-3.5,1.9-7,2.6-10.6c0.7-3.3,1.2-6.7,1.7-10c0.8-5,1.5-10,1.6-15.1c0.1-4.8-0.3-9.8-1.4-14.5c-1-4-3-7.8-6.1-10.6
					c-4.1-3.7-8.9-6.7-14-8.9c-5-2.2-10.3-4-15.8-4.6c-4.9-0.6-10,0.4-14.5,1.9c-4.8,1.6-9.4,3.9-13.5,7c-3.7,2.8-6.8,6.3-9.7,9.9
					c-3,3.8-6,7.8-8.2,12.1c-3.1,6-5.4,12.5-7.1,18.9c-2.6,7.6-4.9,15.3-7,23c-4.5,16.2-8.4,32.7-12.2,49.1
					c-2.8,12.1-5.3,24.3-8.6,36.2c-0.4,1.5-0.9,3-1.4,4.4c-0.1,0.1-0.1,0.3-0.2,0.4c-0.2,0.5,0.1-0.3,0-0.1
					c-0.3,0.6-0.6,1.1-0.8,1.7c-0.6,1.4-0.8,2.9-0.1,4.3c0.6,1.2,1.6,2.1,2.6,3c7.9,7.4,16.7,14,26.1,19.4
					c18.6,10.8,40.6,17.6,62.2,14c1.1-0.2,1.7-1.5,1.4-2.5c-0.3-1.1-1.4-1.6-2.5-1.4c-4.9,0.8-9.8,1.1-14.7,0.8
					c-21.1-1.1-41.3-10.9-58.1-23.4c-4.2-3.1-8.1-6.5-11.9-10c-0.9-0.9-1.9-1.5-1.4-2.8c0.1-0.4,0.3-0.8,0.5-1.2
					c0.2-0.6,0.5-1.3,0.7-1.9c1.3-3.9,2.2-7.8,3.2-11.7c3.3-13.6,6.3-27.3,9.5-40.9c3.8-16.1,7.8-32.2,12.6-48.1
					c2.1-6.9,4.4-13.8,7-20.6c1.1-2.8,2.2-5.4,3.6-8.2c2.1-4.1,4.8-7.9,7.6-11.5c2.7-3.4,5.6-6.8,9.1-9.5c3.8-2.9,8.3-5.2,12.9-6.7
					c4.4-1.5,9.2-2.5,13.8-1.7c5.3,0.9,10.5,2.6,15.4,5c4.4,2.2,9,5,12.3,8.7c2.6,2.9,3.6,6.8,4.2,10.6c1.4,9.5,0,19.1-1.5,28.5
					c-1.5,9.1-4,17.9-6.1,26.8c-4,16.7-7.6,33.4-10.6,50.3C217.7,163.5,214.6,186.7,212.9,210L212.9,210z"/>
			</g>
		</g>
	</g>
</g>
</svg>
