<?xml version="1.0" encoding="utf-8"?>
<!-- Generator: Adobe Illustrator 25.0.0, SVG Export Plug-In . SVG Version: 6.00 Build 0)  -->
<svg version="1.1" id="Layer_1" xmlns="http://www.w3.org/2000/svg" xmlns:xlink="http://www.w3.org/1999/xlink" x="0px" y="0px"
	 viewBox="0 0 246.8 360.6" enable-background="new 0 0 246.8 360.6" xml:space="preserve">
<g id="tweaks_xA0_Image_1_" display="none">
</g>
<g id="Layer_7" display="none">
</g>
<g id="Layer_3">
</g>
<g id="Layer_5">
</g>
<g id="Layer_4">
</g>
<g>
	<g>
		<path fill="#E2B059" d="M82,160.6c-1.9-12.9-0.7-29.5-0.1-37.1c0.5-7.6-3.2-36.7-3.2-36.7c18.4-32,0.5-38.4,0.5-38.4
			C55.2,46.1,56.6,78,56.6,78s-4.5-3.4-22.2,0.5c-17.7,4.1-10.1,19.9-10.1,19.9C14,112.9,22.2,119,22.2,119
			c0.6,22.1,23.8,23.3,23.8,23.3l2.2,23.7c16.8,86.7,103.3,73.8,103.3,73.8c-15.6-14.5-13.3-34.8-13.3-34.8
			c-50.8,2-55.8-44.4-55.8-44.4"/>
		<path fill="#C48D3D" d="M57.3,82.2c4.4,14.3,0.6,2.9-3,19.9s9.2,30.4,9.2,30.4c1.9,12.4-16.2,9.8-16.2,9.8
			c7.2-7.2-2.6-15.1-2.6-15.1c7.1-2.4,0-19.1,0-19.1c7.4-3.6,1.3-19.4,1.3-19.4c8.9-1.1,2.8-10.3,2.8-10.3S54.4,73,57.3,82.2z"/>
		<path fill="#FFFFFF" d="M232,206.7c-8.2,33-69.6,43-69.6,43C129.5,230.2,141,188,141,188s45.1-8.6,54.5-11.6
			c9.4-2.9,26.8,5.8,26.8,5.8C236.3,190.5,232,206.7,232,206.7z"/>
		<path fill="#DBDBDB" d="M189.6,242.5c-25.2,10.6-29.3,6.1-29.3,6.1s-19.3-10-20.7-39.4c0,0,32.5,41.6,86.9-23.7
			C244.6,222.6,214.7,231.9,189.6,242.5z"/>
		<path fill="#C48D3D" d="M136.9,205.3c3.1,21.7,13.3,34.3,13.3,34.3l-15.3-1.7c-7.3-12.2-5.8-32.9-5.8-32.9L136.9,205.3z"/>
		<g>
			<g>
				<path d="M82,162.7c2.6,0,2.6-4,0-4S79.4,162.7,82,162.7L82,162.7z"/>
			</g>
		</g>
		<g>
			<g>
				<path d="M150.2,241.6c2.6-0.1,2.6-4.1-0.2-4c-13.9,0.5-28.1,0.4-41.7-3.3c-8.8-2.4-16.9-6.4-24.1-12c-7-5.4-13.1-12-18.1-19.2
					c-12-17.2-18.2-37.9-18.2-58.8c0-2.6-4-2.6-4,0c0,12.6,2.2,25.2,6.5,37.1c6.6,18.2,18.3,34.8,34.1,46.1
					c8.2,5.8,17.4,9.6,27.1,11.7C124.3,241.9,137.3,242,150.2,241.6L150.2,241.6z"/>
			</g>
		</g>
		<g>
			<g>
				<path d="M136.9,207.3c2.6,0,2.6-4,0.2-4c-8.7-0.2-17.4-1.1-25.5-4.3c-6.4-2.5-11.6-6.5-15.7-11.9c-4-5.2-7-11.2-9.2-17.4
					c-3.5-10-4.8-20.6-4.1-31.2c0.2-2.6-3.8-2.6-4,0c-0.5,7.4-0.1,14.9,1.4,22.1c2.4,11.4,7.1,22.9,14.9,31.7
					C105.4,204.2,121.7,207,136.9,207.3L136.9,207.3z"/>
			</g>
		</g>
		<g>
			<g>
				<path d="M229,192.8c0.4,1,1.3,1.7,2.4,1.6c0.9-0.3,1.8-1.5,1.4-2.5c-0.8-1.8-1.7-3.6-2.9-5.2c-4.4-6-11.4-8.7-18.3-10.9
					c-4.9-1.6-10.1-2.4-15.2-1.5c-4.8,0.8-9.4,2.9-14.1,4.2c-9.8,2.7-19.9,4.3-30,5.6c-2.5,0.3-5,0.6-7.5,0.9
					c-2.3,0.3-4.6,0.5-6.1,2.5c-1.3,1.7-1.4,4.1-1.6,6.2c-0.3,2.5-0.4,5.1-0.5,7.6c-0.2,9.7,1.3,19.5,5.2,28.5c1.8,4,4,7.7,6.7,11.1
					c2.7,3.4,6,6.8,9.8,8.9c1.9,1.1,4.1,1.8,6.3,1.9c2.5,0.1,4.9-0.7,7.2-1.4c5-1.6,9.9-3.2,14.8-4.8c8.7-2.8,17.4-5.8,25.3-10.4
					c7.5-4.4,14.1-10.4,18.3-18.1c4-7.3,5.7-15.9,3.3-24c-0.8-2.4-4.6-1.4-3.9,1.1c0.6,1.8,0.9,3.6,1,5.4c0.3,7.5-2.7,14.8-7.2,20.7
					c-5,6.4-11.9,10.9-19.2,14.4c-7.8,3.7-16.1,6.2-24.3,8.8c-2.4,0.8-4.7,1.5-7.1,2.3c-2.2,0.7-4.4,1.6-6.7,1.9
					c-4,0.4-7.5-2.1-10.3-4.7c-13-12.1-16.3-30.6-14.8-47.6c0.1-1.1,0.2-2.3,0.4-3.5c0.1-0.7,0.2-1.6,0.7-2.1
					c0.5-0.6,1.6-0.6,2.3-0.7c1.1-0.1,2.2-0.3,3.3-0.4c4.7-0.6,9.5-1.2,14.2-1.9c9.3-1.4,18.5-3.3,27.4-6.3
					c4.4-1.5,8.6-2.9,13.3-2.6c4.1,0.3,8.1,1.6,12,3C220.8,183,226.3,186.5,229,192.8L229,192.8z"/>
			</g>
		</g>
		<g>
			<g>
				<path d="M78.5,138.4c-0.2,2.6,3.8,2.6,4,0.1c0.5-6.6,1.4-13.1,1.7-19.7c0.1-3.3,0-6.5-0.6-9.7c-0.5-3.1-1.5-6.2-2-9.3
					c-0.9-5.3-0.7-10.8,0.4-16c1.1-5.3,3.5-9.9,5.6-14.8c2-4.8,3.3-10.1,1.1-15c-1.8-4-5.7-6.8-9.9-7.8c-10-2.3-18.7,5.4-22.1,14.2
					c-3.8,10-2.7,22,1.3,31.8c0.5,1,1.4,1.7,2.5,1.4c1-0.3,1.8-1.5,1.4-2.5c-2.2-5.3-3.4-11-3.4-16.8c0-5.3,0.8-10.8,3.4-15.5
					c3.9-7,13-12.2,20.3-6.8c8.4,6.2,0.6,17.3-2.1,24.4c-1.8,4.7-2.8,9.7-3,14.8c-0.2,5.2,0.7,10.1,1.9,15.1c0.7,2.7,1.2,5.3,1.3,8
					c0.1,2.7-0.1,5.3-0.3,8C79.6,127.7,78.9,133,78.5,138.4L78.5,138.4z"/>
			</g>
		</g>
		<g>
			<g>
				<path d="M62.2,93.8c1.9-1.7-0.9-4.5-2.9-2.8c-3,2.6-5.2,6-6.6,9.7c-0.7,2-1.1,4.2-1.5,6.3c-0.4,2.1-0.8,4.2-0.6,6.4
					c0.3,3.3,1.7,6.4,3.3,9.3s3.4,5.6,5.4,8.1c0.7,0.8,2.1,0.7,2.8,0c0.8-0.8,0.7-2,0-2.8c-1.7-2.2-3.3-4.6-4.6-7.1
					c-1.3-2.3-2.6-4.9-2.9-7.5c-0.2-1.9,0.2-3.8,0.5-5.6c0.4-2,0.7-4,1.4-5.9C57.7,98.7,59.7,96,62.2,93.8L62.2,93.8z"/>
			</g>
		</g>
		<g>
			<g>
				<path d="M55.3,80c2.5,0.7,3.5-3.2,1.1-3.8c-6.4-1.8-13-1.9-19.4-0.4c-5.1,1.2-10.9,3.3-14,7.8c-2.8,4.1-3.1,9.7-1.2,14.2
					c4.5,10.9,17.2,13.7,27.8,13.8c2.6,0,2.6-4,0-4c-5.6-0.1-11.5-0.6-16.5-3.3c-3.6-2-6.9-5.1-8.1-9.1c-1.1-3.7-0.5-8.1,2.4-10.8
					c1.7-1.6,4-2.6,6.1-3.4c2.4-0.9,4.8-1.5,7.3-1.9C45.6,78.4,50.6,78.7,55.3,80L55.3,80z"/>
			</g>
		</g>
		<g>
			<g>
				<path d="M43.2,86.8c-1.1-0.2-2.2,0.3-2.4,1.3c-0.3,1,0.3,2.3,1.4,2.5c4.8,0.9,9.6,2.2,14.1,4.2c1,0.4,2.1,0.3,2.7-0.7
					c0.5-0.8,0.3-2.3-0.7-2.7C53.4,89.3,48.4,87.7,43.2,86.8L43.2,86.8z"/>
			</g>
		</g>
		<g>
			<g>
				<path d="M25.3,101.2c1.4-2.2-2.1-4.2-3.5-2c-1.5,2.2-3.2,4.2-4.2,6.7s-1.3,5.3-0.8,8c0.9,4.9,5.3,8,9.5,10.2
					c4.4,2.3,9.3,3.7,14.2,4.6c2.7,0.5,5.3,0.6,8,0.3c2.1-0.2,4.2-0.6,5.8-2.2c2.1-2,2.5-5.2,1.9-8c-0.6-2.5-4.4-1.4-3.9,1.1
					c0,0.1,0.1,0.3,0.1,0.4c0,0,0-0.3,0-0.1c0,0.3,0,0.5,0,0.8c0.1,0.6,0,0.9-0.1,1.4c-0.2,1-0.7,1.8-1.8,2.2
					c-1.8,0.8-4.3,0.7-6.2,0.6c-2-0.1-4-0.5-6-1c-4.1-1-8-2.4-11.6-4.5c-3.4-1.9-6.2-4.4-6.1-8.6C20.7,107,23.2,104.4,25.3,101.2
					L25.3,101.2z"/>
			</g>
		</g>
		<g>
			<g>
				<path d="M25.1,122.6c0.2-2.5-3.8-2.5-4.1-0.1c-0.2,2.9-0.2,5.8,0.9,8.5c1,2.4,2.8,4.4,4.8,6.1c3.6,3,8,5.1,12.6,6.2
					c4.4,1.1,9.7,1.6,14-0.3c4.1-1.7,6.2-6.1,5.9-10.4c-0.2-1.9-0.7-3.8-1.1-5.7c-0.4-1.9-1.3-3.4-2.6-4.8c-1.7-1.9-4.5,0.9-2.8,2.8
					c1.1,1.2,1.5,2.4,1.8,3.9c0.4,1.8,0.9,3.5,0.8,5.3c-0.5,8.3-11.8,6.5-17.2,4.8c-3.6-1.1-7.1-3.1-9.8-5.7
					c-1.2-1.2-2.3-2.6-2.8-4.3C24.8,126.8,25,124.7,25.1,122.6L25.1,122.6z"/>
			</g>
		</g>
	</g>
	<rect x="-0.2" y="0.1" fill-opacity="0" width="247" height="360.5"/>
</g>
</svg>
