<?xml version="1.0" encoding="utf-8"?>
<!-- Generator: Adobe Illustrator 25.0.0, SVG Export Plug-In . SVG Version: 6.00 Build 0)  -->
<svg version="1.1" id="Layer_1" xmlns="http://www.w3.org/2000/svg" xmlns:xlink="http://www.w3.org/1999/xlink" x="0px" y="0px"
	 viewBox="0 0 284.1 205" enable-background="new 0 0 284.1 205" xml:space="preserve">
<g>
	<g>
		<g>
			<g>
				<path fill="#381B0F" d="M42.7,126.2c0,0-27.4-34.5-28.1-44c0,0,34-14.5,66.5-23.4c0,0-1.1-24.4,19.7-43.4
					c0,0,71.8-14.2,83.6-2.2c11.8,12,16.4,42.4,16.4,42.4S255.6,75,277,77.1l1.4,3.7l-14.5,44.5c0,0-81.6-15.8-102.5-15.8
					C144.2,109.6,114.4,102.1,42.7,126.2z"/>
			</g>
		</g>
		<g>
			<path fill="#F2D31D" d="M14.6,82.2c0,0,29.2-11.8,54.2-20.5s60.1-24.8,75.1-22.7s30.5,8,74.1,23.3s59,14.8,59,14.8
				s3.7-0.9,1.4-5.3c0,0-63.9-16.3-86.8-29.4s-53.5-15.7-64.9-11s-54,23.3-68.1,26C44.5,60.1,11.9,77,11.9,77L14.6,82.2z"/>
		</g>
		<g>
			<g>
				<g>
					<g>
						<path d="M10.2,78c6.3,14,12.8,27.9,22.3,40c2.7,3.4,5.6,6.6,8.7,9.6c1.9,1.8,4.7-1.1,2.8-2.8c-11-10.3-18.6-23.6-25-37.1
							c-1.9-3.9-3.6-7.8-5.4-11.7c-0.4-1-1.9-1.2-2.7-0.7C9.9,75.9,9.8,77,10.2,78L10.2,78z"/>
					</g>
				</g>
			</g>
			<g>
				<g>
					<g>
						<path d="M43.4,129.1c14.3-4.3,28.5-9,42.9-12.7c14.2-3.6,28.8-5.1,43.4-5.3c14.7-0.2,29.4,0.7,44.1,1.7c7.3,0.5,14.7,1,22,2.1
							c7.1,1,14.2,2.6,21.2,4.2c15.5,3.6,31,7.7,46.9,8.2c2.6,0.1,2.6-3.9,0-4c-14.4-0.4-28.3-3.9-42.2-7.2
							c-6.8-1.6-13.7-3.2-20.6-4.4c-7.4-1.3-14.9-2-22.4-2.5c-29.1-2.1-59-4.2-87.8,2.1c-8,1.8-15.9,4.2-23.8,6.5
							c-8.3,2.5-16.5,5-24.8,7.5C39.8,126,40.9,129.9,43.4,129.1L43.4,129.1z"/>
					</g>
				</g>
			</g>
			<g>
				<g>
					<g>
						<path d="M265.6,126.9c2.1-3.7,3.4-7.7,4.6-11.7c1.3-4.4,2.5-8.7,3.7-13.1c2.5-8.9,5.1-17.8,7.6-26.7c0.7-2.5-3.2-3.5-3.9-1.1
							c-2.5,8.8-5,17.5-7.5,26.3c-1.2,4.2-2.4,8.5-3.6,12.7c-1.2,4-2.4,7.9-4.5,11.6C260.8,127.1,264.3,129.1,265.6,126.9
							L265.6,126.9z"/>
					</g>
				</g>
			</g>
			<g>
				<g>
					<g>
						<path d="M11.9,79.2c14.5-9.5,31-14.9,47.4-20c8.2-2.5,16.5-5,24.6-7.9c8.4-3,16.5-6.7,24.5-10.5c8.3-4,16.7-7.6,25.9-9
							c9.3-1.4,18.9-0.5,28,1.6c18.8,4.2,36,13.2,53.7,20.4c17.9,7.2,36.3,13.3,55,18.2c2.3,0.6,4.6,1.2,6.9,1.7
							c2.5,0.6,3.6-3.2,1.1-3.9c-18.9-4.6-37.5-10.5-55.7-17.5c-18.1-7-35.5-16.2-54.3-21.4c-9.2-2.5-18.7-4-28.3-3.7
							c-9.5,0.4-18.4,3-27,6.8c-8.3,3.6-16.3,7.9-24.8,11.2C80.7,48.4,72.4,51,64,53.6c-16.5,5.1-33.3,10.1-48.5,18.7
							c-1.9,1.1-3.8,2.2-5.6,3.4C7.8,77.2,9.8,80.7,11.9,79.2L11.9,79.2z"/>
					</g>
				</g>
			</g>
			<g>
				<g>
					<g>
						<path d="M82.9,48.9c2.2-4.8,4.3-9.6,6.5-14.4c2.1-4.5,4.3-9.1,7.4-13c1.5-1.8,3.1-3.4,5.2-4.5c2-1.1,4.2-1.6,6.4-2.1
							c5.2-1,10.5-1.6,15.7-2.1c10.8-1.1,21.6-1.7,32.4-2c5.4-0.2,10.8-0.4,16.1-0.5c2.3,0,4.6,0.2,6.7,1.4c1.7,0.9,3.1,2.3,4.3,3.8
							c3.3,4,5.5,9,7.6,13.6c2.4,5.2,4.3,10.7,5.8,16.2c0.7,2.5,4.6,1.4,3.9-1.1c-1.5-5.2-3.3-10.3-5.4-15.3
							c-2-4.6-4.1-9.3-6.9-13.5c-2.5-3.7-5.7-7.1-10.1-8.5c-2.5-0.8-5.2-0.7-7.7-0.7c-3,0.1-5.9,0.2-8.9,0.2
							c-11.4,0.3-22.8,0.8-34.2,1.9c-5.7,0.5-11.4,1.2-17.1,2.1c-4.8,0.7-9.7,1.8-13.6,5c-4.5,3.6-7.5,9.2-10,14.3
							c-2.7,5.6-5.2,11.4-7.7,17.1c-0.4,1-0.3,2.2,0.7,2.7C81,50.1,82.4,49.8,82.9,48.9L82.9,48.9z"/>
					</g>
				</g>
			</g>
			<g>
				<g>
					<g>
						<path d="M277.5,75.2c-18.2-3.6-36.3-8.3-54-13.9c-8.8-2.8-17.6-5.9-26.2-9.2c-8.6-3.3-17.1-6.7-25.8-9.6
							c-8.5-2.8-17.2-4.9-26.2-5.5s-17.9,0.8-26.3,3.9c-8.3,3.1-16.3,7-24.7,10c-8.3,3-16.6,5.7-25,8.4C52.5,64.8,35.6,70,19.6,77.5
							c-2,0.9-4,1.9-6,2.9c-2.3,1.2-0.3,4.6,2,3.5c15.6-8,32.2-13.4,48.8-18.7c8.3-2.6,16.6-5.3,24.9-8.1c8.3-2.9,16.4-6.2,24.5-9.7
							c8.2-3.5,16.4-6.2,25.4-6.4c8.9-0.2,17.6,1.4,26.1,3.9c8.7,2.5,17.1,5.8,25.4,9c8.5,3.3,17.1,6.5,25.8,9.3
							c17.4,5.8,35.2,10.6,53.1,14.4c2.3,0.5,4.6,1,6.9,1.4C279,79.5,280.1,75.7,277.5,75.2L277.5,75.2z"/>
					</g>
				</g>
			</g>
		</g>
		<g id="layer1_3_" transform="translate(-6.3260942,-174.7524)">
			<g id="g3052_3_">
				<g id="path3055_7_">
					<g>
						<path fill="#406DDC" d="M137.4,276.2c-1.4,0-2.8-0.6-3.6-1.7L120.4,258c-0.1-0.1-0.2-0.2-0.3-0.4c-0.7-1-0.9-2.3-0.6-3.6
							l4.7-20.6c0.3-1.4,1.2-2.5,2.5-3.1l19.2-9.2c0.6-0.3,1.2-0.4,1.8-0.5c0.1,0,0.2,0,0.2,0c0.7,0,1.4,0.2,2,0.5l19.2,9.2
							c1.3,0.6,2.2,1.8,2.5,3.1l4.7,20.6c0.3,1.4,0,2.8-0.9,3.9l-13.3,16.5c-0.9,1.1-2.2,1.7-3.6,1.7L137.4,276.2L137.4,276.2z"/>
					</g>
					<g>
						<path fill="#FFFFFF" d="M148,221.7c0.6,0,1.1,0.1,1.6,0.4l19.2,9.2c1,0.5,1.7,1.4,2,2.5l4.7,20.6c0.2,1.1,0,2.2-0.7,3.1
							L161.5,274c-0.7,0.9-1.8,1.4-2.9,1.4l0,0h-21.3l0,0c-1.1,0-2.2-0.5-2.9-1.4l-13.3-16.5c-0.1-0.1-0.1-0.2-0.2-0.3
							c-0.5-0.8-0.7-1.8-0.5-2.8l4.7-20.6c0.2-1.1,1-2,2-2.5l19.2-9.2c0.4-0.2,0.9-0.3,1.4-0.4C147.9,221.7,148,221.7,148,221.7
							 M148,219.7c-0.1,0-0.2,0-0.3,0c-0.8,0-1.5,0.2-2.2,0.5l-19.2,9.2c-1.6,0.7-2.7,2.1-3.1,3.8l-4.7,20.6
							c-0.3,1.5-0.1,3.1,0.8,4.3c0.1,0.1,0.2,0.3,0.3,0.4l13.3,16.5c1.1,1.3,2.7,2.1,4.4,2.1h21.3c1.7,0,3.3-0.8,4.4-2.1l13.3-16.5
							c1.1-1.4,1.5-3.1,1.1-4.8l-4.7-20.6c-0.4-1.7-1.5-3.1-3.1-3.8l-19.2-9.2C149.7,219.9,148.9,219.7,148,219.7L148,219.7z"/>
					</g>
				</g>
				<g id="path3059_3_">
					<path fill="#FFFFFF" d="M148,228.7c-0.6,0-1.1,0.6-1.1,1.3l0,0c0,0.1,0,0.2,0,0.3c0,0.4,0.1,0.7,0.2,1.1
						c0.1,0.8,0.2,1.5,0.1,2.1c0,0.2-0.2,0.4-0.4,0.6v0.5c-0.7,0.1-1.4,0.2-2.1,0.3c-3,0.7-5.5,2.2-7.5,4.3
						c-0.1-0.1-0.3-0.2-0.4-0.3c-0.2,0-0.4,0.1-0.7-0.1c-0.5-0.3-1-0.8-1.5-1.4c-0.3-0.3-0.4-0.5-0.8-0.8c-0.1-0.1-0.2-0.1-0.3-0.2
						c-0.2-0.2-0.5-0.3-0.8-0.3c-0.4,0-0.7,0.1-0.9,0.4c-0.4,0.5-0.3,1.3,0.3,1.7l0,0c0.1,0.1,0.2,0.1,0.2,0.2
						c0.3,0.2,0.6,0.4,1,0.6c0.7,0.4,1.3,0.8,1.7,1.2c0.2,0.2,0.2,0.5,0.2,0.7l0.4,0.3c-2,3-2.9,6.6-2.3,10.4l-0.5,0.1
						c-0.1,0.2-0.3,0.4-0.5,0.5c-0.6,0.2-1.3,0.3-2.1,0.3c-0.4,0-0.7,0-1.1,0.1c-0.1,0-0.2,0-0.3,0.1l0,0l0,0
						c-0.7,0.2-1.1,0.8-1,1.4c0.1,0.6,0.8,1,1.5,0.8l0,0l0,0c0.1,0,0.2,0,0.3-0.1c0.4-0.1,0.7-0.3,1-0.4c0.8-0.3,1.4-0.5,2-0.6
						c0.3,0,0.5,0.2,0.7,0.2l0.5-0.1c1.2,3.6,3.6,6.5,6.6,8.3l-0.2,0.5c0.1,0.2,0.2,0.5,0.1,0.6c-0.2,0.6-0.6,1.2-1,1.9
						c-0.2,0.3-0.4,0.6-0.6,0.9c0,0.1-0.1,0.2-0.1,0.3c-0.3,0.6-0.1,1.4,0.5,1.6c0.6,0.3,1.3,0,1.6-0.6l0,0l0,0
						c0-0.1,0.1-0.2,0.1-0.3c0.2-0.4,0.2-0.7,0.3-1.1c0.3-0.8,0.5-1.6,0.9-2.1c0.1-0.1,0.3-0.2,0.5-0.2l0.3-0.5
						c2.7,1,5.6,1.3,8.6,0.6c0.7-0.2,1.3-0.4,2-0.6c0.1,0.1,0.2,0.4,0.2,0.4c0.2,0.1,0.4,0.1,0.6,0.4c0.3,0.5,0.5,1.2,0.8,1.9
						c0.1,0.4,0.2,0.7,0.3,1.1c0,0.1,0.1,0.2,0.1,0.3c0.3,0.6,1,0.9,1.6,0.7c0.6-0.3,0.8-1,0.5-1.6c0-0.1-0.1-0.2-0.1-0.3
						c-0.2-0.4-0.4-0.6-0.6-0.9c-0.4-0.7-0.8-1.2-1-1.8c-0.1-0.3,0-0.5,0.1-0.7c0,0-0.1-0.3-0.2-0.5c3.2-1.9,5.5-4.9,6.6-8.3
						c0.1,0,0.4,0.1,0.5,0.1c0.2-0.1,0.3-0.3,0.6-0.2c0.6,0.1,1.2,0.3,2,0.6c0.4,0.1,0.6,0.3,1,0.4c0.1,0,0.2,0,0.3,0.1l0,0l0,0
						c0.7,0.1,1.3-0.2,1.5-0.8c0.1-0.6-0.3-1.2-1-1.4c-0.1,0-0.2-0.1-0.3-0.1c-0.4-0.1-0.7-0.1-1.1-0.1c-0.8-0.1-1.5-0.2-2.1-0.3
						c-0.2-0.1-0.4-0.4-0.5-0.5l-0.5-0.1c0.2-1.7,0.2-3.6-0.2-5.4c-0.4-1.8-1.2-3.5-2.2-5c0.1-0.1,0.3-0.3,0.4-0.4
						c0-0.2,0-0.4,0.2-0.7c0.5-0.4,1-0.8,1.7-1.2c0.3-0.2,0.6-0.3,1-0.6c0.1-0.1,0.2-0.1,0.3-0.2c0.6-0.4,0.7-1.2,0.3-1.7
						s-1.2-0.5-1.7-0.1c-0.1,0.1-0.2,0.1-0.3,0.2c-0.3,0.3-0.5,0.5-0.8,0.8c-0.6,0.6-1,1.1-1.5,1.4c-0.2,0.1-0.5,0.1-0.7,0.1
						l-0.4,0.3c-2.5-2.6-5.9-4.3-9.5-4.6c0-0.2,0-0.4,0-0.5c-0.1-0.1-0.3-0.3-0.4-0.6c0-0.6,0-1.3,0.1-2.1c0.1-0.4,0.1-0.7,0.2-1.1
						c0-0.1,0-0.2,0-0.3C149.2,229.3,148.7,228.7,148,228.7L148,228.7z M146.6,237.6l-0.3,6l0,0c0,0.5-0.5,1-1,1
						c-0.2,0-0.4-0.1-0.6-0.2l0,0l-4.9-3.5c1.5-1.5,3.5-2.6,5.7-3.1C145.8,237.7,146.2,237.7,146.6,237.6z M149.5,237.6
						c2.6,0.3,5,1.5,6.9,3.3l-4.9,3.5l0,0c-0.4,0.3-1,0.2-1.4-0.2c-0.1-0.2-0.2-0.4-0.2-0.6l0,0L149.5,237.6z M137.9,243.2l4.5,4
						l0,0c0.4,0.4,0.5,1,0.1,1.4c-0.1,0.2-0.3,0.3-0.5,0.3l0,0l-5.8,1.7C135.9,248,136.5,245.4,137.9,243.2z M158.1,243.2
						c0.7,1.1,1.2,2.3,1.5,3.6s0.4,2.6,0.3,3.9l-5.8-1.7l0,0c-0.5-0.1-0.8-0.7-0.7-1.2c0-0.2,0.2-0.4,0.3-0.5l0,0L158.1,243.2
						L158.1,243.2z M147.1,247.5h1.8l1.1,1.4l-0.4,1.8l-1.7,0.8l-1.7-0.8l-0.4-1.8L147.1,247.5z M153,252.4c0.1,0,0.2,0,0.2,0l0,0
						l6,1c-0.9,2.5-2.5,4.6-4.8,6l-2.3-5.6l0,0c-0.2-0.5,0-1.1,0.5-1.3C152.8,252.5,152.9,252.5,153,252.4L153,252.4z M143,252.5
						c0.5,0,0.9,0.3,1,0.8c0,0.2,0,0.4-0.1,0.6l0,0l-2.3,5.6c-2.1-1.4-3.9-3.4-4.8-6l5.9-1l0,0C142.8,252.5,142.9,252.5,143,252.5
						L143,252.5z M148,254.9c0.2,0,0.3,0,0.5,0.1s0.4,0.2,0.5,0.4l0,0l2.9,5.3c-0.4,0.1-0.8,0.2-1.2,0.3c-2.2,0.5-4.5,0.4-6.5-0.3
						l2.9-5.3l0,0C147.3,255.1,147.6,254.9,148,254.9z"/>
					<path fill="#FFFFFF" d="M139.6,268.2c-0.2,0-0.4,0-0.6-0.1c-0.3-0.1-0.5-0.3-0.6-0.6c-0.1-0.4-0.1-0.8,0-1.1
						c0-0.1,0-0.1,0.1-0.2v-0.1l0,0l0.6-0.9c0.1-0.2,0.2-0.3,0.3-0.5c0.3-0.5,0.6-1,0.7-1.4l0,0c0,0,0-0.2-0.1-0.5v-0.1l0.2-0.5
						c-3-1.9-5.4-4.8-6.5-8.2l-0.4,0.1c-0.1,0-0.2,0-0.4-0.1c-0.1-0.1-0.2-0.1-0.4-0.1c-0.6,0.1-1.2,0.3-2,0.6
						c-0.1,0-0.2,0.1-0.4,0.2c-0.2,0.1-0.4,0.2-0.6,0.2c-0.1,0.1-0.2,0.1-0.3,0.1c-0.4,0.1-0.8,0-1.1-0.2s-0.5-0.4-0.5-0.7
						c-0.1-0.7,0.3-1.3,1.1-1.5c0.1-0.1,0.3-0.1,0.4-0.1c0.4-0.1,0.7-0.1,1.1-0.1c0.8,0,1.5-0.1,2.1-0.3c0.2-0.1,0.3-0.3,0.4-0.4
						v-0.1l0.4-0.1c-0.5-3.6,0.2-7.2,2.3-10.3l-0.4-0.3v-0.1c0-0.2,0-0.4-0.2-0.6c-0.4-0.4-0.9-0.7-1.7-1.2c-0.4-0.2-0.7-0.4-1-0.6
						H132v-0.1l0,0l-0.1-0.1c-0.3-0.2-0.5-0.5-0.6-0.9s0-0.7,0.3-1c0.3-0.4,0.7-0.4,1-0.4c0.4,0,0.7,0.1,0.9,0.3l0.1,0.1
						c0.1,0,0.1,0.1,0.2,0.1c0.3,0.2,0.4,0.4,0.5,0.5s0.2,0.2,0.3,0.3c0.6,0.7,1,1.1,1.5,1.4c0.2,0.1,0.3,0.1,0.5,0.1
						c0.1,0,0.1,0,0.2,0h0.1l0,0c0,0,0.1,0.1,0.2,0.1l0.1,0.1c2.1-2.1,4.6-3.6,7.5-4.3l2-0.3V234l0,0c0.2-0.2,0.4-0.4,0.4-0.5
						c0.1-0.6,0-1.2-0.1-1.9v-0.2v-0.2c-0.1-0.3-0.2-0.6-0.2-0.9V230c0-0.8,0.6-1.4,1.2-1.4c0.8,0,1.3,0.7,1.3,1.3v0.3
						c-0.1,0.2-0.1,0.4-0.1,0.6c0,0.2-0.1,0.4-0.1,0.6c-0.1,0.8-0.1,1.4-0.1,2c0.1,0.3,0.3,0.4,0.4,0.5l0,0v0.4
						c3.5,0.3,6.8,1.9,9.4,4.5l0.3-0.3l0,0c0.2,0,0.5,0,0.6-0.1c0.3-0.2,0.6-0.5,1-0.9c0.1-0.1,0.3-0.3,0.4-0.5l0.8-0.8
						c0.1-0.1,0.1-0.1,0.2-0.1c0,0,0.1,0,0.1-0.1c0.6-0.5,1.5-0.4,1.9,0.1c0.2,0.3,0.3,0.6,0.3,1c-0.1,0.4-0.3,0.7-0.6,0.9
						c0,0-0.1,0.1-0.2,0.1c0,0-0.1,0-0.1,0.1c-0.3,0.2-0.5,0.3-0.7,0.4c-0.1,0.1-0.2,0.1-0.4,0.2c-0.7,0.4-1.2,0.8-1.7,1.2
						c-0.2,0.3-0.2,0.4-0.2,0.6v0.1l-0.4,0.4c1.1,1.6,1.8,3.3,2.2,5c0.4,1.6,0.4,3.4,0.2,5.3l0.4,0.1l0,0l0.1,0.1
						c0.1,0.1,0.2,0.3,0.3,0.3c0.6,0.1,1.3,0.2,2.1,0.3c0.4,0,0.7,0,1.1,0.1c0,0,0.1,0,0.2,0.1h0.1l0,0c0.7,0.2,1.2,0.9,1.1,1.5
						c-0.2,0.7-0.9,1-1.6,0.9l0,0l0,0c-0.1-0.1-0.1-0.1-0.2-0.1c-0.2-0.1-0.4-0.1-0.6-0.2c-0.1-0.1-0.3-0.1-0.5-0.2
						c-0.8-0.3-1.4-0.5-2-0.6c-0.2-0.1-0.2,0-0.4,0.1c-0.1,0-0.1,0.1-0.2,0.1h-0.1c-0.1,0-0.1,0-0.3-0.1h-0.1
						c-1.1,3.4-3.5,6.4-6.5,8.2c0.1,0.2,0.2,0.4,0.2,0.4l0,0l0,0c-0.1,0.2-0.2,0.4-0.1,0.6c0.1,0.4,0.4,0.7,0.6,1.1
						c0.1,0.2,0.3,0.4,0.4,0.6c0.1,0.1,0.1,0.2,0.2,0.3c0.1,0.2,0.3,0.4,0.4,0.6v0.1v0.1c0,0.1,0.1,0.1,0.1,0.2
						c0.2,0.3,0.2,0.7,0.1,1c-0.1,0.3-0.3,0.6-0.7,0.8c-0.7,0.2-1.4-0.1-1.8-0.8v-0.1v-0.1c0-0.1-0.1-0.1-0.1-0.2
						c0-0.2-0.1-0.3-0.1-0.5s-0.1-0.4-0.2-0.6c-0.1-0.2-0.2-0.5-0.3-0.7c-0.2-0.4-0.3-0.8-0.5-1.1c-0.1-0.2-0.2-0.2-0.4-0.3
						c-0.1,0-0.1,0-0.2-0.1l0,0l0,0c0-0.1-0.1-0.2-0.1-0.3c-0.3,0.1-0.6,0.2-0.9,0.3c-0.3,0.1-0.6,0.2-1,0.3
						c-2.8,0.7-5.7,0.5-8.6-0.6l-0.3,0.5H142c-0.2,0-0.3,0.1-0.4,0.2c-0.3,0.3-0.5,0.9-0.7,1.5c-0.1,0.2-0.1,0.4-0.2,0.6
						c0,0.1,0,0.2-0.1,0.3c0,0.2-0.1,0.5-0.2,0.8c0,0.1,0,0.1-0.1,0.2v0.1v0.1C140.6,268,140.1,268.2,139.6,268.2z M138.8,266.1
						c0,0.1,0,0.1-0.1,0.2v0.1v0.1c-0.1,0.3-0.2,0.7,0,1c0.1,0.2,0.3,0.4,0.5,0.5c0.5,0.3,1.1,0,1.4-0.5c0-0.1,0-0.1,0.1-0.2v-0.1
						v-0.1c0.1-0.3,0.2-0.5,0.2-0.7c0-0.1,0-0.2,0.1-0.4c0.1-0.2,0.1-0.4,0.2-0.6c0.2-0.6,0.4-1.2,0.7-1.5c0.1-0.1,0.3-0.2,0.5-0.2
						l0.3-0.5h0.1c2.8,1.1,5.7,1.3,8.5,0.6c0.3-0.1,0.7-0.2,1-0.3c0.3-0.1,0.7-0.2,1-0.3h0.1l0.1,0.1c0.1,0.1,0.2,0.3,0.2,0.4h0.1
						c0.2,0.1,0.3,0.1,0.5,0.4s0.4,0.7,0.5,1.2c0.1,0.2,0.2,0.5,0.3,0.7s0.1,0.4,0.2,0.6c0,0.2,0.1,0.4,0.2,0.6c0,0.1,0,0.1,0,0.1
						c0,0.1,0.1,0.1,0.1,0.2c0.3,0.5,0.9,0.8,1.4,0.6c0.2-0.1,0.4-0.3,0.5-0.6c0.1-0.3,0.1-0.6-0.1-0.8v-0.1v-0.1
						c0-0.1-0.1-0.1-0.1-0.2c-0.1-0.2-0.2-0.4-0.4-0.6c-0.1-0.1-0.1-0.2-0.2-0.3c-0.1-0.2-0.3-0.4-0.4-0.6c-0.3-0.4-0.5-0.8-0.6-1.2
						c-0.1-0.3,0-0.6,0.1-0.7c0-0.1-0.1-0.3-0.2-0.4l-0.1-0.1l0.1-0.1c3.1-1.8,5.4-4.8,6.5-8.2V254h0.1c0.1,0,0.1,0,0.3,0.1
						c0.1,0,0.1,0,0.2,0c0,0,0.1,0,0.1-0.1c0.1-0.1,0.3-0.2,0.6-0.1c0.6,0.1,1.2,0.3,2,0.6c0.2,0,0.4,0.1,0.5,0.2
						c0.1,0.1,0.3,0.1,0.5,0.2c0.1,0,0.2,0,0.3,0.1c0.6,0.1,1.2-0.2,1.3-0.7s-0.3-1.1-0.9-1.2c-0.1,0-0.1,0-0.2-0.1h-0.1
						c-0.4-0.1-0.7-0.1-1.1-0.1c-0.8-0.1-1.5-0.2-2.1-0.3l0,0c-0.2-0.1-0.3-0.3-0.4-0.4l-0.1-0.1l-0.6-0.1v-0.1
						c0.2-1.9,0.2-3.8-0.2-5.4c-0.4-1.7-1.1-3.3-2.2-5l-0.1-0.1l0.4-0.4c0-0.2,0-0.4,0.2-0.7l0,0c0.5-0.4,1-0.8,1.7-1.2
						c0.1-0.1,0.2-0.1,0.4-0.2c0.2-0.1,0.4-0.2,0.6-0.4c0.1-0.1,0.1-0.1,0.2-0.1c0,0,0.1,0,0.1-0.1c0.3-0.2,0.4-0.4,0.5-0.7
						c0-0.3,0-0.6-0.2-0.8c-0.3-0.4-1-0.5-1.5-0.1c-0.1,0.1-0.1,0.1-0.2,0.1c0,0-0.1,0-0.1,0.1l-0.8,0.8c-0.2,0.2-0.3,0.3-0.4,0.5
						c-0.4,0.4-0.7,0.7-1.1,1c-0.2,0.1-0.5,0.1-0.7,0.1l-0.5,0.3l-0.1-0.1c-2.5-2.6-5.9-4.3-9.4-4.6H149v-0.6
						c-0.1-0.1-0.3-0.3-0.4-0.6l0,0c0-0.6,0-1.3,0.1-2.1c0.1-0.2,0.1-0.4,0.1-0.6c0-0.2,0.1-0.4,0.1-0.6v-0.3c0-0.5-0.4-1.1-1.1-1.1
						c-0.5,0-1,0.5-1,1.2v0.3c0,0.3,0.1,0.6,0.1,0.9l0.1,0.2v0.2c0.1,0.8,0.2,1.4,0.1,2c0,0.2-0.2,0.4-0.4,0.6v0.6l-2.2,0.3
						c-2.9,0.7-5.4,2.1-7.4,4.3l-0.1,0.1l-0.1-0.1c0,0-0.1-0.1-0.2-0.1c-0.1,0-0.1-0.1-0.2-0.1h-0.1c-0.2,0-0.4,0-0.6-0.1
						c-0.5-0.3-1-0.7-1.5-1.4c-0.1-0.1-0.2-0.2-0.3-0.3c-0.1-0.2-0.3-0.3-0.5-0.5l-0.1-0.1c-0.1,0-0.1-0.1-0.2-0.1
						c-0.2-0.2-0.4-0.3-0.7-0.3c-0.4,0-0.6,0.1-0.8,0.3s-0.3,0.5-0.2,0.8c0,0.3,0.2,0.6,0.5,0.7l0.1,0.1l0.1,0.1
						c0.3,0.2,0.6,0.4,0.9,0.6c0.8,0.5,1.4,0.9,1.7,1.2c0.2,0.2,0.2,0.5,0.2,0.7l0.4,0.3l-0.1,0.1c-2.1,3.1-2.9,6.7-2.3,10.3v0.1
						l-0.6,0.1c-0.1,0.2-0.3,0.4-0.5,0.5c-0.6,0.2-1.3,0.3-2.2,0.3c-0.4,0-0.7,0-1.1,0.1c-0.1,0-0.2,0-0.2,0.1l0,0l0,0
						c-0.6,0.2-1,0.7-0.9,1.3c0,0.2,0.2,0.4,0.4,0.6c0.3,0.2,0.6,0.2,0.9,0.1l0,0c0.1,0,0.2,0,0.2-0.1l0,0l0,0
						c0.2-0.1,0.4-0.1,0.6-0.2c0.1-0.1,0.3-0.1,0.4-0.2c0.8-0.3,1.4-0.5,2-0.6l0,0c0.2,0,0.4,0.1,0.5,0.1s0.2,0.1,0.2,0.1l0.6-0.1
						v0.1c1.2,3.5,3.5,6.4,6.5,8.2l0.1,0.1l-0.2,0.5c0.1,0.2,0.2,0.5,0.1,0.7c-0.2,0.5-0.4,0.9-0.7,1.4c-0.1,0.2-0.2,0.3-0.3,0.5
						L138.8,266.1z M147.9,261.4c-1.3,0-2.6-0.2-3.8-0.6H144l0.1-0.1l2.9-5.3c0.2-0.4,0.6-0.6,1-0.6c0.2,0,0.3,0,0.6,0.1
						c0.2,0.1,0.4,0.2,0.6,0.5l3,5.4l-1.4,0.3C149.8,261.3,148.9,261.4,147.9,261.4z M144.4,260.6c1.9,0.6,4.2,0.7,6.3,0.2l1-0.3
						l-2.8-5.2c-0.1-0.2-0.3-0.3-0.4-0.3c-0.2-0.1-0.3-0.1-0.4-0.1c-0.4,0-0.7,0.2-0.8,0.4L144.4,260.6z M141.7,259.7l-0.1-0.1
						c-2.3-1.6-4-3.7-4.8-6.1v-0.1l6-1h0.3c0.6,0,1,0.4,1.1,0.9c0,0.2,0,0.5-0.1,0.7L141.7,259.7z M137,253.6
						c0.8,2.3,2.4,4.2,4.6,5.7l2.2-5.5c0.1-0.2,0.1-0.4,0.1-0.6c-0.1-0.4-0.4-0.7-0.9-0.7h-0.3L137,253.6z M154.3,259.6l-2.4-5.7
						c-0.2-0.6,0-1.2,0.6-1.5l0,0c0.2,0,0.3,0,0.3-0.1l0,0h0.3l6.2,1l-0.1,0.1c-0.9,2.6-2.6,4.7-4.9,6.1L154.3,259.6z M152.6,252.6
						c-0.4,0.2-0.6,0.7-0.4,1.1l2.2,5.5c2.1-1.3,3.7-3.3,4.6-5.7l-5.9-1H153C152.9,252.6,152.8,252.6,152.6,252.6z M147.9,251.6
						l-1.8-0.9l-0.4-1.9l1.4-1.5h1.9l1.2,1.5l-0.4,1.9L147.9,251.6z M146.3,250.6l1.6,0.7l1.6-0.7l0.4-1.7l-1-1.3h-1.7l-1.2,1.3
						L146.3,250.6z M160,250.9l-5.9-1.7c-0.3-0.1-0.5-0.2-0.6-0.5s-0.2-0.6-0.1-0.8c0-0.2,0.2-0.5,0.3-0.6l4.5-4.2l0.1,0.1
						c0.7,1.1,1.2,2.3,1.5,3.6s0.4,2.6,0.3,3.9L160,250.9z M158.1,243.4l-4.3,4c-0.1,0.1-0.3,0.3-0.3,0.4c0,0.2,0,0.5,0.1,0.7
						s0.3,0.3,0.5,0.4l5.7,1.7c0.1-1.2,0-2.5-0.3-3.7C159.2,245.6,158.7,244.4,158.1,243.4z M136.1,250.8v-0.1
						c-0.3-2.6,0.3-5.3,1.7-7.5l0.1-0.1l4.6,4.1c0.2,0.2,0.4,0.5,0.4,0.8s-0.1,0.6-0.3,0.8c-0.1,0.2-0.3,0.3-0.6,0.4L136.1,250.8z
						 M137.9,243.4c-1.3,2.1-1.9,4.6-1.6,7l5.7-1.7c0.2,0,0.3-0.1,0.4-0.2l0,0c0.2-0.2,0.2-0.4,0.2-0.6c0-0.2-0.1-0.4-0.3-0.6
						L137.9,243.4z M145.3,244.7c-0.2,0-0.4-0.1-0.7-0.2l-5-3.6l0.1-0.1c1.5-1.5,3.6-2.6,5.8-3.1c0.2-0.1,0.4-0.1,0.6-0.1
						c0.2,0,0.4,0,0.5-0.1h0.2l-0.3,6.2C146.4,244.2,145.9,244.7,145.3,244.7z M140,240.9l4.8,3.4c0.2,0.1,0.4,0.2,0.5,0.2
						c0.4,0,0.9-0.4,0.9-0.9l0.3-5.8c-0.1,0-0.3,0-0.4,0.1c-0.2,0-0.4,0.1-0.5,0.1C143.4,238.4,141.5,239.4,140,240.9z M151,244.7
						c-0.3,0-0.7-0.1-0.9-0.4l0,0c-0.1-0.2-0.2-0.4-0.2-0.7l-0.4-6.1h0.1c2.6,0.3,5,1.4,7,3.3l0.1,0.1l-0.1,0.1l-4.9,3.5
						C151.4,244.6,151.2,244.7,151,244.7z M150.2,244.1c0.4,0.3,0.9,0.4,1.2,0.2l4.8-3.4c-1.9-1.7-4.2-2.8-6.6-3.1l0.4,5.8
						C150,243.8,150.1,243.9,150.2,244.1z"/>
				</g>
			</g>
		</g>
	</g>
	<g>
		<rect y="0" fill-opacity="0" width="284.1" height="205"/>
	</g>
</g>
</svg>
