<?xml version="1.0" encoding="utf-8"?>
<!-- Generator: Adobe Illustrator 25.0.0, SVG Export Plug-In . SVG Version: 6.00 Build 0)  -->
<svg version="1.1" id="Layer_1" xmlns="http://www.w3.org/2000/svg" xmlns:xlink="http://www.w3.org/1999/xlink" x="0px" y="0px"
	 viewBox="0 0 284.1 205" enable-background="new 0 0 284.1 205" xml:space="preserve">
<g>
	<g>
		<g>
			<path fill="#FFFFFF" d="M207.4,91.8c0,0,44.4-18.6,14.5-47c0,0-33-32.1-76.7-31.4s-93.1,35-91.6,62.5c0,0,6.4,19,31.7,22.2
				L207.4,91.8z"/>
		</g>
		<g>
			<g>
				<path fill="#DBDBDB" d="M54.2,62.2c0.2-0.5,4.5,11.4,17.8,14.2c1.5,0.1,29.1-10.6,23.6-19.6c0,0,15.7,10.4,21.9-4.3L168,51
					c0,0,8.8,11.5,27.7,3.2c0,0-2.2,13,13.8,18.8c0,0,11.4,7.6,20.2-9.8c0,0,4,11.9-24.6,28.7l2.1-16.8l-60.5-15.4L79.5,81.9
					l3.6,16.3l-3.8,1.1C79.3,99.4,41.8,89.4,54.2,62.2z"/>
			</g>
			<g>
				<g>
					<path d="M203.7,80.5c3.4,11.6-3.6,25.2-14.9,29.4c-5,1.8-10.4,2-15.7,2.1c-20.6,0.5-41.1,0.9-61.7,1.4
						c-5.2,0.1-10.5,0.2-15.4-1.6c-8.3-3-14.2-11.8-13.9-20.6l-4.3-14.9c0,0,72.5-37.8,130.7-2.9l0,0L203.7,80.5z"/>
				</g>
				<g>
					<g>
						<path d="M201.7,81c2.6,9.4-1.8,20.1-10.1,25.2c-5.3,3.3-11.6,3.5-17.7,3.7c-7.4,0.2-14.9,0.3-22.3,0.5
							c-14.6,0.3-29.2,0.9-43.8,1c-6.1,0-12.2-0.7-17-4.9c-3.8-3.3-6.5-8.1-6.9-13.2c-0.1-1.5-0.1-2.7-0.5-4.1
							c-0.5-1.7-1-3.4-1.5-5.1c-0.8-2.8-1.6-5.5-2.4-8.3c-0.3,0.8-0.6,1.5-0.9,2.3c2.4-1.3,5-2.4,7.5-3.4c-0.4,0.2,0.5-0.2,0.6-0.3
							c0.3-0.1,0.7-0.3,1-0.4c0.7-0.3,1.4-0.6,2.1-0.9c1.6-0.6,3.2-1.2,4.8-1.8c3.7-1.3,7.5-2.6,11.3-3.7
							c20.1-5.9,41.4-8.7,62.3-5.9c13.8,1.9,27.1,6.3,39.1,13.4c-0.2-0.9-0.5-1.8-0.7-2.7c-1.6,2.4-3.2,4.8-4.8,7.1
							c-1.4,2.1,2,4.1,3.5,2c1.6-2.4,3.2-4.8,4.8-7.1c0.6-0.9,0.2-2.2-0.7-2.7c-21.1-12.6-46-16.6-70.3-14.5
							c-17.9,1.6-35.7,6.1-52.3,12.9c-3.4,1.4-6.8,2.8-10.1,4.5c-0.8,0.4-1.2,1.4-0.9,2.3c0.7,2.5,1.5,5,2.2,7.5
							c0.5,1.7,1,3.4,1.5,5c0.2,0.6,0.3,1.1,0.5,1.7c0,0.1,0.1,0.3,0.1,0.4c0.1,0.5,0.1-0.5,0,0.4c-0.2,1.3,0.2,2.8,0.4,4.1
							c0.3,1.4,0.7,2.8,1.2,4.1c1.1,2.7,2.6,5.2,4.6,7.4c4.3,4.8,10.1,7.1,16.4,7.7c3.6,0.3,7.3,0.2,11,0.1
							c3.9-0.1,7.8-0.2,11.7-0.3c7.8-0.2,15.6-0.3,23.4-0.5c7.6-0.2,15.3-0.3,22.9-0.5c6.9-0.2,14-0.2,20.3-3.3
							c10.9-5.4,16.9-19,13.7-30.7C204.9,77.5,201,78.5,201.7,81z"/>
					</g>
				</g>
			</g>
			<g>
				<g>
					<g>
						<path d="M84.5,90.5c12-10.7,27.7-15.8,43.4-18c8-1.2,16.2-1.6,24.3-1.7c8.1-0.1,16.4-0.1,24.5,1c8.9,1.3,17.8,4,24.9,9.8
							c2,1.6,4.8-1.2,2.8-2.8c-13.5-11.1-31.9-12.1-48.6-12c-16.8,0-34.1,1.2-50,6.9c-8.8,3.2-17,7.7-24.1,14
							C79.8,89.4,82.6,92.2,84.5,90.5L84.5,90.5z"/>
					</g>
				</g>
			</g>
			<g>
				<g>
					<g>
						<path d="M208.3,92.7c8.1-4.5,17.1-10,21.3-18.7c2.2-4.6,2.7-9.7,1.5-14.6c-1.4-5.3-4.5-9.9-8.1-13.9
							c-7.1-8-16.2-14.6-25.5-19.8c-9.4-5.2-19.5-9.1-29.9-11.5c-20.7-4.7-42.5-3.2-62.4,4.4c-9.8,3.7-19,8.8-27.4,15
							C69.3,40,61.4,47.5,55.4,56.2c-3.2,4.7-5.8,10-6.2,15.8c-0.3,4.5,1,9,3.5,12.8c5.2,7.5,13.8,12,22.1,15.4c2,0.8,3.9,1.6,6,2.3
							c2.4,0.9,3.5-3,1.1-3.9c-7.7-2.7-15.8-6.1-21.9-11.7c-2.8-2.6-5.2-5.7-6.2-9.4c-1.3-4.7-0.1-9.7,2.1-14
							c2.4-4.7,5.7-8.9,9.2-12.8c3.3-3.6,6.8-7,10.5-10.1c7.5-6.3,16-11.6,24.9-15.6c18.1-8.2,38.5-11.2,58.2-8.2
							c20,3,39.2,11.6,54.4,24.9c7.1,6.2,15.4,14.6,14.5,24.9c-0.8,8.8-8.7,15-15.6,19.4c-1.9,1.2-3.8,2.3-5.8,3.4
							C204,90.5,206.1,93.9,208.3,92.7L208.3,92.7z"/>
					</g>
				</g>
			</g>
			<g>
				<g>
					<g>
						<path d="M65,75.6c2.3,1.4,4.7,2.7,7.5,2.9c1.4,0.1,2.7-0.2,4-0.5c1.4-0.3,2.8-0.6,4.2-0.9c1.1-0.2,1.7-1.5,1.4-2.5
							c-0.3-1.1-1.4-1.6-2.5-1.4c-1.2,0.3-2.5,0.5-3.7,0.8c-1.1,0.2-2.1,0.5-3.2,0.5c-0.8,0-1.9-0.4-2.7-0.7c-1-0.5-2-1.1-3-1.7
							c-0.9-0.6-2.2-0.2-2.7,0.7C63.8,73.8,64.1,75,65,75.6L65,75.6z"/>
					</g>
				</g>
			</g>
			<g>
				<g>
					<g>
						<path d="M206.6,74.4c3.4,3.4,8.9,4.1,13.1,1.9c0.9-0.5,1.3-1.9,0.7-2.7c-0.6-0.9-1.7-1.2-2.7-0.7c-0.1,0-0.2,0.1-0.3,0.1
							c0,0-0.4,0.2-0.2,0.1s-0.1,0-0.1,0c-0.1,0-0.2,0.1-0.4,0.1c-0.4,0.1-0.8,0.2-1.2,0.3c-0.4,0.1,0,0,0,0h-0.3
							c-0.2,0-0.5,0-0.7,0s-0.5,0-0.7,0c-0.1,0-0.2,0-0.3,0c-0.4,0,0.3,0.1,0,0c-0.4-0.1-0.8-0.2-1.3-0.3c-0.2-0.1-0.4-0.1-0.6-0.2
							c0,0-0.4-0.2-0.1,0c0.3,0.1-0.1-0.1-0.2-0.1c-0.4-0.2-0.8-0.4-1.1-0.6c-0.1-0.1-0.2-0.1-0.3-0.2c0.1,0.1,0.2,0.2,0,0
							s-0.4-0.3-0.6-0.5c-0.7-0.7-2.1-0.8-2.8,0C205.9,72.4,205.8,73.6,206.6,74.4L206.6,74.4z"/>
					</g>
				</g>
			</g>
			<g>
				<g>
					<g>
						<path d="M110.9,62.1c-2-0.5-4-0.9-6-1.6c-0.1,0-0.2-0.1-0.3-0.1c0.2,0.1,0.2,0.1,0,0s-0.4-0.2-0.6-0.3c-0.3-0.2-0.7-0.4-1-0.6
							c0.4,0.3-0.2-0.2-0.3-0.2c-0.2-0.1-0.3-0.3-0.5-0.5s-0.3-0.3-0.5-0.5c-0.1-0.1-0.1-0.2-0.2-0.3c0.1,0.2,0.1,0.2,0,0
							c-0.6-0.8-1.8-1.3-2.7-0.7c-0.8,0.5-1.4,1.8-0.7,2.7c1.4,1.9,3.1,3.3,5.2,4.2c2,0.9,4.3,1.3,6.4,1.8c1,0.3,2.2-0.3,2.5-1.4
							C112.5,63.6,112,62.4,110.9,62.1L110.9,62.1z"/>
					</g>
				</g>
			</g>
			<g>
				<g>
					<g>
						<path d="M175.9,63c6.2,1,12.6-1.1,16.8-5.8c0.7-0.8,0.8-2,0-2.8c-0.7-0.7-2.1-0.8-2.8,0c-0.8,0.9-1.7,1.7-2.7,2.4
							s-2.2,1.3-3.2,1.6c-0.6,0.2-1.2,0.4-1.8,0.5c-0.3,0.1-0.7,0.1-1,0.2c-0.1,0-0.3,0.1-0.5,0.1c-0.4,0.1,0.2,0-0.1,0
							c-0.6,0.1-1.3,0.1-1.9,0.1c-0.3,0-0.7,0-1,0c-0.4,0-0.5,0-0.7-0.1c-1.1-0.2-2.2,0.3-2.5,1.4C174.3,61.5,174.9,62.8,175.9,63
							L175.9,63z"/>
					</g>
				</g>
			</g>
			<g>
				<g>
					<g>
						<path fill="#F2D31D" d="M82.3,90.9c7.1-3,14-6.4,21.2-9c8.2-3,16.5-5.8,25.1-7.7c16.1-3.5,32.8-2.9,48.8,1
							c9.2,2.2,18.1,5.4,26.8,9.1c1,0.4,2.1,0.3,2.7-0.7c0.5-0.8,0.3-2.3-0.7-2.7c-15.6-6.7-32-11.7-49.1-12.7
							c-8.5-0.5-17.2,0-25.6,1.5c-8.9,1.6-17.4,4.3-25.9,7.3c-4.5,1.6-9,3.3-13.4,5.2c-4,1.7-7.9,3.6-11.9,5.3
							c-1,0.4-1.2,1.9-0.7,2.7C80.2,91.2,81.3,91.4,82.3,90.9L82.3,90.9z"/>
					</g>
				</g>
			</g>
			<g>
				<g>
					<g>
						<path d="M84.1,93.2c-0.9-5.9-2.5-11.9-4.4-17.5c-0.3,0.8-0.6,1.5-0.9,2.3c16.4-7.8,34.1-13,52.2-15.4
							c16.9-2.3,34.5-2.6,51.2,1.5c9,2.2,17.6,5.7,25.3,11c-0.3-0.8-0.6-1.5-0.9-2.3c-1.9,4.7-3.6,9.5-4.5,14.5
							c-0.2,1.1,0.3,2.2,1.4,2.5c1,0.3,2.3-0.3,2.5-1.4c0.9-5,2.6-9.8,4.5-14.5c0.3-0.9-0.2-1.8-0.9-2.3
							c-14.2-9.7-31.4-13.7-48.4-14.5c-18.3-0.8-36.9,1.5-54.6,6.4c-10.2,2.8-20.2,6.5-29.8,11c-0.8,0.4-1.2,1.5-0.9,2.3
							c1.9,5.7,3.5,11.6,4.4,17.5c0.2,1.1,1.5,1.7,2.5,1.4C83.8,95.4,84.3,94.3,84.1,93.2L84.1,93.2z"/>
					</g>
				</g>
			</g>
			<g id="layer1_1_" transform="translate(-6.3260942,-174.7524)">
				<g id="g3052_1_">
					<g id="path3055_1_">
						<g>
							<path fill="#406DDC" d="M138.6,258.3c-1.4,0-2.8-0.6-3.6-1.7L121.7,240c-0.1-0.1-0.2-0.2-0.3-0.4c-0.7-1-0.9-2.3-0.6-3.6
								l4.7-20.6c0.3-1.4,1.2-2.5,2.5-3.1l19.2-9.2c0.6-0.3,1.2-0.4,1.8-0.5c0.1,0,0.2,0,0.2,0c0.7,0,1.4,0.2,2,0.5l19.2,9.2
								c1.3,0.6,2.2,1.8,2.5,3.1l4.7,20.6c0.3,1.4,0,2.8-0.9,3.9l-13.3,16.5c-0.9,1.1-2.2,1.7-3.6,1.7L138.6,258.3z"/>
						</g>
						<g>
							<path fill="#FFFFFF" d="M149.2,203.7c0.6,0,1.1,0.1,1.6,0.4l19.2,9.2c1,0.5,1.7,1.4,2,2.5l4.7,20.6c0.2,1.1,0,2.2-0.7,3.1
								L162.7,256c-0.7,0.9-1.8,1.4-2.9,1.4l0,0h-21.3l0,0c-1.1,0-2.2-0.5-2.9-1.4l-13.3-16.5c-0.1-0.1-0.1-0.2-0.2-0.3
								c-0.5-0.8-0.7-1.8-0.5-2.8l4.7-20.6c0.2-1.1,1-2,2-2.5l19.2-9.2c0.4-0.2,0.9-0.3,1.4-0.4
								C149.1,203.7,149.2,203.7,149.2,203.7 M149.2,201.7c-0.1,0-0.2,0-0.3,0c-0.8,0-1.5,0.2-2.2,0.5l-19.2,9.2
								c-1.6,0.7-2.7,2.1-3.1,3.8l-4.7,20.6c-0.3,1.5-0.1,3.1,0.8,4.3c0.1,0.1,0.2,0.3,0.3,0.4l13.3,16.5c1.1,1.3,2.7,2.1,4.4,2.1
								h21.3c1.7,0,3.3-0.8,4.4-2.1l13.3-16.5c1.1-1.4,1.5-3.1,1.1-4.8l-4.7-20.6c-0.4-1.7-1.5-3.1-3.1-3.8l-19.2-9.2
								C150.9,201.9,150.1,201.7,149.2,201.7L149.2,201.7z"/>
						</g>
					</g>
					<g id="path3059_1_">
						<path fill="#FFFFFF" d="M149.2,210.7c-0.6,0-1.1,0.6-1.1,1.3l0,0c0,0.1,0,0.2,0,0.3c0,0.4,0.1,0.7,0.2,1.1
							c0.1,0.8,0.2,1.5,0.1,2.1c0,0.2-0.2,0.4-0.4,0.6v0.5c-0.7,0.1-1.4,0.2-2.1,0.3c-3,0.7-5.5,2.2-7.5,4.3
							c-0.1-0.1-0.3-0.2-0.4-0.3c-0.2,0-0.4,0.1-0.7-0.1c-0.5-0.3-1-0.8-1.5-1.4c-0.3-0.3-0.4-0.5-0.8-0.8c-0.1-0.1-0.2-0.1-0.3-0.2
							c-0.2-0.2-0.5-0.3-0.8-0.3c-0.4,0-0.7,0.1-0.9,0.4c-0.4,0.5-0.3,1.3,0.3,1.7l0,0c0.1,0.1,0.2,0.1,0.2,0.2
							c0.3,0.2,0.6,0.4,1,0.6c0.7,0.4,1.3,0.8,1.7,1.2c0.2,0.2,0.2,0.5,0.2,0.7l0.4,0.3c-2,3-2.9,6.6-2.3,10.4l-0.5,0.1
							c-0.1,0.2-0.3,0.4-0.5,0.5c-0.6,0.2-1.3,0.3-2.1,0.3c-0.4,0-0.7,0-1.1,0.1c-0.1,0-0.2,0-0.3,0.1l0,0l0,0
							c-0.7,0.2-1.1,0.8-1,1.4c0.1,0.6,0.8,1,1.5,0.8l0,0l0,0c0.1,0,0.2,0,0.3-0.1c0.4-0.1,0.7-0.3,1-0.4c0.8-0.3,1.4-0.5,2-0.6
							c0.3,0,0.5,0.2,0.7,0.2l0.5-0.1c1.2,3.6,3.6,6.5,6.6,8.3l-0.2,0.5c0.1,0.2,0.2,0.5,0.1,0.6c-0.2,0.6-0.6,1.2-1,1.9
							c-0.2,0.3-0.4,0.6-0.6,0.9c0,0.1-0.1,0.2-0.1,0.3c-0.3,0.6-0.1,1.4,0.5,1.6c0.6,0.3,1.3,0,1.6-0.6l0,0l0,0
							c0-0.1,0.1-0.2,0.1-0.3c0.2-0.4,0.2-0.7,0.3-1.1c0.3-0.8,0.5-1.6,0.9-2.1c0.1-0.1,0.3-0.2,0.5-0.2l0.3-0.5
							c2.7,1,5.6,1.3,8.6,0.6c0.7-0.2,1.3-0.4,2-0.6c0.1,0.1,0.2,0.4,0.2,0.4c0.2,0.1,0.4,0.1,0.6,0.4c0.3,0.5,0.5,1.2,0.8,1.9
							c0.1,0.4,0.2,0.7,0.3,1.1c0,0.1,0.1,0.2,0.1,0.3c0.3,0.6,1,0.9,1.6,0.7c0.6-0.3,0.8-1,0.5-1.6c0-0.1-0.1-0.2-0.1-0.3
							c-0.2-0.4-0.4-0.6-0.6-0.9c-0.4-0.7-0.8-1.2-1-1.8c-0.1-0.3,0-0.5,0.1-0.7c0,0-0.1-0.3-0.2-0.5c3.2-1.9,5.5-4.9,6.6-8.3
							c0.1,0,0.4,0.1,0.5,0.1c0.2-0.1,0.3-0.3,0.6-0.2c0.6,0.1,1.2,0.3,2,0.6c0.4,0.1,0.6,0.3,1,0.4c0.1,0,0.2,0,0.3,0.1l0,0l0,0
							c0.7,0.1,1.3-0.2,1.5-0.8c0.1-0.6-0.3-1.2-1-1.4c-0.1,0-0.2-0.1-0.3-0.1c-0.4-0.1-0.7-0.1-1.1-0.1c-0.8-0.1-1.5-0.2-2.1-0.3
							c-0.2-0.1-0.4-0.4-0.5-0.5l-0.5-0.1c0.2-1.7,0.2-3.6-0.2-5.4c-0.4-1.8-1.2-3.5-2.2-5c0.1-0.1,0.3-0.3,0.4-0.4
							c0-0.2,0-0.4,0.2-0.7c0.5-0.4,1-0.8,1.7-1.2c0.3-0.2,0.6-0.3,1-0.6c0.1-0.1,0.2-0.1,0.3-0.2c0.6-0.4,0.7-1.2,0.3-1.7
							s-1.2-0.5-1.7-0.1c-0.1,0.1-0.2,0.1-0.3,0.2c-0.3,0.3-0.5,0.5-0.8,0.8c-0.6,0.6-1,1.1-1.5,1.4c-0.2,0.1-0.5,0.1-0.7,0.1
							l-0.4,0.3c-2.5-2.6-5.9-4.3-9.5-4.6c0-0.2,0-0.4,0-0.5c-0.1-0.1-0.3-0.3-0.4-0.6c0-0.6,0-1.3,0.1-2.1c0.1-0.4,0.1-0.7,0.2-1.1
							c0-0.1,0-0.2,0-0.3C150.4,211.3,149.9,210.7,149.2,210.7L149.2,210.7z M147.8,219.6l-0.3,6l0,0c0,0.5-0.5,1-1,1
							c-0.2,0-0.4-0.1-0.6-0.2l0,0l-4.9-3.5c1.5-1.5,3.5-2.6,5.7-3.1C147,219.7,147.4,219.7,147.8,219.6z M150.7,219.6
							c2.6,0.3,5,1.5,6.9,3.3l-4.9,3.5l0,0c-0.4,0.3-1,0.2-1.4-0.2c-0.1-0.2-0.2-0.4-0.2-0.6l0,0L150.7,219.6z M139.1,225.2l4.5,4
							l0,0c0.4,0.4,0.5,1,0.1,1.4c-0.1,0.2-0.3,0.3-0.5,0.3l0,0l-5.8,1.7C137.1,230,137.8,227.4,139.1,225.2z M159.4,225.2
							c0.7,1.1,1.2,2.3,1.5,3.6s0.4,2.6,0.3,3.9l-5.8-1.7l0,0c-0.5-0.1-0.8-0.7-0.7-1.2c0-0.2,0.2-0.4,0.3-0.5l0,0L159.4,225.2
							L159.4,225.2z M148.3,229.5h1.8l1.1,1.4l-0.4,1.8l-1.7,0.8l-1.7-0.8l-0.4-1.8L148.3,229.5z M154.2,234.5c0.1,0,0.2,0,0.2,0
							l0,0l6,1c-0.9,2.5-2.5,4.6-4.8,6l-2.3-5.6l0,0c-0.2-0.5,0-1.1,0.5-1.3C154,234.5,154.1,234.5,154.2,234.5L154.2,234.5z
							 M144.2,234.5c0.5,0,0.9,0.3,1,0.8c0,0.2,0,0.4-0.1,0.6l0,0l-2.3,5.6c-2.1-1.4-3.9-3.4-4.8-6l5.9-1l0,0
							C144.1,234.5,144.1,234.5,144.2,234.5L144.2,234.5z M149.2,236.9c0.2,0,0.3,0,0.5,0.1s0.4,0.2,0.5,0.4l0,0l2.9,5.3
							c-0.4,0.1-0.8,0.2-1.2,0.3c-2.2,0.5-4.5,0.4-6.5-0.3l2.9-5.3l0,0C148.5,237.1,148.9,236.9,149.2,236.9z"/>
						<path fill="#FFFFFF" d="M140.8,250.2c-0.2,0-0.4,0-0.6-0.1c-0.3-0.1-0.5-0.3-0.6-0.6c-0.1-0.4-0.1-0.8,0-1.2
							c0-0.1,0-0.1,0.1-0.2V248l0,0l0.6-0.9c0.1-0.2,0.2-0.3,0.3-0.5c0.3-0.5,0.6-1,0.7-1.4l0,0c0,0,0-0.2-0.1-0.5v-0.1l0.2-0.5
							c-3-1.9-5.4-4.8-6.5-8.2l-0.4,0.1c-0.1,0-0.2,0-0.4-0.1c-0.1-0.1-0.2-0.1-0.4-0.1c-0.6,0.1-1.2,0.3-2,0.6
							c-0.1,0-0.2,0.1-0.4,0.2c-0.2,0.1-0.4,0.2-0.6,0.2c-0.1,0.1-0.2,0.1-0.3,0.1c-0.4,0.1-0.8,0-1.1-0.2s-0.5-0.4-0.5-0.7
							c-0.1-0.7,0.3-1.3,1.1-1.5c0.1-0.1,0.3-0.1,0.4-0.1c0.4-0.1,0.7-0.1,1.1-0.1c0.8,0,1.5-0.1,2.1-0.3c0.2-0.1,0.3-0.3,0.4-0.4
							v-0.1l0.4-0.1c-0.5-3.6,0.2-7.2,2.3-10.3l-0.4-0.3v-0.1c0-0.2,0-0.4-0.2-0.6c-0.4-0.4-0.9-0.7-1.7-1.2c-0.4-0.2-0.7-0.4-1-0.6
							h-0.1v-0.1l0,0l-0.1-0.1c-0.3-0.2-0.5-0.5-0.6-0.9s0-0.7,0.3-1c0.3-0.4,0.7-0.4,1-0.4c0.4,0,0.7,0.1,0.9,0.3l0.1,0.1
							c0.1,0,0.1,0.1,0.2,0.1c0.3,0.2,0.4,0.4,0.5,0.5s0.2,0.2,0.3,0.3c0.6,0.7,1,1.1,1.5,1.4c0.2,0.1,0.3,0.1,0.5,0.1
							c0.1,0,0.1,0,0.2,0h0.1l0,0c0,0,0.1,0.1,0.2,0.1l0.1,0.1c2.1-2.1,4.6-3.6,7.5-4.3l2-0.3V216l0,0c0.2-0.2,0.4-0.4,0.4-0.5
							c0.1-0.6,0-1.2-0.1-1.9v-0.2v-0.2c-0.1-0.3-0.2-0.6-0.2-0.9V212c0-0.8,0.6-1.4,1.2-1.4c0.8,0,1.3,0.7,1.3,1.3v0.3
							c-0.1,0.2-0.1,0.4-0.1,0.6c0,0.2-0.1,0.4-0.1,0.6c-0.1,0.8-0.1,1.4-0.1,2c0.1,0.3,0.3,0.4,0.4,0.5l0,0v0.4
							c3.5,0.3,6.8,1.9,9.4,4.5l0.3-0.3l0,0c0.2,0,0.5,0,0.6-0.1c0.3-0.2,0.6-0.5,1-0.9c0.1-0.1,0.3-0.3,0.4-0.5l0.8-0.8
							c0.1-0.1,0.1-0.1,0.2-0.1c0,0,0.1,0,0.1-0.1c0.6-0.5,1.5-0.4,1.9,0.1c0.2,0.3,0.3,0.6,0.3,1c-0.1,0.4-0.3,0.7-0.6,0.9
							c0,0-0.1,0.1-0.2,0.1c0,0-0.1,0-0.1,0.1c-0.3,0.2-0.5,0.3-0.7,0.4c-0.1,0.1-0.2,0.1-0.4,0.2c-0.7,0.4-1.2,0.8-1.7,1.2
							c-0.2,0.3-0.2,0.4-0.2,0.6v0.1l-0.4,0.4c1.1,1.6,1.8,3.3,2.2,5c0.4,1.6,0.4,3.4,0.2,5.3l0.4,0.1l0,0l0.1,0.1
							c0.1,0.1,0.2,0.3,0.3,0.3c0.6,0.1,1.3,0.2,2.1,0.3c0.4,0,0.7,0,1.1,0.1c0,0,0.1,0,0.2,0.1h0.1l0,0c0.7,0.2,1.2,0.9,1.1,1.5
							c-0.2,0.7-0.9,1-1.6,0.9l0,0l0,0c-0.1-0.1-0.1-0.1-0.2-0.1c-0.2-0.1-0.4-0.1-0.6-0.2c-0.1-0.1-0.3-0.1-0.5-0.2
							c-0.8-0.3-1.4-0.5-2-0.6c-0.2-0.1-0.2,0-0.4,0.1c-0.1,0-0.1,0.1-0.2,0.1h-0.1c-0.1,0-0.1,0-0.3-0.1h-0.1
							c-1.1,3.4-3.5,6.4-6.5,8.2c0.1,0.2,0.2,0.4,0.2,0.4l0,0l0,0c-0.1,0.2-0.2,0.4-0.1,0.6c0.1,0.4,0.4,0.7,0.6,1.1
							c0.1,0.2,0.3,0.4,0.4,0.6c0.1,0.1,0.1,0.2,0.2,0.3c0.1,0.2,0.3,0.4,0.4,0.6v0.1v0.1c0,0.1,0.1,0.1,0.1,0.2
							c0.3,0.7,0.1,1.4-0.6,1.7c-0.7,0.2-1.4-0.1-1.8-0.8v-0.1v-0.1c0-0.1-0.1-0.1-0.1-0.2c0-0.2-0.1-0.3-0.1-0.5s-0.1-0.4-0.2-0.6
							c-0.1-0.2-0.2-0.5-0.3-0.7c-0.2-0.4-0.3-0.8-0.5-1.1c-0.1-0.2-0.2-0.2-0.4-0.3c-0.1,0-0.1,0-0.2-0.1l0,0l0,0
							c0-0.1-0.1-0.2-0.1-0.3c-0.3,0.1-0.6,0.2-0.9,0.3c-0.3,0.1-0.7,0.2-1,0.3c-2.8,0.7-5.7,0.5-8.6-0.6l-0.3,0.5h-0.1
							c-0.2,0-0.3,0.1-0.4,0.2c-0.3,0.3-0.5,0.9-0.7,1.5c-0.1,0.2-0.1,0.4-0.2,0.6c0,0.1,0,0.2-0.1,0.3c0,0.2-0.1,0.5-0.2,0.8
							c0,0.1,0,0.1-0.1,0.2v0.1v0.1c-0.2,0.3-0.4,0.6-0.8,0.7C141.1,250.2,141,250.2,140.8,250.2z M140,248.1c0,0.1,0,0.1-0.1,0.2
							v0.1v0.1c-0.1,0.3-0.2,0.7,0,1c0.1,0.2,0.3,0.4,0.5,0.5c0.3,0.1,0.6,0.1,0.8,0c0.3-0.1,0.5-0.3,0.6-0.6c0-0.1,0-0.1,0.1-0.2
							v-0.1V249c0.1-0.3,0.2-0.5,0.2-0.7c0-0.1,0-0.2,0.1-0.4s0.1-0.4,0.2-0.6c0.2-0.6,0.4-1.2,0.7-1.5c0.1-0.1,0.3-0.2,0.5-0.2
							l0.3-0.5h0.1c2.8,1.1,5.7,1.3,8.5,0.6c0.3-0.1,0.7-0.2,1-0.3s0.7-0.2,1-0.3h0.1l0.1,0.1c0.1,0.1,0.2,0.3,0.2,0.4h0.1
							c0.2,0.1,0.3,0.1,0.5,0.4c0.2,0.3,0.4,0.7,0.5,1.2c0.1,0.2,0.2,0.5,0.3,0.7s0.1,0.4,0.2,0.6c0,0.2,0.1,0.4,0.2,0.6
							c0,0.1,0,0.1,0,0.1c0,0.1,0.1,0.1,0.1,0.2c0.3,0.5,0.9,0.8,1.4,0.6c0.5-0.3,0.7-0.9,0.4-1.4v-0.1v-0.1c0-0.1-0.1-0.1-0.1-0.2
							c-0.1-0.2-0.2-0.4-0.4-0.6c-0.1-0.1-0.1-0.2-0.2-0.3c-0.1-0.2-0.3-0.4-0.4-0.6c-0.3-0.4-0.5-0.8-0.6-1.2
							c-0.1-0.3,0-0.6,0.1-0.7c0-0.1-0.1-0.3-0.2-0.4l-0.1-0.1l0.1-0.1c3.1-1.8,5.4-4.8,6.5-8.2v-0.1h0.1c0.1,0,0.1,0,0.3,0.1
							c0.1,0,0.1,0,0.2,0c0,0,0.1,0,0.1-0.1c0.1-0.1,0.3-0.2,0.6-0.1c0.6,0.1,1.2,0.3,2,0.6c0.2,0,0.4,0.1,0.5,0.2
							c0.1,0.1,0.3,0.1,0.5,0.2c0.1,0,0.2,0,0.3,0.1c0.6,0.1,1.2-0.2,1.3-0.7s-0.3-1.1-0.9-1.2c-0.1,0-0.1,0-0.2-0.1H168
							c-0.4-0.1-0.7-0.1-1.1-0.1c-0.8-0.1-1.5-0.2-2.1-0.3l0,0c-0.2-0.1-0.3-0.3-0.4-0.4l-0.1-0.1l-0.6-0.1v-0.1
							c0.2-1.9,0.2-3.8-0.2-5.4c-0.4-1.7-1.1-3.3-2.2-5l-0.1-0.1l0.4-0.4c0-0.2,0-0.4,0.2-0.7l0,0c0.5-0.4,1-0.8,1.7-1.2
							c0.1-0.1,0.2-0.1,0.4-0.2c0.2-0.1,0.4-0.2,0.6-0.4c0.1-0.1,0.1-0.1,0.2-0.1c0,0,0.1,0,0.1-0.1c0.3-0.2,0.4-0.4,0.5-0.7
							c0-0.3,0-0.6-0.2-0.8c-0.3-0.4-1-0.5-1.5-0.1c-0.1,0.1-0.1,0.1-0.2,0.1c0,0-0.1,0-0.1,0.1l-0.8,0.8c-0.2,0.2-0.3,0.3-0.4,0.4
							c-0.4,0.4-0.7,0.7-1.1,1c-0.2,0.1-0.5,0.1-0.7,0.1l-0.5,0.3l-0.1-0.1c-2.5-2.6-5.9-4.3-9.4-4.6h-0.1v-0.6
							c-0.1-0.1-0.3-0.3-0.4-0.6l0,0c0-0.6,0-1.3,0.1-2.1c0.1-0.2,0.1-0.4,0.1-0.5c0-0.2,0.1-0.4,0.1-0.6V212c0-0.5-0.4-1.1-1.1-1.1
							c-0.5,0-1,0.5-1,1.2v0.3c0,0.3,0.1,0.6,0.1,0.9l0.1,0.2v0.2c0.1,0.8,0.2,1.4,0.1,2c0,0.2-0.2,0.4-0.4,0.6v0.6l-2.2,0.3
							c-2.9,0.7-5.4,2.1-7.4,4.3l-0.1,0.1l-0.1-0.1c0,0-0.1-0.1-0.2-0.1c-0.1,0-0.1-0.1-0.2-0.1h-0.1c-0.2,0-0.4,0-0.6-0.1
							c-0.5-0.3-1-0.7-1.5-1.4c-0.1-0.1-0.2-0.2-0.3-0.3c-0.1-0.2-0.3-0.3-0.5-0.5l-0.1-0.1c-0.1,0-0.1-0.1-0.2-0.1
							c-0.2-0.2-0.4-0.3-0.7-0.3c-0.4,0-0.6,0.1-0.8,0.3s-0.3,0.5-0.2,0.8c0,0.3,0.2,0.6,0.5,0.7l0.1,0.1l0.1,0.1
							c0.3,0.2,0.6,0.4,0.9,0.6c0.8,0.5,1.4,0.9,1.7,1.2c0.2,0.2,0.2,0.5,0.2,0.7l0.4,0.3l-0.1,0.1c-2.1,3.1-2.9,6.7-2.3,10.3v0.1
							l-0.6,0.1c-0.1,0.2-0.3,0.4-0.5,0.5c-0.6,0.2-1.3,0.3-2.2,0.3c-0.4,0-0.7,0-1.1,0.1c-0.1,0-0.2,0-0.2,0.1l0,0l0,0
							c-0.6,0.2-1,0.7-0.9,1.3c0,0.2,0.2,0.4,0.4,0.6c0.3,0.2,0.6,0.2,0.9,0.1l0,0c0.1,0,0.2,0,0.2-0.1l0,0l0,0
							c0.2-0.1,0.4-0.1,0.6-0.2c0.1-0.1,0.3-0.1,0.4-0.2c0.8-0.3,1.4-0.5,2-0.6l0,0c0.2,0,0.4,0.1,0.5,0.1s0.2,0.1,0.2,0.1l0.6-0.1
							v0.1c1.2,3.5,3.5,6.4,6.5,8.2l0.1,0.1l-0.2,0.5c0.1,0.2,0.2,0.5,0.1,0.7c-0.2,0.5-0.4,0.9-0.7,1.4c-0.1,0.2-0.2,0.3-0.3,0.5
							L140,248.1z M149.1,243.4c-1.3,0-2.6-0.2-3.8-0.6h-0.1l0.1-0.1l2.9-5.3c0.2-0.3,0.6-0.6,1-0.6c0.2,0,0.3,0,0.6,0.1
							c0.2,0.1,0.4,0.2,0.6,0.5l3,5.4l-1.4,0.3C151,243.3,150.1,243.4,149.1,243.4z M145.6,242.6c1.9,0.6,4.2,0.7,6.3,0.2l1-0.3
							l-2.8-5.2c-0.1-0.2-0.3-0.3-0.4-0.3c-0.2-0.1-0.2-0.1-0.4-0.1s-0.6,0.2-0.8,0.4L145.6,242.6z M142.9,241.7l-0.1-0.1
							c-2.3-1.6-4-3.7-4.8-6.1v-0.1l6-1h0.3c0.6,0,1,0.4,1.1,0.9c0,0.2,0,0.5-0.1,0.7L142.9,241.7z M138.2,235.6
							c0.8,2.3,2.4,4.2,4.6,5.7l2.2-5.5c0.1-0.2,0.1-0.4,0.1-0.6c-0.1-0.4-0.4-0.7-0.9-0.7h-0.3L138.2,235.6z M155.5,241.7l-2.4-5.7
							c-0.1-0.3-0.1-0.6,0-0.9c0.1-0.3,0.3-0.5,0.6-0.6c0.2-0.1,0.3-0.1,0.4-0.1h0.2l6.2,1l-0.1,0.1
							C159.5,238.1,157.8,240.2,155.5,241.7L155.5,241.7z M154.4,234.6h-0.2c-0.1,0-0.2,0-0.3,0.1c-0.2,0.1-0.4,0.3-0.5,0.5
							s-0.1,0.5,0,0.7l2.2,5.5c2.1-1.3,3.7-3.3,4.6-5.7L154.4,234.6z M149.1,233.6l-1.8-0.9l-0.4-1.9l1.4-1.5h1.9l1.2,1.5l-0.4,1.9
							L149.1,233.6z M147.5,232.6l1.6,0.7l1.6-0.7l0.4-1.7l-1-1.3h-1.7l-1.2,1.3L147.5,232.6z M161.3,232.9l-5.9-1.7
							c-0.3-0.1-0.5-0.2-0.6-0.5s-0.2-0.6-0.1-0.8c0-0.2,0.2-0.5,0.3-0.6l4.5-4.2l0.1,0.1c0.7,1.1,1.2,2.3,1.5,3.6s0.4,2.6,0.3,3.9
							L161.3,232.9z M159.4,225.4l-4.3,4c-0.1,0.1-0.3,0.3-0.3,0.4c0,0.2,0,0.5,0.1,0.7s0.3,0.3,0.5,0.4l5.7,1.7
							c0.1-1.2,0-2.5-0.3-3.7C160.5,227.6,160,226.4,159.4,225.4z M137.3,232.8v-0.1c-0.3-2.5,0.3-5.1,1.7-7.5l0.1-0.1l4.6,4.1
							c0.2,0.2,0.4,0.5,0.4,0.8s-0.1,0.6-0.3,0.8c-0.1,0.2-0.3,0.3-0.6,0.4L137.3,232.8z M139.1,225.4c-1.3,2.2-1.9,4.7-1.6,7
							l5.7-1.7c0.2,0,0.3-0.1,0.4-0.2l0,0c0.2-0.2,0.2-0.4,0.2-0.6c0-0.2-0.1-0.4-0.3-0.6L139.1,225.4z M146.5,226.7
							c-0.2,0-0.4-0.1-0.7-0.2l-5-3.6l0.1-0.1c1.5-1.5,3.6-2.6,5.8-3.1c0.2-0.1,0.4-0.1,0.6-0.1c0.2,0,0.4,0,0.5-0.1h0.2l-0.3,6.2
							C147.6,226.2,147.1,226.7,146.5,226.7z M141.2,222.9l4.8,3.4c0.2,0.1,0.4,0.2,0.5,0.2c0.4,0,0.9-0.4,0.9-0.9l0.3-5.8
							c-0.1,0-0.3,0-0.4,0.1c-0.2,0-0.4,0.1-0.5,0.1C144.6,220.4,142.7,221.4,141.2,222.9z M152.2,226.7c-0.3,0-0.7-0.1-0.9-0.4l0,0
							c-0.1-0.2-0.2-0.4-0.2-0.7l-0.4-6.1h0.1c2.6,0.3,5,1.4,7,3.3l0.1,0.1l-0.1,0.1l-4.9,3.5C152.6,226.6,152.4,226.7,152.2,226.7z
							 M151.4,226.1c0.4,0.4,0.9,0.4,1.2,0.2l4.8-3.4c-1.9-1.7-4.2-2.8-6.6-3.1l0.4,5.8C151.2,225.8,151.3,225.9,151.4,226.1z"/>
					</g>
				</g>
			</g>
			<g>
				<g>
					<g>
						<path fill="#FFFFFF" d="M169.5,78.1c2.3,5.3,4.5,10.7,6.6,16.2c1,2.7,1.9,5.3,2.9,8c0.5,1.2,0.9,2.5,1.5,3.7
							c0.5,1.2,1.1,2.8,2.1,3.7c1.1,0.9,2.4,0.6,3.6,0.3c1.3-0.3,2.6-0.7,3.9-1.3c2.3-1,4.9-2.7,3.6-5.5c-2.4-5.4-5-10.6-7.5-16
							c-0.7-1.5-1.4-3-2.1-4.4c-0.6-1.3-1.2-2.7-2.2-3.8c-1.2-1.1-2.8-1.5-4.3-2c-1.6-0.5-3.2-1-4.8-1.5c-2.1-0.6-3.1,1.9-1.9,3.3
							c2.5,3.2,4.7,6.5,6.4,10.2c1.8,3.8,2.4,8,3.6,12c0.6,1.8,1.2,4,3,5c1.6,0.9,3.9,0.3,4.7-1.4c1-2.1-0.8-4.4-1.6-6.2
							c-0.9-1.9-1.7-3.9-2.5-5.9c-1.6-4.3-2.4-9.4-5.3-13c-1.2-1.6-4,0.1-3.3,1.9c1.7,4.8,3.5,9.5,5.5,14.2c1,2.3,2,4.6,3,6.9
							c0.9,2,1.9,3.8,4.1,4.6c1.8,0.7,2.9-1.5,2.3-2.9c-0.6-1.4-1.3-2.8-1.9-4.2c-0.5-1-1.9-1.2-2.7-0.7c-1,0.6-1.2,1.8-0.7,2.7
							c0.6,1.4,1.3,2.8,1.9,4.2c0.8-1,1.5-2,2.3-2.9c-0.6-0.2-0.9-1.1-1.1-1.6c-0.5-1-0.9-2-1.3-3c-0.9-2-1.7-4-2.6-6
							c-1.7-4.1-3.3-8.2-4.7-12.4c-1.1,0.6-2.2,1.3-3.3,1.9c1.3,1.6,1.8,3.7,2.3,5.6c0.7,2.2,1.4,4.4,2.3,6.6
							c0.8,2.2,1.8,4.3,2.8,6.4c0.3,0.6,0.5,1.1,0.8,1.7c0.1,0.2,0.2,0.5,0.3,0.7c0.2-0.7,0.5-0.9,1-0.7c0-0.2-0.5-0.8-0.5-1
							c-0.2-0.5-0.4-1-0.5-1.5c-0.7-2.2-1-4.4-1.6-6.6c-0.6-2.1-1.4-4.2-2.3-6.2c-1.9-4-4.4-7.7-7.2-11.2c-0.6,1.1-1.3,2.2-1.9,3.3
							c1.4,0.4,2.7,0.8,4.1,1.3c1,0.3,2.5,0.5,3.3,1.3c0.8,0.9,1.3,2.4,1.8,3.5c0.6,1.3,1.2,2.7,1.9,4c1.2,2.6,2.4,5.2,3.6,7.8
							c0.6,1.3,1.2,2.5,1.8,3.8c0.3,0.7,0.6,1.3,0.9,2c0.2,0.4,0.3,0.7,0.5,1.1c0.1,0.1,0.1,0.3,0.2,0.4c0.1,0.3,0.1,0.3,0.1-0.1
							c0.2-0.3,0.3-0.6,0.5-0.9c-0.8,0.8-1.9,1.4-3,1.7c-1,0.4-2.5,1-3.6,0.9c0.3,0.1,0.7,0.2,1,0.3c-0.3-0.2-0.6-1.2-0.7-1.5
							c-0.3-0.5-0.5-1.1-0.7-1.6c-0.5-1.3-1-2.6-1.5-3.9c-0.9-2.6-1.9-5.2-2.9-7.8c-2-5.2-4.1-10.4-6.4-15.6c-0.4-1-1.9-1.2-2.7-0.7
							C169.2,76,169.1,77.1,169.5,78.1L169.5,78.1z"/>
					</g>
				</g>
			</g>
			<g>
				<g>
					<g>
						<path fill="#FFFFFF" d="M187,83c3,6.1,6,12.2,9,18.3c0.5,1,1.9,1.2,2.7,0.7c1-0.6,1.2-1.8,0.7-2.7c-3-6.1-6-12.2-9-18.3
							c-0.5-1-1.9-1.2-2.7-0.7C186.7,80.8,186.5,82,187,83L187,83z"/>
					</g>
				</g>
			</g>
		</g>
	</g>
	<rect y="0" fill-opacity="0" width="284.1" height="205"/>
</g>
</svg>
