<?xml version="1.0" encoding="utf-8"?>
<!-- Generator: Adobe Illustrator 25.0.0, SVG Export Plug-In . SVG Version: 6.00 Build 0)  -->
<svg version="1.1" id="Layer_1" xmlns="http://www.w3.org/2000/svg" xmlns:xlink="http://www.w3.org/1999/xlink" x="0px" y="0px"
	 viewBox="0 0 284.1 205" enable-background="new 0 0 284.1 205" xml:space="preserve">
<g>
	<g>
		<g>
			<g>
				<path fill="#A81A39" d="M14.4,168.5c-0.8,0.2,48.1,7,47.2-38.6c0,0,24.5-21.8,84.2-25.6c65.4-4.1,80,15.8,80,15.8
					s9.7-12.1-7.3-24c0,0-0.3-20.9-48.4-36.4c0,0-57.7-2.2-81.1,18.3c0,0-5.1,5.6-12.2,19c0,0-2.4,7.6-7.8,4.3s6.4-4.1,0.1-17.5
					s-40.4-3.1-56.7-13.2c0,0-6.2,16.5,6.2,29.6c0,0,12.3,7.1,31.3,5.8c0,0-21.4,8.4-18.9,29.4S27.7,164.8,14.4,168.5z"/>
			</g>
			<g>
				<path fill="#820F2D" d="M14.4,168.5c0,0,46.7,11,47.2-38.6c0,0,32.2-24,77.6-23.8c0,0-73.6,8.5-68-0.3c0,0-4.2-0.9-7.9,6.8
					c0,0-5.9-11-13.4-6.5l1.9,7.6c0,0-9.9,8.8-9.2,21.5S45.5,166.9,14.4,168.5z"/>
			</g>
			<g>
				<path fill="#820F2D" d="M12.4,70.6c0,0-11.4,28.9,22.8,34.3l14.7,1.1c0,0,2.3-7.4,8.5-8.1c0,0,3-13.7-19.9-11.5
					S12.4,70.6,12.4,70.6z"/>
			</g>
			<g>
				<g>
					<g>
						<g>
							<path d="M65.4,130.1C83,115.7,106,110.9,128,108.2c12.1-1.5,24.4-2.9,36.6-3.3c11.4-0.3,22.9,0.4,33.9,3.4
								s21.4,8.3,29.5,16.3c1.8,1.8,4.6-1,2.8-2.8c-2-2.1-1.6-5.3-1.4-7.9c0.3-3.1,0.7-6.4-0.5-9.4c-1.4-3.6-5-5.4-7.3-8.4
								c-2.2-2.9-3.7-6.1-5.3-9.3c-1.7-3.2-3.5-6.3-6-9c-2.9-3.1-6.8-5.1-10.4-7.3c-7.4-4.4-15.1-8.7-23.3-11.3
								c-8.9-2.8-18.2-3-27.4-2.1c-9.4,0.9-18.7,2.7-27.9,4.7C105.7,65.4,88.1,71,80,86.2c-2,3.7-3,7.9-5.9,11
								c-2.6,2.9-5.8,5-8.4,7.8c-2.7,3-4.5,6.7-5.5,10.6c-0.5,2-0.9,3.9-1.1,5.9c-0.3,2-1,4.4,0,6.3c0.7,1.3,2.4,1.8,3,3
								c1.1,2.3,4.6,0.3,3.5-2c-0.3-0.7-0.9-1.2-1.5-1.7c-0.4-0.3-1.3-0.7-1.5-1.2c-0.3-0.6,0.1-1.9,0.2-2.5c0.1-1,0.3-1.9,0.4-2.9
								c0.6-3.8,1.6-7.5,3.7-10.7c2-3.1,5.2-5.2,7.9-7.7c3-2.7,5-5.9,6.6-9.6c1.5-3.5,3.2-6.8,5.7-9.7c2.4-2.8,5.2-5.1,8.2-7.1
								c6.9-4.5,14.9-7,22.9-9c8.8-2.1,17.7-3.8,26.6-5c8.8-1.2,17.8-1.7,26.5,0.3c8.1,1.9,15.6,5.7,22.8,9.9
								c3.6,2.1,7.3,4.1,10.7,6.6c2.9,2.1,4.9,4.9,6.6,8c1.7,3,3.1,6.2,4.9,9.2c0.9,1.5,1.9,2.9,3.1,4.3c1.2,1.4,2.6,2.5,4,3.8
								c2.3,2.2,2.3,5.1,2.1,8.1s-0.7,6.1,0.1,9.1c0.4,1.5,1.2,2.8,2.3,3.9c0.9-0.9,1.9-1.9,2.8-2.8c-16.1-16-39.4-21-61.3-21
								c-12.6,0-25.2,1.4-37.7,2.9c-12.1,1.4-24.3,3.1-36.1,6.6c-12,3.6-23.4,8.9-33.1,16.9C60.6,128.9,63.5,131.8,65.4,130.1
								L65.4,130.1z"/>
						</g>
					</g>
				</g>
				<g>
					<g>
						<g>
							<path d="M70.9,104.4c24.8-7.5,50.6-11.8,76.5-12.6c7.3-0.2,14.6-0.2,21.9,0.1c2.6,0.1,2.6-3.9,0-4c-26.2-1.1-52.5,1.3-78,7
								c-7.2,1.6-14.4,3.5-21.5,5.6C67.4,101.3,68.5,105.1,70.9,104.4L70.9,104.4z"/>
						</g>
					</g>
				</g>
				<g>
					<g>
						<g>
							<path d="M211.8,80c-20.2-7.6-41.8-11.2-63.3-10.8c-5.4,0.1-11.5,0-16.1,3.2c-2.1,1.4-0.1,4.9,2,3.5c3.9-2.6,8.9-2.5,13.4-2.6
								c5.2-0.1,10.4,0,15.7,0.3c10.2,0.7,20.4,2.3,30.4,4.9c5.7,1.5,11.4,3.3,16.9,5.4c1,0.4,2.2-0.4,2.5-1.4
								C213.5,81.4,212.8,80.4,211.8,80L211.8,80z"/>
						</g>
					</g>
				</g>
				<g>
					<g>
						<g>
							<path d="M67.5,101.3c0,0.1,0,0.1,0,0.2c0.1-0.5,0.1-1,0.2-1.5c0,0.1-0.1,0.1-0.1,0.2c0.2-0.2,0.5-0.5,0.7-0.7
								c-0.1,0-0.1,0.1-0.2,0.1c0.3-0.1,0.7-0.2,1-0.3c-0.1,0-0.1,0-0.2,0c0.3,0.1,0.7,0.2,1,0.3c0.1,0.1,0.4,0.5,0,0
								c-0.1-0.1-0.2-0.3-0.3-0.4c-0.2-0.3-0.4-0.5-0.7-0.8c-0.6-0.5-1.2-1-1.9-1.3c-1.4-0.7-2.9-1-4.4-1.1c-1.7,0-3.5,0.3-5.1,0.7
								c-1.4,0.3-2.8,0.7-4.1,1.4c-2.8,1.5-3.9,4.3-4,7.4c-0.1,2.8,0,6,2.2,8c2.6,2.5,6.9,2.3,10.2,2c1.1-0.1,2-0.8,2-2
								c0-1-0.9-2.1-2-2c-1.5,0.1-3,0.2-4.5,0.1c-0.9-0.1-2.1-0.2-2.8-0.8c-1.5-1.2-1.2-4.2-1.1-5.9c0.1-0.9,0.3-1.9,1-2.6
								c0.7-0.8,1.7-1.1,2.7-1.4c2.4-0.7,5.3-1.4,7.7-0.5c0.5,0.2,0.9,0.4,1.3,0.7c0.5,0.4,0.7,1,1.2,1.4c1.6,1.8,4.7,0.2,4-2.2
								C70.7,97.8,66.8,98.9,67.5,101.3L67.5,101.3z"/>
						</g>
					</g>
				</g>
				<g>
					<g>
						<g>
							<path d="M68.3,100.9c3.8-2.8,5.4-7.4,4.8-12c-0.6-5-3.8-9.1-8.1-11.6c-10.7-6.4-23.2-2-34.9-2.6c-3.1-0.2-6.3-0.8-9.2-2.1
								c-3-1.4-5.4-3.6-7.7-5.9c-0.8-0.9-2.6-0.7-3.1,0.4c-4.1,8.4-2.9,19.1,1,27.3s12.6,11.4,21,12.6c5.9,0.8,11.8,1.2,17.7,1
								c2.6-0.1,2.6-4.1,0-4c-4.7,0.1-9.5,0-14.2-0.5c-3.9-0.4-7.8-1.1-11.4-2.5c-3.4-1.3-6.6-3.4-8.6-6.6
								c-2.2-3.5-3.2-7.7-3.8-11.7c-0.7-4.6-0.4-9.4,1.7-13.6c-1,0.1-2.1,0.3-3.1,0.4c3.8,4,8.3,7.1,13.7,8.4
								c5.5,1.3,11.2,0.9,16.7,0.4c5.6-0.5,11.5-1.1,17,0.4c4.1,1.1,8.4,3.5,10.3,7.5c1.7,3.5,1.4,8.8-2,11.3
								c-0.9,0.6-1.3,1.7-0.7,2.7C66.1,101,67.4,101.5,68.3,100.9L68.3,100.9z"/>
						</g>
					</g>
				</g>
				<g>
					<g>
						<g>
							<path d="M50,106.1c-10.2,1.5-18.9,10-20.6,20.2c-1,6.2,0,12.3,0.1,18.5c0.1,5.5-1,10.9-5,14.9c-3.9,3.9-9.3,5.8-14.7,5.1
								c-1.9-0.3-2.8,3-1,3.7c10.6,4.6,22.9,4.4,33.4-0.6c9.5-4.5,16.8-13.2,20.2-23.1c2-5.8,3.1-12.7,0-18.4
								c-1.2-2.3-4.7-0.3-3.5,2c2.3,4.3,1.3,9.8-0.1,14.2c-1.3,4.3-3.6,8.5-6.4,12c-6.2,7.5-15.1,12.3-24.9,13
								c-5.7,0.4-11.5-0.4-16.8-2.7c-0.3,1.2-0.7,2.5-1,3.7c10.6,1.4,21-6.2,23.1-16.6c1.3-6.2,0.2-12.6,0-18.9
								c-0.1-5.5,0.9-10.7,4.2-15.1c3.4-4.4,8.4-7.4,13.9-8.3c1.1-0.2,1.7-1.5,1.4-2.5C52.1,106.4,51,105.9,50,106.1L50,106.1z"/>
						</g>
					</g>
				</g>
				<g>
					<g>
						<g>
							<path d="M12.5,71.1c1.5,7,6.7,12.8,13.3,15.4c7.7,2.9,16.2-0.3,24,2.2c3.9,1.3,7,4.5,6.6,8.8c-0.1,1.1,1,2,2,2
								c1.2,0,1.9-0.9,2-2c0.4-4.1-1.7-7.9-4.9-10.3c-3-2.3-6.8-3.1-10.5-3.4c-4.4-0.3-8.8,0.3-13.1,0c-3.5-0.3-7-1.6-9.7-3.9
								c-3-2.6-5-5.9-5.9-9.8C15.8,67.5,12,68.6,12.5,71.1L12.5,71.1z"/>
						</g>
					</g>
				</g>
				<g>
					<g>
						<g>
							<path d="M52.5,110.7c-4.2,2.3-7.7,6-9.9,10.3c-2.4,5-2.6,10.3-2.3,15.7c0.3,5.2,0.9,10.8-1.2,15.8c-1.7,3.8-4.6,7.1-8.2,9.3
								c-4,2.5-8.8,3.7-13.4,2.9c-1.1-0.2-2.2,0.3-2.5,1.4c-0.3,1,0.3,2.3,1.4,2.5c9.3,1.5,18.7-2.8,24.1-10.5
								c2.9-4.2,4.1-9.1,4.1-14.1c0-5.8-1.2-11.8,0.3-17.5c1.4-5.2,4.9-9.7,9.7-12.3C56.8,112.9,54.8,109.5,52.5,110.7L52.5,110.7z"
								/>
						</g>
					</g>
				</g>
			</g>
		</g>
		<g>
			<g>
				<g>
					<path d="M47.6,183.8c11.2-1.2,22.4-3.8,32.3-9.3c2.3-1.2,0.2-4.7-2-3.5c-9.2,5.1-19.9,7.6-30.3,8.7c-1.1,0.1-2,0.8-2,2
						C45.6,182.7,46.5,183.9,47.6,183.8L47.6,183.8z"/>
				</g>
			</g>
		</g>
		<g>
			<g>
				<g>
					<path d="M128.3,148.5c12.4-9.2,23.4-20.1,32.7-32.3c2.7-3.5,5.2-7.1,7.5-10.8c1.4-2.2-2.1-4.2-3.5-2c-8,12.6-17.8,24-29,33.8
						c-3.2,2.8-6.5,5.5-9.9,8c-0.9,0.6-1.3,1.7-0.7,2.7C126.1,148.6,127.5,149.1,128.3,148.5L128.3,148.5z"/>
				</g>
			</g>
		</g>
		<g id="layer1_2_" transform="translate(-6.3260942,-174.7524)">
			<g id="g3052_2_">
				<g id="path3055_5_">
					<g>
						<path d="M115.5,315c0.6,0,1.1,0.1,1.6,0.4l19.2,9.2c1,0.5,1.7,1.4,2,2.5l4.7,20.6c0.2,1.1,0,2.2-0.7,3.1L129,367.2
							c-0.7,0.9-1.8,1.4-2.9,1.4l0,0h-21.3l0,0c-1.1,0-2.2-0.5-2.9-1.4l-13.3-16.5c-0.1-0.1-0.1-0.2-0.2-0.3
							c-0.5-0.8-0.7-1.8-0.5-2.8l4.7-20.6c0.2-1.1,1-2,2-2.5l19.2-9.2c0.4-0.2,0.9-0.3,1.4-0.4C115.4,315,115.5,315,115.5,315
							 M115.5,309c-0.2,0-0.3,0-0.5,0c-1.3,0.1-2.5,0.4-3.7,0.9l-19.2,9.2c-2.7,1.3-4.6,3.7-5.2,6.5l-4.7,20.6
							c-0.6,2.5-0.1,5.2,1.3,7.4c0.2,0.2,0.3,0.5,0.5,0.7L97.3,371c1.8,2.3,4.6,3.6,7.5,3.6h21.3c2.9,0,5.7-1.3,7.5-3.6l13.3-16.5
							c1.9-2.3,2.5-5.3,1.9-8.2l-4.7-20.6c-0.7-2.9-2.6-5.3-5.2-6.5l-19.2-9.2C118.4,309.4,117,309,115.5,309L115.5,309z"/>
					</g>
				</g>
				<g id="path3055_2_">
					<g>
						<path fill="#406DDC" d="M104.9,369.6c-1.4,0-2.8-0.6-3.6-1.7L88,351.4c-0.1-0.1-0.2-0.2-0.3-0.4c-0.7-1-0.9-2.3-0.6-3.6
							l4.7-20.6c0.3-1.4,1.2-2.5,2.5-3.1l19.2-9.2c0.6-0.3,1.2-0.4,1.8-0.5c0.1,0,0.2,0,0.2,0c0.7,0,1.4,0.2,2,0.5l19.2,9.2
							c1.3,0.6,2.2,1.8,2.5,3.1l4.7,20.6c0.3,1.4,0,2.8-0.9,3.9l-13.3,16.5c-0.9,1.1-2.2,1.7-3.6,1.7
							C126.2,369.6,104.9,369.6,104.9,369.6z"/>
					</g>
					<g>
						<path fill="#FFFFFF" d="M115.5,315c0.6,0,1.1,0.1,1.6,0.4l19.2,9.2c1,0.5,1.7,1.4,2,2.5l4.7,20.6c0.2,1.1,0,2.2-0.7,3.1
							L129,367.2c-0.7,0.9-1.8,1.4-2.9,1.4l0,0h-21.3l0,0c-1.1,0-2.2-0.5-2.9-1.4l-13.3-16.5c-0.1-0.1-0.1-0.2-0.2-0.3
							c-0.5-0.8-0.7-1.8-0.5-2.8l4.7-20.6c0.2-1.1,1-2,2-2.5l19.2-9.2c0.4-0.2,0.9-0.3,1.4-0.4C115.4,315,115.5,315,115.5,315
							 M115.5,313c-0.1,0-0.2,0-0.3,0c-0.8,0-1.5,0.2-2.2,0.5l-19.2,9.2c-1.6,0.7-2.7,2.1-3.1,3.8L86,347.1
							c-0.3,1.5-0.1,3.1,0.8,4.3c0.1,0.1,0.2,0.3,0.3,0.4l13.3,16.5c1.1,1.3,2.7,2.1,4.4,2.1h21.3c1.7,0,3.3-0.8,4.4-2.1l13.3-16.5
							c1.1-1.4,1.5-3.1,1.1-4.8l-4.7-20.6c-0.4-1.7-1.5-3.1-3.1-3.8l-19.2-9.2C117.2,313.2,116.4,313,115.5,313L115.5,313z"/>
					</g>
				</g>
				<g id="path3059_2_">
					<path fill="#FFFFFF" d="M115.5,322c-0.6,0-1.1,0.6-1.1,1.3l0,0c0,0.1,0,0.2,0,0.3c0,0.4,0.1,0.7,0.2,1.1
						c0.1,0.8,0.2,1.5,0.1,2.1c0,0.2-0.2,0.4-0.4,0.6v0.5c-0.7,0.1-1.4,0.2-2.1,0.3c-3,0.7-5.5,2.2-7.5,4.3
						c-0.1-0.1-0.3-0.2-0.4-0.3c-0.2,0-0.4,0.1-0.7-0.1c-0.5-0.3-1-0.8-1.5-1.4c-0.3-0.3-0.4-0.5-0.8-0.8c-0.1-0.1-0.2-0.1-0.3-0.2
						c-0.2-0.2-0.5-0.3-0.8-0.3c-0.4,0-0.7,0.1-0.9,0.4c-0.4,0.5-0.3,1.3,0.3,1.7l0,0c0.1,0.1,0.2,0.1,0.2,0.2
						c0.3,0.2,0.6,0.4,1,0.6c0.7,0.4,1.3,0.8,1.7,1.2c0.2,0.2,0.2,0.5,0.2,0.7l0.4,0.3c-2,3-2.9,6.6-2.3,10.4l-0.5,0.1
						c-0.1,0.2-0.3,0.4-0.5,0.5c-0.6,0.2-1.3,0.3-2.1,0.3c-0.4,0-0.7,0-1.1,0.1c-0.1,0-0.2,0-0.3,0.1l0,0l0,0
						c-0.7,0.2-1.1,0.8-1,1.4s0.8,1,1.5,0.8l0,0l0,0c0.1,0,0.2,0,0.3-0.1c0.4-0.1,0.7-0.3,1-0.4c0.8-0.3,1.4-0.5,2-0.6
						c0.3,0,0.5,0.2,0.7,0.2l0.5-0.1c1.2,3.6,3.6,6.5,6.6,8.3l-0.2,0.5c0.1,0.2,0.2,0.5,0.1,0.6c-0.2,0.6-0.6,1.2-1,1.9
						c-0.2,0.3-0.4,0.6-0.6,0.9c0,0.1-0.1,0.2-0.1,0.3c-0.3,0.6-0.1,1.4,0.5,1.6c0.6,0.3,1.3,0,1.6-0.6l0,0l0,0
						c0-0.1,0.1-0.2,0.1-0.3c0.2-0.4,0.2-0.7,0.3-1.1c0.3-0.8,0.5-1.6,0.9-2.1c0.1-0.1,0.3-0.2,0.5-0.2l0.3-0.5
						c2.7,1,5.6,1.3,8.6,0.6c0.7-0.2,1.3-0.4,2-0.6c0.1,0.1,0.2,0.4,0.2,0.4c0.2,0.1,0.4,0.1,0.6,0.4c0.3,0.5,0.5,1.2,0.8,1.9
						c0.1,0.4,0.2,0.7,0.3,1.1c0,0.1,0.1,0.2,0.1,0.3c0.3,0.6,1,0.9,1.6,0.7c0.6-0.3,0.8-1,0.5-1.6c0-0.1-0.1-0.2-0.1-0.3
						c-0.2-0.4-0.4-0.6-0.6-0.9c-0.4-0.7-0.8-1.2-1-1.8c-0.1-0.3,0-0.5,0.1-0.7c0,0-0.1-0.3-0.2-0.5c3.2-1.9,5.5-4.9,6.6-8.3
						c0.1,0,0.4,0.1,0.5,0.1c0.2-0.1,0.3-0.3,0.6-0.2c0.6,0.1,1.2,0.3,2,0.6c0.4,0.1,0.6,0.3,1,0.4c0.1,0,0.2,0,0.3,0.1l0,0l0,0
						c0.7,0.1,1.3-0.2,1.5-0.8c0.1-0.6-0.3-1.2-1-1.4c-0.1,0-0.2-0.1-0.3-0.1c-0.4-0.1-0.7-0.1-1.1-0.1c-0.8-0.1-1.5-0.2-2.1-0.3
						c-0.2-0.1-0.4-0.4-0.5-0.5l-0.5-0.1c0.2-1.7,0.2-3.6-0.2-5.4s-1.2-3.5-2.2-5c0.1-0.1,0.3-0.3,0.4-0.4c0-0.2,0-0.4,0.2-0.7
						c0.5-0.4,1-0.8,1.7-1.2c0.3-0.2,0.6-0.3,1-0.6c0.1-0.1,0.2-0.1,0.3-0.2c0.6-0.4,0.7-1.2,0.3-1.7s-1.2-0.5-1.7-0.1
						c-0.1,0.1-0.2,0.1-0.3,0.2c-0.3,0.3-0.5,0.5-0.8,0.8c-0.6,0.6-1,1.1-1.5,1.4c-0.2,0.1-0.5,0.1-0.7,0.1l-0.4,0.3
						c-2.5-2.6-5.9-4.3-9.5-4.6c0-0.2,0-0.4,0-0.5c-0.1-0.1-0.3-0.3-0.4-0.6c0-0.6,0-1.3,0.1-2.1c0.1-0.4,0.1-0.7,0.2-1.1
						c0-0.1,0-0.2,0-0.3C116.7,322.6,116.2,322,115.5,322L115.5,322z M114.1,330.9l-0.3,6l0,0c0,0.5-0.5,1-1,1
						c-0.2,0-0.4-0.1-0.6-0.2l0,0l-4.9-3.5c1.5-1.5,3.5-2.6,5.7-3.1C113.3,331.1,113.7,331,114.1,330.9z M117,330.9
						c2.6,0.3,5,1.5,6.9,3.3l-4.9,3.5l0,0c-0.4,0.3-1,0.2-1.4-0.2c-0.1-0.2-0.2-0.4-0.2-0.6l0,0L117,330.9z M105.4,336.5l4.5,4l0,0
						c0.4,0.4,0.5,1,0.1,1.4c-0.1,0.2-0.3,0.3-0.5,0.3l0,0l-5.8,1.7C103.4,341.3,104,338.7,105.4,336.5z M125.6,336.5
						c0.7,1.1,1.2,2.3,1.5,3.6c0.3,1.3,0.4,2.6,0.3,3.9l-5.8-1.7l0,0c-0.5-0.1-0.8-0.7-0.7-1.2c0-0.2,0.2-0.4,0.3-0.5l0,0
						L125.6,336.5L125.6,336.5z M114.6,340.9h1.8l1.1,1.4l-0.4,1.8l-1.7,0.8l-1.7-0.8l-0.4-1.8L114.6,340.9z M120.5,345.8
						c0.1,0,0.2,0,0.2,0l0,0l6,1c-0.9,2.5-2.5,4.6-4.8,6l-2.3-5.6l0,0c-0.2-0.5,0-1.1,0.5-1.3C120.3,345.8,120.4,345.8,120.5,345.8
						L120.5,345.8z M110.5,345.8c0.5,0,0.9,0.3,1,0.8c0,0.2,0,0.4-0.1,0.6l0,0l-2.3,5.6c-2.1-1.4-3.9-3.4-4.8-6l5.9-1l0,0
						C110.3,345.8,110.4,345.8,110.5,345.8L110.5,345.8z M115.5,348.2c0.2,0,0.3,0,0.5,0.1s0.4,0.2,0.5,0.4l0,0l2.9,5.3
						c-0.4,0.1-0.8,0.2-1.2,0.3c-2.2,0.5-4.5,0.4-6.5-0.3l2.9-5.3l0,0C114.8,348.4,115.1,348.2,115.5,348.2z"/>
					<path fill="#FFFFFF" d="M107.1,361.5c-0.2,0-0.4,0-0.6-0.1c-0.3-0.1-0.5-0.3-0.6-0.6c-0.1-0.4-0.1-0.8,0-1.2
						c0-0.1,0-0.1,0.1-0.2v-0.1l0,0l0.6-0.9c0.1-0.2,0.2-0.3,0.3-0.5c0.3-0.5,0.6-1,0.7-1.4l0,0c0,0,0-0.2-0.1-0.5l0,0l0.2-0.5
						c-3-1.9-5.4-4.8-6.5-8.2l-0.4,0.1l0,0c-0.1,0-0.2,0-0.3-0.1c-0.1-0.1-0.2-0.1-0.4-0.1c-0.6,0.1-1.2,0.3-2,0.6
						c-0.1,0-0.2,0.1-0.4,0.2c-0.2,0.1-0.4,0.2-0.6,0.2c-0.1,0.1-0.2,0.1-0.3,0.1c-0.4,0.1-0.8,0-1.1-0.2c-0.3-0.2-0.5-0.4-0.5-0.7
						c-0.1-0.7,0.3-1.3,1.1-1.5c0.1-0.1,0.3-0.1,0.4-0.1c0.4-0.1,0.7-0.1,1.1-0.1c0.8,0,1.5-0.1,2.1-0.3c0.2-0.1,0.3-0.3,0.4-0.4
						v-0.1l0.4-0.1c-0.5-3.6,0.2-7.2,2.3-10.3l-0.4-0.3v-0.1c0-0.2,0-0.4-0.2-0.6c-0.4-0.4-0.9-0.7-1.7-1.2c-0.4-0.2-0.7-0.4-1-0.6
						h-0.1v-0.1l0,0l-0.1-0.1c-0.3-0.2-0.5-0.5-0.6-0.9s0-0.7,0.3-1c0.2-0.3,0.5-0.4,1-0.4c0.4,0,0.7,0.1,0.9,0.3l0.1,0.1
						c0.1,0,0.1,0.1,0.2,0.1c0.3,0.2,0.4,0.4,0.5,0.5s0.2,0.2,0.3,0.3c0.6,0.7,1,1.1,1.5,1.4c0.2,0.1,0.3,0.1,0.5,0.1
						c0.1,0,0.1,0,0.2,0h0.1l0,0c0,0,0.1,0.1,0.2,0.1l0.1,0.1c2.1-2.1,4.6-3.6,7.5-4.3l2-0.3v-0.4l0,0c0.2-0.2,0.4-0.4,0.4-0.5
						c0.1-0.6,0-1.2-0.1-1.9v-0.2v-0.2c-0.1-0.3-0.2-0.6-0.2-0.9v-0.3c0-0.8,0.6-1.4,1.2-1.4c0.8,0,1.3,0.7,1.3,1.3v0.3
						c-0.1,0.2-0.1,0.4-0.1,0.6s-0.1,0.4-0.1,0.6c-0.1,0.8-0.1,1.4-0.1,2c0.1,0.3,0.3,0.4,0.4,0.5l0,0v0.4c3.5,0.3,6.8,1.9,9.4,4.5
						l0.3-0.3l0,0c0.2,0,0.5,0,0.6-0.1c0.3-0.2,0.6-0.5,1-0.9c0.1-0.1,0.3-0.3,0.4-0.5l0.8-0.8c0.1-0.1,0.1-0.1,0.2-0.1
						c0,0,0.1,0,0.1-0.1c0.3-0.2,0.6-0.3,0.9-0.3c0,0,0,0,0.1,0c0.4,0,0.7,0.2,0.9,0.4c0.2,0.3,0.3,0.6,0.3,1
						c-0.1,0.4-0.3,0.7-0.6,0.9c0,0-0.1,0.1-0.2,0.1c0,0-0.1,0-0.1,0.1c-0.3,0.2-0.5,0.3-0.7,0.4c-0.1,0.1-0.2,0.1-0.4,0.2
						c-0.7,0.4-1.2,0.8-1.7,1.2c-0.2,0.2-0.2,0.4-0.2,0.6v0.1l0,0c-0.1,0.1-0.2,0.2-0.3,0.3c1.1,1.6,1.8,3.3,2.2,5
						c0.4,1.6,0.4,3.4,0.2,5.3l0.4,0.1l0,0l0.1,0.1c0.1,0.1,0.2,0.3,0.3,0.3c0.6,0.1,1.3,0.2,2.1,0.3c0.4,0,0.7,0,1.1,0.1
						c0,0,0.1,0,0.2,0.1h0.1l0,0c0.7,0.2,1.2,0.9,1.1,1.5c-0.2,0.7-0.9,1-1.6,0.9l0,0l0,0c-0.1-0.1-0.1-0.1-0.2-0.1
						c-0.2-0.1-0.4-0.1-0.6-0.2c-0.1-0.1-0.3-0.1-0.5-0.2c-0.8-0.3-1.4-0.5-2-0.6c-0.2-0.1-0.2,0-0.4,0.1c-0.1,0-0.1,0.1-0.2,0.1
						H130c-0.1,0-0.1,0-0.3-0.1h-0.1c-1.1,3.4-3.5,6.4-6.5,8.2c0.1,0.2,0.2,0.4,0.2,0.4l0,0l0,0c-0.1,0.2-0.2,0.4-0.1,0.6
						c0.1,0.4,0.4,0.7,0.6,1.1c0.1,0.2,0.3,0.4,0.4,0.6c0.1,0.1,0.1,0.2,0.2,0.3c0.1,0.2,0.3,0.4,0.4,0.6v0.1v0.1
						c0,0.1,0.1,0.1,0.1,0.2c0.2,0.3,0.2,0.7,0.1,1s-0.3,0.6-0.7,0.8c-0.7,0.2-1.4-0.1-1.8-0.8V360v-0.1c0-0.1-0.1-0.1-0.1-0.2
						c0-0.2-0.1-0.3-0.1-0.5c-0.1-0.2-0.1-0.4-0.2-0.6s-0.2-0.5-0.3-0.7c-0.2-0.4-0.3-0.8-0.5-1.1c-0.1-0.2-0.2-0.2-0.4-0.3
						c-0.1,0-0.1,0-0.2-0.1l0,0l0,0c0-0.1-0.1-0.2-0.1-0.3c-0.3,0.1-0.6,0.2-0.9,0.3c-0.3,0.1-0.6,0.2-1,0.3
						c-2.8,0.7-5.7,0.5-8.6-0.6l-0.3,0.5h0.2c-0.2,0-0.3,0.1-0.4,0.2c-0.3,0.3-0.5,0.9-0.7,1.5c-0.1,0.2-0.1,0.4-0.2,0.6
						c0,0.1,0,0.2-0.1,0.3c0,0.2-0.1,0.5-0.2,0.8c0,0.1,0,0.1-0.1,0.2v0.1v0.1C108.1,361.3,107.6,361.5,107.1,361.5z M106.3,359.4
						c0,0.1,0,0.1-0.1,0.2v0.1v0.1c-0.1,0.3-0.2,0.7,0,1c0.1,0.2,0.3,0.4,0.5,0.5c0.5,0.3,1.1,0,1.4-0.5c0-0.1,0-0.1,0.1-0.2v-0.1
						v-0.1c0.1-0.3,0.2-0.5,0.2-0.7c0-0.1,0-0.2,0.1-0.4c0.1-0.2,0.1-0.4,0.2-0.6c0.2-0.6,0.4-1.2,0.7-1.5c0.1-0.1,0.3-0.2,0.5-0.2
						l0.3-0.5h0.1c2.8,1.1,5.7,1.3,8.5,0.6c0.3-0.1,0.7-0.2,1-0.3c0.3-0.1,0.7-0.2,1-0.3h0.1l0.1,0.1c0.1,0.1,0.2,0.3,0.2,0.4h0.1
						c0.2,0.1,0.3,0.1,0.5,0.4s0.4,0.7,0.5,1.2c0.1,0.2,0.2,0.5,0.3,0.7c0.1,0.2,0.1,0.4,0.2,0.6s0.1,0.4,0.2,0.6c0,0.1,0,0.1,0,0.1
						c0,0.1,0.1,0.1,0.1,0.2c0.3,0.5,0.9,0.8,1.4,0.6c0.2-0.1,0.4-0.3,0.5-0.6c0.1-0.3,0.1-0.6-0.1-0.8v-0.1v-0.1
						c0-0.1-0.1-0.1-0.1-0.2c-0.1-0.2-0.2-0.4-0.4-0.6c-0.1-0.1-0.1-0.2-0.2-0.3c-0.1-0.2-0.3-0.4-0.4-0.6c-0.3-0.4-0.5-0.8-0.6-1.2
						c-0.1-0.3,0-0.5,0.1-0.7c0-0.1-0.1-0.3-0.2-0.4l-0.1-0.1l0.1-0.1c3.1-1.8,5.4-4.8,6.5-8.2v-0.1h0.1c0.1,0,0.1,0,0.3,0.1
						c0.1,0,0.1,0,0.2,0c0,0,0.1,0,0.1-0.1c0.1-0.1,0.3-0.2,0.6-0.1c0.6,0.1,1.2,0.3,2,0.6c0.2,0,0.4,0.1,0.5,0.2s0.3,0.1,0.5,0.2
						c0.1,0,0.2,0,0.3,0.1c0.6,0.1,1.2-0.2,1.3-0.7s-0.3-1.1-0.9-1.2c-0.1,0-0.1,0-0.2-0.1h-0.1c-0.4-0.1-0.7-0.1-1.1-0.1
						c-0.8-0.1-1.5-0.2-2.1-0.3l0,0c-0.2-0.1-0.3-0.3-0.4-0.4l-0.1-0.1l-0.6-0.1v-0.1c0.2-1.9,0.2-3.8-0.2-5.4
						c-0.4-1.7-1.1-3.3-2.2-5l-0.1-0.1l0.1-0.1c0.1-0.1,0.3-0.3,0.4-0.4c0-0.2,0-0.4,0.2-0.7l0,0c0.5-0.4,1-0.8,1.7-1.2
						c0.1-0.1,0.2-0.1,0.4-0.2s0.4-0.2,0.6-0.4c0.1-0.1,0.1-0.1,0.2-0.1c0,0,0.1,0,0.1-0.1c0.3-0.2,0.4-0.4,0.5-0.7
						c0-0.3,0-0.6-0.2-0.8c-0.2-0.2-0.4-0.3-0.7-0.3s-0.6,0.1-0.8,0.3c-0.1,0.1-0.1,0.1-0.2,0.1c0,0-0.1,0-0.1,0.1l-0.8,0.8
						c-0.2,0.2-0.3,0.3-0.4,0.4c-0.4,0.4-0.7,0.7-1.1,1c-0.2,0.1-0.5,0.1-0.7,0.1l-0.5,0.3l-0.1-0.1c-2.5-2.6-5.9-4.3-9.4-4.6h-0.1
						v-0.6c-0.1-0.1-0.3-0.3-0.4-0.6l0,0c0-0.6,0-1.3,0.1-2.1c0.1-0.2,0.1-0.4,0.1-0.6s0.1-0.4,0.1-0.6v-0.3c0-0.5-0.4-1.1-1.1-1.1
						c-0.5,0-1,0.5-1,1.2v0.3c0,0.3,0.1,0.6,0.1,0.9l0.1,0.2v0.2c0.1,0.8,0.2,1.4,0.1,2c0,0.2-0.2,0.4-0.4,0.6v0.6l-2.2,0.3
						c-2.9,0.7-5.4,2.1-7.4,4.3l-0.1,0.1l-0.1-0.1c0,0-0.1-0.1-0.2-0.1s-0.1-0.1-0.2-0.1H104c-0.2,0-0.4,0-0.6-0.1
						c-0.5-0.3-1-0.7-1.5-1.4c-0.1-0.1-0.2-0.2-0.3-0.3c-0.1-0.2-0.3-0.3-0.5-0.5l-0.1-0.1c-0.1,0-0.1-0.1-0.2-0.1
						c-0.2-0.2-0.4-0.3-0.7-0.3c-0.4,0-0.6,0.1-0.8,0.3c-0.2,0.2-0.3,0.5-0.2,0.8c0,0.3,0.2,0.6,0.5,0.7l0.1,0.1l0.1,0.1
						c0.3,0.2,0.6,0.4,0.9,0.6c0.8,0.5,1.4,0.9,1.7,1.2c0.2,0.2,0.2,0.5,0.2,0.7l0.4,0.3l-0.1,0.1c-2.1,3.1-2.9,6.7-2.3,10.3v0.1
						l-0.6,0.1c-0.1,0.2-0.3,0.4-0.5,0.5c-0.6,0.2-1.3,0.3-2.2,0.3c-0.4,0-0.7,0-1.1,0.1c-0.1,0-0.2,0-0.2,0.1l0,0l0,0
						c-0.6,0.2-1,0.7-0.9,1.3c0,0.2,0.2,0.4,0.4,0.6c0.3,0.2,0.6,0.2,0.9,0.1l0,0c0.1,0,0.2,0,0.2-0.1l0,0l0,0
						c0.2-0.1,0.4-0.1,0.6-0.2c0.1-0.1,0.3-0.1,0.4-0.2c0.8-0.3,1.4-0.5,2-0.6l0,0c0.2,0,0.4,0.1,0.5,0.1s0.2,0.1,0.2,0.1l0.6-0.1
						v0.1c1.2,3.5,3.5,6.4,6.5,8.2l0.1,0.1l-0.2,0.5c0.1,0.2,0.2,0.5,0.1,0.7c-0.2,0.5-0.4,0.9-0.7,1.4c-0.1,0.2-0.2,0.3-0.3,0.5
						L106.3,359.4z M115.4,354.7c-1.3,0-2.6-0.2-3.8-0.6h-0.1l3-5.4c0.2-0.4,0.6-0.6,1-0.6c0.2,0,0.3,0,0.6,0.1
						c0.2,0.1,0.4,0.2,0.6,0.5l3,5.4l-1.4,0.3C117.3,354.6,116.4,354.7,115.4,354.7z M111.9,353.9c1.9,0.6,4.2,0.7,6.3,0.2l1-0.3
						l-2.8-5.2c-0.1-0.2-0.3-0.3-0.4-0.3c-0.2-0.1-0.2-0.1-0.4-0.1c-0.4,0-0.7,0.2-0.8,0.4L111.9,353.9z M109.2,353l-0.1-0.1
						c-2.3-1.6-4-3.7-4.8-6.1v-0.1l6-1h0.3c0.6,0,1,0.4,1.1,0.9c0,0.2,0,0.5-0.1,0.7L109.2,353z M104.5,346.9
						c0.8,2.3,2.4,4.2,4.6,5.7l2.2-5.5c0.1-0.2,0.1-0.4,0.1-0.6c-0.1-0.4-0.4-0.7-0.9-0.7h-0.3L104.5,346.9z M121.8,353l-2.4-5.7
						c-0.1-0.3-0.1-0.6,0-0.9s0.3-0.5,0.6-0.6c0.2-0.1,0.3-0.1,0.4-0.1h0.2l6.2,1l-0.1,0.1c-0.9,2.6-2.6,4.7-4.9,6.1L121.8,353z
						 M120.7,345.9h-0.2c-0.1,0-0.2,0-0.3,0.1c-0.2,0.1-0.4,0.3-0.5,0.5s-0.1,0.5,0,0.7l2.2,5.5c2.1-1.3,3.7-3.3,4.6-5.7
						L120.7,345.9z M115.4,345L115.4,345l-1.8-0.9l-0.4-1.9l1.4-1.5h1.9l1.2,1.5l-0.4,1.9L115.4,345z M113.8,344l1.6,0.7l1.6-0.7
						l0.4-1.7l-1-1.3h-1.7l-1.2,1.3L113.8,344z M127.5,344.2l-5.9-1.7c-0.6-0.1-0.9-0.8-0.8-1.3c0-0.2,0.2-0.5,0.3-0.6l4.5-4.2
						l0.1,0.1c0.7,1.1,1.2,2.3,1.5,3.6c0.3,1.3,0.4,2.6,0.3,3.9V344.2z M125.6,336.7l-4.3,4c-0.1,0.1-0.3,0.3-0.3,0.4
						c-0.1,0.4,0.2,1,0.6,1.1l5.7,1.7c0.1-1.2,0-2.5-0.3-3.7C126.7,338.9,126.2,337.7,125.6,336.7z M103.6,344.1V344
						c-0.3-2.6,0.3-5.3,1.7-7.5l0.1-0.1l4.6,4.1c0.3,0.3,0.4,0.6,0.4,0.9s-0.1,0.5-0.3,0.7c-0.1,0.2-0.3,0.3-0.6,0.4L103.6,344.1z
						 M105.4,336.7c-1.3,2.1-1.9,4.6-1.6,7l5.7-1.7c0.2,0,0.3-0.1,0.4-0.2l0,0c0.1-0.1,0.2-0.3,0.2-0.5s-0.1-0.5-0.3-0.7
						L105.4,336.7z M112.8,338c-0.2,0-0.5-0.1-0.7-0.2l-5-3.6l0.1-0.1c1.5-1.5,3.6-2.6,5.8-3.1c0.3,0,0.7-0.1,1.1-0.2h0.2L114,337
						C113.9,337.5,113.4,338,112.8,338z M107.5,334.2l4.8,3.4c0.2,0.1,0.4,0.2,0.5,0.2c0.4,0,0.9-0.4,0.9-0.9l0.3-5.8
						c-0.3,0.1-0.7,0.2-1,0.2C110.9,331.7,109,332.7,107.5,334.2z M118.5,338c-0.3,0-0.7-0.1-0.9-0.4l0,0c-0.1-0.2-0.2-0.4-0.2-0.7
						l-0.4-6.1h0.1c2.6,0.3,5,1.4,7,3.3l0.1,0.1l-5,3.6C118.9,337.9,118.7,338,118.5,338z M117.7,337.4c0.4,0.3,0.9,0.4,1.2,0.2
						l4.8-3.4c-1.9-1.8-4.2-2.8-6.6-3.1l0.4,5.8C117.5,337.1,117.6,337.2,117.7,337.4z"/>
				</g>
			</g>
		</g>
	</g>
	<rect x="-0.1" y="-0.5" fill-opacity="0" width="284.1" height="205"/>
</g>
</svg>
