<?xml version="1.0" encoding="utf-8"?>
<!-- Generator: Adobe Illustrator 25.0.0, SVG Export Plug-In . SVG Version: 6.00 Build 0)  -->
<svg version="1.1" id="Layer_1" xmlns="http://www.w3.org/2000/svg" xmlns:xlink="http://www.w3.org/1999/xlink" x="0px" y="0px"
	 viewBox="0 0 254.4 263.7" enable-background="new 0 0 254.4 263.7" xml:space="preserve">
<g>
	<g>
		<path fill="#995B08" d="M43.8,105.4c0,0-1.4,7.7,11.3,10.3l14.2,111.6c0,0,5.9,9.2,10.6,0l0.2-115.5c0,0,15.9-4.5,8.9-25.5
			C88.9,86.3,61.7,103.6,43.8,105.4z"/>
		<path fill="#56370A" d="M80.1,111.8c0,0,15.9-4.5,8.9-25.5c0,0-27.2,17.3-45.1,19.1c0,0-1.4,7.7,11.3,10.3l2.6,22.4
			c0,0,7.3-18.3,22.4-17.4L80.1,111.8z"/>
		<g>
			<path fill="#204A9E" d="M18.9,105.1c0,0,46.7,8.3,87.2-34.5c0,0-24.7-78.6-71.6-59.1C-5.2,28,19.5,56.5,18.9,105.1z"/>
			<path fill="#123875" d="M17.4,84.9c0,0,56.8-16.5,70.1-52.8c0,0-25.6-34.5-55.6-20.1S13.9,53.3,17.4,84.9z"/>
			<g>
				<g>
					<path d="M20.9,105.3c0.1-18.8-5.6-37-7.2-55.7c-0.4-4.5-0.3-8.9,0.2-13.4c0.4-3.7,1.3-7.5,3.4-10.7c2.5-3.6,6.7-6.3,10.5-8.4
						c4.5-2.5,9.3-4.4,14.2-5.6c4.5-1.1,8.8-1.4,13.3-0.4c4.6,1,9,2.8,13.1,5.1c7.6,4.4,13.1,11.5,17.9,18.7
						c2.8,4.3,4.9,8.9,7.2,13.4c2.8,5.6,5.5,11.1,8.3,16.7c0.6,1.3,1.3,2.5,1.9,3.8s0.4,1.8-0.6,2.7c-1.9,1.8-3.9,3.6-5.9,5.3
						c-3.9,3.3-8,6.5-12.3,9.3c-16.8,11.3-36.8,19.2-57.3,18c-2.4-0.1-4.8-0.4-7.2-0.8c-1.1-0.2-2.2,0.3-2.5,1.4
						c-0.3,1,0.3,2.3,1.4,2.5c21.5,3.6,43.1-2.8,61.6-13.8c4.8-2.8,9.3-6,13.7-9.4c2.2-1.7,4.3-3.4,6.4-5.2c2-1.7,4.2-3.4,5.9-5.4
						c2.2-2.7,0.9-5.4-0.5-8.1c-1.4-2.9-2.9-5.8-4.3-8.7c-2.9-5.8-5.8-11.6-8.6-17.4c-2.1-4.1-4.7-8-7.5-11.7
						c-2.7-3.6-5.6-7.3-9.1-10.2c-3.7-3.2-8-5.7-12.6-7.6C59.8,7.8,54.9,6.6,50,6.4c-5-0.1-10.2,1.3-14.9,3
						c-5.2,1.9-10.2,4.4-14.6,7.7c-3.6,2.7-6.7,5.6-8.4,9.9c-1.8,4.3-2.2,9-2.5,13.6c-0.5,9.3,1.2,18.7,2.8,27.8
						c1.7,9.8,3.6,19.6,4.3,29.5c0.2,2.5,0.3,4.9,0.3,7.4C16.9,107.9,20.9,107.9,20.9,105.3L20.9,105.3z"/>
				</g>
			</g>
			<g>
				<g>
					<path d="M87,86.8c2.3,6.3,3,15.1-2.5,20.1c-3.3,3.1-8.3,3.4-12.6,4c-5.2,0.7-10.6,1.8-15.9,2c-4.1,0.2-10.5-1.3-10.3-6.6
						c0.1-2.6-3.9-2.6-4,0c-0.2,5.2,4.4,9.2,9.2,10.2c2.9,0.6,5.8,0.4,8.8,0.1c3-0.4,6-0.8,9.1-1.2c5.5-0.7,11.8-0.9,16.6-4.1
						c3.6-2.4,5.9-6.2,6.8-10.4c1-5,0.4-10.3-1.3-15C90,83.4,86.1,84.4,87,86.8L87,86.8z"/>
				</g>
			</g>
			<g>
				<g>
					<path d="M53.1,115.7c2.1,17.9,4.2,35.8,6.3,53.7c1,8.9,2.1,17.8,3.1,26.7c0.5,4.5,1,8.9,1.6,13.4c0.5,4.3,0.9,8.7,1.6,13.1
						c0.6,3.7,2.1,7.7,5.7,9.5c3.2,1.5,7.2,1.1,9.3-2c-0.2,0.2-0.5,0.5-0.7,0.7c1.3-0.9,1.8-2.5,2.1-4c0.5-2.2,0.7-4.5,0.8-6.8
						c0.5-7,0.4-14.1,0.4-21.1c-0.2-18.9-1-37.9-1.4-56.8c-0.1-4.9-0.2-9.9-0.3-14.8c0-2.2,0-4.4,0-6.6c0-2.7-0.4-5.8,0.5-8.4
						c0.8-2.4-3-3.5-3.9-1.1c-0.5,1.5-0.6,3.3-0.6,4.9c0,2.1,0,4.3,0,6.4c0,3.2,0.1,6.5,0.1,9.7c0.1,7.4,0.3,14.7,0.5,22.1
						c0.4,14.8,1,29.7,1.1,44.5c0.1,5.8,0.1,11.7-0.2,17.5c-0.1,2.1-0.2,4.2-0.4,6.3c0,0.4-0.1,0.8-0.1,1.2c0.1-0.5,0,0,0,0.2
						s-0.1,0.4-0.1,0.7c-0.1,0.6-0.2,1.2-0.4,1.9c-0.1,0.2-0.2,0.4-0.2,0.7c-0.1,0.4,0.2-0.3,0.1-0.1c-0.1,0.1-0.1,0.2-0.2,0.3
						c-0.4,0.4,0.3-0.3,0,0c-0.2,0.2,0.4-0.3,0.2-0.2c-0.5,0.4-0.7,0.9-1.1,1.2c-1,0.8-2.6,0.5-3.7,0c-1.7-0.9-2.6-2.8-3-4.6
						c-0.6-2.3-0.8-4.8-1.1-7.2c-0.3-2.8-0.7-5.6-1-8.4c-0.7-5.6-1.3-11.2-2-16.8c-2.6-22.4-5.3-44.9-7.9-67.3
						c-0.3-2.8-0.7-5.6-1-8.4c-0.1-1.1-0.8-2-2-2C54.1,113.7,52.9,114.6,53.1,115.7L53.1,115.7z"/>
				</g>
			</g>
		</g>
	</g>
	<rect x="-0.2" y="0.1" fill-opacity="0" width="254.4" height="263.7"/>
</g>
</svg>
