<?xml version="1.0" encoding="utf-8"?>
<!-- Generator: Adobe Illustrator 25.0.0, SVG Export Plug-In . SVG Version: 6.00 Build 0)  -->
<svg version="1.1" id="Layer_1" xmlns="http://www.w3.org/2000/svg" xmlns:xlink="http://www.w3.org/1999/xlink" x="0px" y="0px"
	 viewBox="0 0 254.4 263.7" enable-background="new 0 0 254.4 263.7" xml:space="preserve">
<g>
	<g>
		<g>
			<path fill="#6EEDE4" d="M245.9,144.9c0,0-23.3-27-63.2,5.5S122.6,210,57.9,190.2S7.7,27.7,49.2,14.2l11-2
				c0,0-19.7,64.6-13.8,95.5s17.1,57.5,69.9,51.5c37.3-4.2,47.5-31.1,91.4-35.8C241.4,119.8,245.9,144.9,245.9,144.9z"/>
			<path fill="#0CBFB2" d="M60.1,12.2c0,0-19.7,64.6-13.8,95.5s17.1,57.5,69.9,51.5c37.3-4.2,47.5-31.1,91.4-35.8
				c33.8-3.6,38.2,21.5,38.2,21.5s0.9-30.6-43.4-34.4c0,0-9.1-3.6-50.2,20.1s-76.3,4.2-79.6-22.2C67.6,68.1,92.7,12.2,60.1,12.2z"/>
			<path fill="#0CBFB2" d="M35.6,116.1c0,0,5.4,11,0.9,21.3s-11-8-11-8S22,92.2,35.6,116.1z"/>
			<path fill="#0CBFB2" d="M79.2,180.3c0.5-0.2-20.2-23-30.7-16.5C48.6,163.8,53.2,189.2,79.2,180.3z"/>
			<path fill="#0CBFB2" d="M107.2,183.8c0.1,0.4,11,11,28.6-5.5c0,0-1.6-9.1-15.1-5.7C107.3,176,107.2,183.8,107.2,183.8z"/>
			<path fill="#0CBFB2" d="M173.4,156c0,0-8.6,7-11.9,3c-3.4-4.1,8.4-13.7,12.7-13.4C178.4,145.9,181.5,148.7,173.4,156z"/>
		</g>
		<path fill="#02A898" d="M14.2,91.7c0,0,27.5-7.8,61.3-31.8c0,0,12.2-47.2-15.4-47.8C32.5,11.6,12.9,59.1,14.2,91.7z"/>
		<g>
			<g>
				<g>
					<path d="M250.2,147.2c-11.3-17.2-35.8-16.9-52.5-8.9c-10.8,5.2-19.9,13.4-28.7,21.4c-9.1,8.2-18.1,16.4-28.8,22.5
						c-20.4,11.6-45.3,16.7-68.3,10.9C51.7,188,33.6,174.2,24,155.6c-5-9.6-6.7-20.1-7.7-30.8c-1.1-12.2-1.2-24.6,0.1-36.7
						c0.3-2.7,0.7-5.4,1.2-8.1c0.5-2.5-3.4-3.6-3.9-1.1c-2.2,11.9-2.6,24.2-2.1,36.3c0.3,6.1,0.8,12.1,1.6,18.1
						c0.7,5.3,1.7,10.6,3.5,15.7c7.2,20.2,23.8,36.3,43.4,44.4c21.9,9.1,47.2,7.5,68.9-1.4c11.4-4.6,21.7-11.2,31.1-19.1
						c9.4-7.9,17.9-16.8,27.8-24c8.5-6.2,17.9-10.8,28.5-11.7c9-0.8,18.8,0.8,25.8,6.9c1.7,1.5,3.2,3.2,4.5,5.1
						C248.1,151.4,251.6,149.4,250.2,147.2L250.2,147.2z"/>
				</g>
			</g>
			<g>
				<g>
					<path d="M248.7,142.3c-4.5-9.8-13.9-16.2-24.1-19c-11.1-3.1-22.7-2.3-33.5,1.2c-13.2,4.2-25.1,11.4-37.2,18
						c-12.6,6.8-25.7,12.7-39.9,15.1c-12.8,2.1-26.4,1-38.1-4.9c-4.7-2.3-8.9-5.3-12.6-9.1c-2.2-2.2-3.6-4.1-5.3-6.5
						c-8-12.1-10.2-27.2-10.3-41.7c-0.2-23.9,5.2-47.8,11.6-70.7c1-3.6,2.1-7.2,3.2-10.7c0.8-2.5-3.1-3.5-3.9-1.1
						c-7.4,24.4-13.7,49.7-14.8,75.3c-0.6,15.7,0.8,32.4,8.2,46.5c3,5.6,7,10.8,11.8,14.9c10,8.4,23,12.5,36,13
						c14.3,0.5,28.4-3.5,41.4-9.2c12.9-5.7,24.7-13.4,37.4-19.5c11.1-5.3,23-9.2,35.5-8.3c10.2,0.8,20.7,4.6,27.4,12.6
						c1.6,1.9,2.8,4,3.8,6.2c0.5,1,1.9,1.2,2.7,0.7C249,144.5,249.2,143.3,248.7,142.3L248.7,142.3z"/>
				</g>
			</g>
			<g>
				<g>
					<path d="M134.6,177.8c-5.8,5.6-14,8.6-22,7.9c-1.5-0.1-3.1-0.6-3.4-2.2c-0.3-1.7,0.8-3.2,2.1-4.3c1.5-1.3,3.5-2.3,5.4-3.2
						s3.9-1.6,6-2c2.2-0.4,4.5-0.4,6.7,0.2c1,0.3,2,0.6,2.7,1.3c0.4,0.3,1.3,1.1,1,1.7c-1.2,2.3,2.3,4.3,3.5,2
						c1.3-2.5,0.2-5.1-1.9-6.8c-2.1-1.7-4.9-2.4-7.6-2.6c-5.6-0.4-11.3,1.8-16,4.6c-2.2,1.4-4.3,3.1-5.3,5.6
						c-0.9,2.2-0.8,4.9,0.7,6.9c1.7,2.3,4.7,2.8,7.4,2.9c2.6,0.1,5.3-0.2,7.9-0.7c5.9-1.3,11.4-4.2,15.8-8.4
						C139.3,178.8,136.5,176,134.6,177.8L134.6,177.8z"/>
				</g>
			</g>
			<g>
				<g>
					<path d="M75.5,180.6c-8.2,1.7-17.1-2.1-22.1-8.7c-1.3-1.7-2.3-3.6-3-5.6c-0.2-0.5-0.5-1.5,0-1.8c0.7-0.5,2.4,0.1,3.1,0.2
						c4.6,0.9,9,2.7,13,5.3c4.4,2.9,8.2,6.8,11,11.3c1.4,2.2,4.8,0.2,3.5-2c-6-9.7-16.2-16.8-27.5-18.6c-2.7-0.4-6.2-0.3-7.1,2.9
						c-0.7,2.6,0.7,5.5,1.9,7.8c2.5,4.5,6.4,8.3,11,10.6c5.3,2.8,11.4,3.7,17.3,2.5C79.1,184,78,180.1,75.5,180.6L75.5,180.6z"/>
				</g>
			</g>
			<g>
				<g>
					<path d="M32.1,114.8c1.7,4.5,3.4,9.2,3.7,14.1c0.1,2.3,0,4.5-0.7,6.7c-0.3,1-0.8,2-1.4,2.9c-0.4,0.7-0.7,1.3-1.4,0.7
						c-0.8-0.7-1.3-1.7-1.8-2.6c-0.6-1.1-1.1-2.2-1.6-3.4c-0.9-2.4-1.6-4.8-2.1-7.4c-0.8-4.7-0.8-9.9,0.4-14.5
						c0.2-0.9,0.5-1.7,1.5-1.5s1.9,1,2.6,1.8c1.7,2.1,2.6,4.9,2.7,7.6c0.1,2.6,4.1,2.6,4,0c-0.1-3.3-1.1-6.6-3-9.3
						c-1.6-2.2-4.1-4.4-7-4.2c-3.7,0.3-4.6,3.9-5.1,6.9c-0.5,3.1-0.7,6.3-0.5,9.4c0.2,3.3,0.8,6.6,1.8,9.7c0.9,2.9,2.1,5.9,3.9,8.5
						s5.1,4.4,7.8,1.9c2.1-1.9,3.2-5.2,3.6-7.9c1.2-7-1.1-14.1-3.5-20.6C35,111.3,31.2,112.4,32.1,114.8L32.1,114.8z"/>
				</g>
			</g>
			<g>
				<g>
					<path d="M176.2,149.5c-1.6,2.2-3.6,4.2-5.8,5.7c-1.2,0.8-2.4,1.6-3.7,2.2c-0.6,0.3-1,0.5-1.6,0.7c-0.4,0.1-1.1,0.3-1.3,0.2
						c-0.3,0-0.4-0.1-0.5-0.1c-0.1-0.1-0.1,0-0.2-0.2c-0.1-0.3,0-0.8,0.1-1.2c0.3-1.2,0.9-2.2,1.6-3.2c1.7-2.1,4-4.1,6.4-5.4
						c1.1-0.6,2.5-1,3.5-0.8c0.6,0.1,1,0.3,1.5,0.7c0.2,0.2,0.5,0.6,0.6,1c0.7,2.5,4.6,1.4,3.9-1.1c-1-3.7-5.2-5.2-8.7-4.4
						c-1.8,0.5-3.5,1.5-5,2.6s-2.9,2.3-4.2,3.6c-2.4,2.5-5.1,7.2-2.7,10.5c2.5,3.5,7.2,1.4,10.1-0.3c3.8-2.2,7-5.1,9.6-8.6
						c0.6-0.9,0.1-2.2-0.7-2.7C177.9,148.2,176.8,148.7,176.2,149.5L176.2,149.5z"/>
				</g>
			</g>
			<g>
				<g>
					<path d="M78.2,55.2c1-5.8,1.6-11.7,1.6-17.5c0-4.8-0.3-9.8-1.6-14.5c-1.1-4-3.2-7.9-6.7-10.3c-2-1.3-4.2-1.8-6.5-2.2
						c-2.8-0.5-5.6-0.6-8.5-0.2c-2.7,0.4-5.3,1.3-7.8,2.3s-5,2.1-7.3,3.6c-2.9,1.9-5.9,4.1-8.3,6.6c-2.6,2.6-4.5,5.8-6.1,9.1
						c-2.2,4.4-4,8.9-5.6,13.5c-3.9,10.8-6.2,22-7.7,33.4c-0.1,1.1,0.3,2.1,1.4,2.5c0.9,0.3,2.3-0.3,2.5-1.4
						c1.3-9.6,3.2-19.2,6.1-28.5c1.3-4.1,2.8-8.2,4.5-12.2c1.6-3.8,3.3-7.6,5.7-10.9c1.6-2.2,3.6-4,5.7-5.7
						c3.6-2.8,7.4-5.1,11.7-6.6c2.3-0.8,4.7-1.7,7.1-1.8c2.6-0.2,5.2,0.1,7.7,0.7c3.6,0.8,6,3.3,7.4,6.7c1.8,4.5,2.3,9.5,2.4,14.3
						c0.1,6.1-0.5,12.2-1.5,18.3c-0.2,1.1,0.3,2.2,1.4,2.5C76.7,56.8,78,56.3,78.2,55.2L78.2,55.2z"/>
				</g>
			</g>
		</g>
		<g>
			<g>
				<path d="M250.1,146.8c-2-16.9-14.5-30.8-30.4-35.9c-8.6-2.8-18-3.1-26.9-1.3c-9.5,1.9-18.1,6.5-26.5,11.2
					c-16.1,9-33.3,18.6-52.3,18.3c-7.7-0.1-15.5-2-22.2-5.8c-6.9-3.9-12.2-10-15-17.4c-3-8-3.3-16.6-2.9-25c0.5-9.5,2-18.9,3.3-28.3
					c0.3-2.6,0.7-5.3,1-7.9c0.1-1.1-1-2-2-2c-1.2,0-1.9,0.9-2,2c-1.3,9.9-2.8,19.8-3.8,29.7c-0.9,8.6-1.2,17.3,0.5,25.8
					c1.7,8.1,5.5,15.7,11.6,21.3c5.8,5.3,13.2,8.7,20.9,10.3c18.1,3.8,36.1-2.5,52.1-10.7c8.6-4.4,16.8-9.7,25.6-13.6
					c8.5-3.8,17.5-5.7,26.8-5c16.6,1.4,32,12.2,36.9,28.5c0.6,1.9,1,3.8,1.2,5.7c0.1,1.1,0.8,2,2,2
					C249.1,148.8,250.2,147.9,250.1,146.8L250.1,146.8z"/>
			</g>
		</g>
	</g>
	<rect x="-0.2" y="0.1" fill-opacity="0" width="254.4" height="263.7"/>
</g>
</svg>
