<?xml version="1.0" encoding="utf-8"?>
<!-- Generator: Adobe Illustrator 25.0.0, SVG Export Plug-In . SVG Version: 6.00 Build 0)  -->
<svg version="1.1" id="Layer_1" xmlns="http://www.w3.org/2000/svg" xmlns:xlink="http://www.w3.org/1999/xlink" x="0px" y="0px"
	 viewBox="0 0 254.4 263.7" enable-background="new 0 0 254.4 263.7" xml:space="preserve">
<g>
	<rect fill-opacity="0" width="254.4" height="263.7"/>
	<g>
		<path fill="#E2B059" d="M43.9,106.7c0,0,14.6,38.2,8.8,95.8c0,0,8.3,1.9,31.8-4.6c0,0,0.9-24.5,7.8-28.8c0,0,0.4-45.3-9.7-75.2
			C82.7,93.7,49.4,105.8,43.9,106.7z"/>
		<path fill="#FFFFFF" d="M92.1,152.5l0.6,17.3c0,0-8.3,8.6-6.5,24.3c1.3,11.9-32.9,10-32.9,10L53,154.3
			C53,154.3,74.2,160.2,92.1,152.5z"/>
		<g>
			<path fill="#A5213D" d="M110,235.5c0,0-0.1-37.6,19.2-53.5c0,0,40.7-15.6,60.1,20.6S141.7,237.8,110,235.5z"/>
		</g>
		<g>
			<path fill="#DB4255" d="M125.6,183.2c0,0-17,24.3-15.6,52.3c0,0-56.5-0.7-65.2-4.7c0,0-4.4-13.1,5-26.2c0,0,37.9,0.6,36.5-12.6
				s2.3-29.4,31.3-28l1.8,21.7L125.6,183.2z"/>
		</g>
		<path fill="#DBDBDB" d="M187.4,229.9C160.4,265.3,45.6,240,45.6,240l-0.8-9.2l69.3,4.7C114.2,235.5,149.3,238.2,187.4,229.9"/>
		<path fill="#C48D3D" d="M43.9,106.7l6,20.4c0,0,29.6-7.7,34.8-25.9l-3.2-10.4L43.9,106.7z"/>
		<path fill="#204A9E" d="M18.9,105.3c0,0,46.7,8.3,87.2-34.5c0,0-24.7-78.6-71.6-59.1C-5.2,28.3,19.5,56.7,18.9,105.3z"/>
		<path fill="#123875" d="M17.4,86.3c0,0,56.8-16.5,70.1-52.8c0,0-25.6-34.5-55.6-20.1S13.9,54.8,17.4,86.3z"/>
		<g>
			<g>
				<path d="M121.5,184.7c-0.3-5.8-0.6-11.6-0.9-17.4c-0.1-2.5-0.6-5-3.3-5.7c-1.2-0.3-2.6-0.2-3.9-0.1c-1.4,0-2.8,0.1-4.1,0.2
					c-9.5,0.9-19.9,4.8-23.4,14.5c-1.8,4.9-1.1,10.3-1.4,15.4c-0.1,2.2-0.3,4.5-2.6,5.5c-2.4,1.1-5.2,1.7-7.8,2.3
					c-5.4,1.3-11,2.2-16.6,2.5c-2.5,0.1-5.4-0.3-7.7,0.6c-2.6,0.9-3.5,3.4-4.4,5.7c-2.2,5.5-3.5,11.4-3.8,17.3
					c-0.1,2.9,0,5.9,0.3,8.8c0.3,2.7,0.5,5.7,2.8,7.4c2.1,1.5,4.1-2,2-3.5c-0.4-0.3-0.5-1.8-0.6-2.3c-0.2-1.1-0.3-2.3-0.4-3.4
					c-0.2-2.4-0.3-4.9-0.1-7.3c0.3-4.7,1.2-9.3,2.7-13.7c0.4-1.1,0.8-2.2,1.3-3.2c0.4-0.9,0.7-1.9,1.8-2.1c1-0.2,2.1-0.1,3-0.1
					c1.3,0,2.7-0.1,4-0.2c5.1-0.3,10.1-1.1,15.1-2.2c2.5-0.6,4.9-1.2,7.3-2c2.3-0.7,4.6-1.5,6-3.6c1.2-1.8,1.5-4.1,1.6-6.2
					c0.2-2.4,0.1-4.9,0.1-7.3c0.1-4.3,0.9-8.4,3.9-11.7c2.8-3.1,6.5-5,10.5-6c2.6-0.7,5.4-1,8.1-1.2c1.4-0.1,2.9-0.2,4.3-0.1
					c0.3,0,0.8-0.1,1,0.1c0.2,0.2,0.1,1,0.2,1.3c0.3,6,0.6,11.9,0.9,17.9C117.6,187.3,121.6,187.3,121.5,184.7L121.5,184.7z"/>
			</g>
		</g>
		<g>
			<g>
				<path d="M125.8,182.2c-10.4,11-14.7,25.9-16.6,40.6c-0.5,4.2-0.9,8.4-1.1,12.7c-0.2,2.6,3.8,2.6,4,0c0.8-13.9,2.7-28.5,9.6-40.9
					c1.9-3.5,4.3-6.7,7-9.6C130.4,183.2,127.6,180.4,125.8,182.2L125.8,182.2z"/>
			</g>
		</g>
		<g>
			<g>
				<path d="M80.7,94.2c5.5,18.6,8.4,38.2,9.4,57.6c0.2,5,0.3,10,0.2,15c-0.1,2.6,3.9,2.6,4,0c0.3-9.3-0.2-18.6-1.1-27.8
					c-1-10.1-2.5-20.3-4.7-30.2c-1.1-5.2-2.4-10.4-3.9-15.5C83.9,90.7,80,91.8,80.7,94.2L80.7,94.2z"/>
			</g>
		</g>
		<g>
			<g>
				<path d="M42.2,107.7c4.1,9.7,6,20.2,7.3,30.6c1.7,13.6,2.6,27.4,2.6,41.1c0,3.8-0.1,7.5-0.2,11.3c-0.1,2-0.1,3.9-0.2,5.9
					c0,1-0.1,2-0.2,2.9c0,0.3,0,0.7-0.1,1c0,0.3,0,0.7-0.1,1c-0.1,0.7,0,0.7,0.4-0.2c0.5-0.1,1-0.1,1.5-0.2c-0.1,0-0.1,0-0.2,0
					c0.3,0.2,0.6,0.3,0.9,0.5l-0.1-0.1c0.2,0.3,0.3,0.6,0.5,0.9c0,0.1,0,0.1,0,0.2c-0.2,0.5-0.4,0.9-0.6,1.4l0.1-0.1
					c-0.6,0.2-1.3,0.3-1.9,0.5c0.1,0,0.1,0,0.2,0c1.1,0.2,2.1-0.3,2.5-1.4c0.3-0.9-0.3-2.3-1.4-2.5c-0.1,0-0.1,0-0.2,0
					c-0.7-0.1-1.5-0.1-1.9,0.5c-1,1.3-0.9,3.4,0.9,3.9c1.8,0.5,3.1-1.1,3.2-2.7c0.4-3.8,0.5-7.7,0.6-11.5c0.2-7.7,0.2-15.4-0.1-23.1
					c-0.3-7.7-0.8-15.4-1.7-23c-0.8-7.1-1.5-14.3-3.1-21.3c-1.3-6-3.1-12-5.5-17.7c-0.4-1-1.9-1.2-2.7-0.7
					C41.8,105.5,41.7,106.7,42.2,107.7L42.2,107.7z"/>
			</g>
		</g>
		<g>
			<g>
				<path d="M20.9,105.3c0.1-18.8-5.6-37-7.2-55.7c-0.4-4.5-0.3-8.9,0.2-13.4c0.4-3.7,1.3-7.5,3.4-10.7c2.5-3.6,6.7-6.3,10.5-8.4
					c4.5-2.5,9.3-4.4,14.2-5.6c4.5-1.1,8.8-1.4,13.3-0.4c4.6,1,9,2.8,13.1,5.1c7.6,4.4,13.1,11.5,17.9,18.7
					c2.8,4.3,4.9,8.9,7.2,13.4c2.8,5.6,5.5,11.1,8.3,16.7c0.6,1.3,1.3,2.5,1.9,3.8s0.4,1.8-0.6,2.7c-1.9,1.8-3.9,3.6-5.9,5.3
					c-3.9,3.3-8,6.5-12.3,9.3c-16.8,11.3-36.8,19.2-57.3,18c-2.4-0.1-4.8-0.4-7.2-0.8c-1.1-0.2-2.2,0.3-2.5,1.4
					c-0.3,1,0.3,2.3,1.4,2.5c21.5,3.6,43.1-2.8,61.6-13.8c4.8-2.8,9.3-6,13.7-9.4c2.2-1.7,4.3-3.4,6.4-5.2c2-1.7,4.2-3.4,5.9-5.4
					c2.2-2.7,0.9-5.4-0.5-8.1c-1.4-2.9-2.9-5.8-4.3-8.7c-2.9-5.8-5.8-11.6-8.6-17.4c-2.1-4.1-4.7-8-7.5-11.7
					c-2.7-3.6-5.6-7.3-9.1-10.2c-3.7-3.2-8-5.7-12.6-7.6C59.8,7.8,54.9,6.6,50,6.4c-5-0.1-10.2,1.3-14.9,3
					c-5.2,1.9-10.2,4.4-14.6,7.7c-3.6,2.7-6.7,5.6-8.4,9.9c-1.8,4.3-2.2,9-2.5,13.6c-0.5,9.3,1.2,18.7,2.8,27.8
					c1.7,9.8,3.6,19.6,4.3,29.5c0.2,2.5,0.3,4.9,0.3,7.4C16.9,107.9,20.9,107.9,20.9,105.3L20.9,105.3z"/>
			</g>
		</g>
		<g>
			<g>
				<path d="M52.4,154.7c2.3,2.9,5.8,4,9.4,4.4c3.9,0.5,8,0.5,12,0.3c6.9-0.5,15.2-2.7,19-9c1.3-2.2-2.1-4.2-3.5-2
					c-3.1,5.2-10.4,6.8-16,7.1c-3.3,0.2-6.7,0.1-10.1-0.2c-3-0.2-6-0.9-8-3.4c-0.7-0.9-2.1-0.7-2.8,0
					C51.6,152.7,51.8,153.8,52.4,154.7L52.4,154.7z"/>
			</g>
		</g>
		<path fill="#70122D" d="M110,235.5c80.2-3.4,72.2-43.9,72.2-43.9c17.6,19.6,5.2,38.3,5.2,38.3S160,239.2,110,235.5z"/>
		<g>
			<g>
				<path d="M45.2,242c19.6,4.9,39.9,7.4,60.1,8.1c10.1,0.4,20.2,0.3,30.3-0.3c8.9-0.5,18-1.1,26.8-3c7.8-1.7,15.5-4.6,21.6-9.9
					c6.1-5.4,9.5-13,9.8-21.1c0.2-8.1-2.6-16.3-7.5-22.7c-5.2-6.8-12.9-11.4-21-13.9c-18.6-5.7-38-0.1-54.8,8.5
					c-2.2,1.1-4.4,2.3-6.5,3.5c-2.2,1.3-0.2,4.7,2,3.5c15.6-8.9,33.7-16.3,52-13.1c7.9,1.4,15.6,4.6,21.6,10.1
					c5.5,5.1,9.2,12.3,10.1,19.9c0.8,7.4-1.1,14.8-6.2,20.4c-5.1,5.5-12.2,8.6-19.3,10.4c-8,2-16.2,2.7-24.4,3.2
					c-9.7,0.6-19.4,0.9-29.1,0.7c-19.3-0.4-38.6-2.4-57.4-6.5c-2.3-0.5-4.6-1-6.9-1.6C43.8,237.5,42.7,241.3,45.2,242L45.2,242z"/>
			</g>
		</g>
		<g>
			<g>
				<path d="M189.4,223.9c-14.9,8.8-32.6,9.9-49.5,9.9c-19.4,0.1-38.8,0-58.1-1.2c-11.1-0.7-22.2-1.8-33.2-3.6
					c-1.1-0.2-2.2,0.3-2.5,1.4c-0.3,1,0.3,2.3,1.4,2.5c20,3.3,40.2,4.4,60.4,4.8c9.8,0.2,19.6,0.2,29.5,0.2c8.8,0,17.6-0.2,26.3-1.4
					c9.7-1.3,19.3-4,27.7-9.1C193.6,226.1,191.6,222.6,189.4,223.9L189.4,223.9z"/>
			</g>
		</g>
	</g>
</g>
</svg>
