<?xml version="1.0" encoding="utf-8"?>
<!-- Generator: Adobe Illustrator 25.0.0, SVG Export Plug-In . SVG Version: 6.00 Build 0)  -->
<svg version="1.1" id="Layer_1" xmlns="http://www.w3.org/2000/svg" xmlns:xlink="http://www.w3.org/1999/xlink" x="0px" y="0px"
	 viewBox="0 0 254.4 263.7" enable-background="new 0 0 254.4 263.7" xml:space="preserve">
<g>
	<g>
		<path fill="#FFFFFF" d="M64.7,202.6c19.4-36.2,60.1-20.6,60.1-20.6c19.3,15.9,19.2,53.5,19.2,53.5
			C112.3,237.8,45.3,238.8,64.7,202.6z"/>
		<path fill="#E2B059" d="M171.3,93.8c-10.1,30-9.6,73.1-9.6,73.1c7,4.3,7.8,31,7.8,31c23.5,6.5,31.8,4.6,31.8,4.6
			c-5.8-57.6,8.8-95.8,8.8-95.8C204.6,105.8,171.3,93.7,171.3,93.8z"/>
		<path fill="#E2B059" d="M171.4,93.9c-10.1,29.9-9.7,75.2-9.7,75.2c6.9,4.3,7.8,28.8,7.8,28.8c23.5,6.5,31.8,4.6,31.8,4.6
			c-5.8-57.6,8.8-95.8,8.8-95.8C204.6,105.8,171.3,93.7,171.4,93.9z"/>
		<g>
			<path fill="#406DDC" d="M134.6,185.7l1.8-21.7c29-1.4,32.7,14.8,31.3,28s36.5,12.6,36.5,12.6c9.4,13.1,5,26.2,5,26.2
				c-8.7,4-65.2,4.7-65.2,4.7c1.4-28-15.6-52.3-15.6-52.3L134.6,185.7z"/>
		</g>
		<path fill="#DBDBDB" d="M66.7,229.9C93.6,265.2,208.4,240,208.4,240l0.8-9.2l-65.2,4.7c-80.2-3.4-72.2-43.9-72.2-43.9
			C54.1,211.2,66.6,229.9,66.7,229.9z"/>
		<path fill="#C48D3D" d="M171.3,93.8l-2,7.4c5.2,18.2,34.8,25.9,34.8,25.9l6-20.4L171.3,93.8z"/>
		<path fill="#204A9E" d="M219.5,11.7c-46.9-19.5-71.6,59.1-71.6,59.1c40.5,42.8,87.2,34.5,87.2,34.5
			C234.5,56.7,259.2,28.3,219.5,11.7z"/>
		<path fill="#123875" d="M222.1,13.4c-30-14.4-55.6,20.1-55.6,20.1c13.3,36.3,70.1,52.8,70.1,52.8
			C240.1,54.8,252.1,27.8,222.1,13.4z"/>
		<g>
			<g>
				<path d="M208.8,242c2.5-0.7,1.4-4.5-1.2-3.8c-2.3,0.6-4.6,1.1-6.9,1.6c-18.8,4.1-38.1,6.1-57.4,6.5c-9.7,0.2-19.4-0.1-29.1-0.7
					c-8.2-0.5-16.4-1.2-24.4-3.2c-7.1-1.8-14.2-4.9-19.3-10.4c-5.1-5.6-7-13-6.2-20.4c0.9-7.6,4.6-14.8,10.1-19.9
					c6-5.5,13.7-8.7,21.6-10.1c18.3-3.2,36.4,4.2,52,13.1c2.2,1.2,4.2-2.2,2-3.5c-2.1-1.2-4.3-2.4-6.5-3.5
					c-16.8-8.6-36.2-14.2-54.8-8.5c-8.1,2.5-15.8,7.1-21,13.9c-4.9,6.4-7.7,14.6-7.5,22.7c0.3,8.1,3.7,15.7,9.8,21.1
					c6.1,5.3,13.8,8.2,21.6,9.9c8.8,1.9,17.9,2.5,26.8,3c10.1,0.6,20.2,0.7,30.3,0.3C168.9,249.4,189.2,246.9,208.8,242L208.8,242z"
					/>
			</g>
		</g>
		<g>
			<g>
				<path d="M132.5,184.7c-0.1,2.6,3.9,2.6,4.1,0.2c0.3-6,0.6-11.9,0.9-17.9c0.1-0.3,0-1.1,0.2-1.3s0.7-0.1,1-0.1
					c1.4-0.1,2.9,0,4.3,0.1c2.7,0.2,5.5,0.5,8.1,1.2c4,1,7.7,2.9,10.5,6c3,3.3,3.8,7.4,3.9,11.7c0,2.4-0.1,4.9,0.1,7.3
					c0.1,2.1,0.4,4.4,1.6,6.2c1.4,2.1,3.7,2.9,6,3.6c2.4,0.8,4.8,1.4,7.3,2c5,1.1,10,1.9,15.1,2.2c1.3,0.1,2.7,0.2,4,0.2
					c0.9,0,2-0.1,3,0.1c1.1,0.2,1.4,1.2,1.8,2.1c0.5,1,0.9,2.1,1.3,3.2c1.5,4.4,2.4,9,2.7,13.7c0.2,2.4,0.1,4.9-0.1,7.3
					c-0.1,1.1-0.2,2.3-0.4,3.4c-0.1,0.5-0.2,2-0.6,2.3c-2.1,1.5-0.1,5,2,3.5c2.3-1.7,2.5-4.7,2.8-7.4c0.3-2.9,0.4-5.9,0.3-8.8
					c-0.3-5.9-1.6-11.8-3.8-17.3c-0.9-2.3-1.8-4.8-4.4-5.7c-2.3-0.9-5.2-0.5-7.7-0.6c-5.6-0.3-11.2-1.2-16.6-2.5
					c-2.6-0.6-5.4-1.2-7.8-2.3c-2.3-1-2.5-3.3-2.6-5.5c-0.3-5.1,0.4-10.5-1.4-15.4c-3.5-9.7-13.9-13.6-23.4-14.5
					c-1.3-0.1-2.7-0.2-4.1-0.2c-1.3-0.1-2.7-0.2-3.9,0.1c-2.7,0.7-3.2,3.2-3.3,5.7C133.1,173.1,132.8,178.9,132.5,184.7L132.5,184.7
					z"/>
			</g>
		</g>
		<g>
			<g>
				<path d="M64.6,223.9c-2.2-1.3-4.2,2.2-2,3.5c8.4,5.1,18,7.8,27.7,9.1c8.7,1.2,17.5,1.4,26.3,1.4c9.9,0,19.7,0,29.5-0.2
					c20.2-0.4,40.4-1.5,60.4-4.8c1.1-0.2,1.7-1.5,1.4-2.5c-0.3-1.1-1.4-1.6-2.5-1.4c-11,1.8-22.1,2.9-33.2,3.6
					c-19.3,1.2-38.7,1.3-58.1,1.2C97.2,233.8,79.5,232.7,64.6,223.9L64.6,223.9z"/>
			</g>
		</g>
		<g>
			<g>
				<path d="M128.2,182.2c-1.8-1.8-4.6,1-2.9,2.8c2.7,2.9,5.1,6.1,7,9.6c6.9,12.4,8.8,27,9.6,40.9c0.2,2.6,4.2,2.6,4,0
					c-0.2-4.3-0.6-8.5-1.1-12.7C142.9,208.1,138.6,193.2,128.2,182.2L128.2,182.2z"/>
			</g>
		</g>
		<g>
			<g>
				<path d="M173.3,94.2c0.7-2.4-3.2-3.5-3.9-0.9c-1.5,5.1-2.8,10.3-3.9,15.5c-2.2,9.9-3.7,20.1-4.7,30.2
					c-0.9,9.2-1.4,18.5-1.1,27.8c0.1,2.6,4.1,2.6,4,0c-0.1-5,0-10,0.2-15C164.9,132.4,167.8,112.8,173.3,94.2L173.3,94.2z"/>
			</g>
		</g>
		<g>
			<g>
				<path d="M211.8,107.7c0.5-1,0.4-2.2-0.5-2.8c-0.8-0.5-2.3-0.3-2.7,0.7c-2.4,5.7-4.2,11.7-5.5,17.7c-1.6,7-2.3,14.2-3.1,21.3
					c-0.9,7.6-1.4,15.3-1.7,23s-0.3,15.4-0.1,23.1c0.1,3.8,0.2,7.7,0.6,11.5c0.1,1.6,1.4,3.2,3.2,2.7s1.9-2.6,0.9-3.9
					c-0.4-0.6-1.2-0.6-1.9-0.5c-0.1,0-0.1,0-0.2,0c-1.1,0.2-1.7,1.6-1.4,2.5c0.4,1.1,1.4,1.6,2.5,1.4c0.1,0,0.1,0,0.2,0
					c-0.6-0.2-1.3-0.3-1.9-0.5l0.1,0.1c-0.2-0.5-0.4-0.9-0.6-1.4c0-0.1,0-0.1,0-0.2c0.2-0.3,0.3-0.6,0.5-0.9l-0.1,0.1
					c0.3-0.2,0.6-0.3,0.9-0.5c-0.1,0-0.1,0-0.2,0c0.5,0.1,1,0.1,1.5,0.2c0.4,0.9,0.5,0.9,0.4,0.2c-0.1-0.3-0.1-0.7-0.1-1
					c-0.1-0.3-0.1-0.7-0.1-1c-0.1-0.9-0.2-1.9-0.2-2.9c-0.1-2-0.1-3.9-0.2-5.9c-0.1-3.8-0.2-7.5-0.2-11.3c0-13.7,0.9-27.5,2.6-41.1
					C205.8,127.9,207.7,117.4,211.8,107.7L211.8,107.7z"/>
			</g>
		</g>
		<g>
			<g>
				<path d="M233.1,105.3c0,2.6,4,2.6,3.9,0c0-2.5,0.1-4.9,0.3-7.4c0.7-9.9,2.6-19.7,4.3-29.5c1.6-9.1,3.3-18.5,2.8-27.8
					c-0.3-4.6-0.7-9.3-2.5-13.6c-1.7-4.3-4.8-7.2-8.4-9.9c-4.4-3.3-9.4-5.8-14.6-7.7c-4.7-1.7-9.9-3.1-14.9-3
					c-4.9,0.2-9.8,1.4-14.3,3.3c-4.6,1.9-8.9,4.4-12.6,7.6c-3.5,2.9-6.4,6.6-9.1,10.2c-2.8,3.7-5.4,7.6-7.5,11.7
					c-2.8,5.8-5.7,11.6-8.6,17.4c-1.4,2.9-2.9,5.8-4.3,8.7c-1.4,2.7-2.7,5.4-0.5,8.1c1.7,2,3.9,3.7,5.9,5.4c2.1,1.8,4.2,3.5,6.4,5.2
					c4.4,3.4,8.9,6.6,13.7,9.4c18.5,11,40.1,17.4,61.6,13.8c1.1-0.2,1.7-1.5,1.4-2.5c-0.3-1.1-1.4-1.6-2.5-1.4
					c-2.4,0.4-4.8,0.7-7.2,0.8c-20.5,1.2-40.5-6.7-57.3-18c-4.3-2.8-8.4-6-12.3-9.3c-2-1.7-4-3.5-5.9-5.3c-1-0.9-1.2-1.4-0.6-2.7
					c0.6-1.3,1.3-2.5,1.9-3.8c2.8-5.6,5.5-11.1,8.3-16.7c2.3-4.5,4.4-9.1,7.2-13.4c4.8-7.2,10.3-14.3,17.9-18.7
					c4.1-2.3,8.5-4.1,13.1-5.1c4.5-1,8.8-0.7,13.3,0.4c4.9,1.2,9.7,3.1,14.2,5.6c3.8,2.1,8,4.8,10.5,8.4c2.1,3.2,3,7,3.4,10.7
					c0.5,4.5,0.6,8.9,0.2,13.4C238.7,68.3,233,86.5,233.1,105.3L233.1,105.3z"/>
			</g>
		</g>
	</g>
	<rect x="-0.2" y="0.1" fill-opacity="0" width="254.4" height="263.7"/>
</g>
</svg>
